<?xml version="1.0" encoding="UTF-8"?>
<svg viewBox="0 0 744.09 1052.4" xmlns="http://www.w3.org/2000/svg" xmlns:xlink="http://www.w3.org/1999/xlink">
 <defs>
  <linearGradient id="a" x1="241.26" x2="193.97" y1="114.15" y2="45.37" gradientTransform="translate(90.406 107.26)" gradientUnits="userSpaceOnUse">
   <stop stop-color="#92979a" offset="0"/>
   <stop stop-color="#474745" offset="1"/>
  </linearGradient>
  <linearGradient id="co" x1=".7386" x2=".26141" y1="1.8349" y2="-.83421" xlink:href="#a"/>
  <linearGradient id="cq" x1="-.082579" x2="1.0826" y1="1.1662" y2="-.16615" gradientTransform="translate(90.406 107.26)" gradientUnits="userSpaceOnUse">
   <stop stop-color="#eaeaea" offset="0"/>
   <stop stop-color="#6f6f6f" offset="1"/>
  </linearGradient>
  <linearGradient id="cp" x1=".93176" x2=".068253" y1="1.2256" y2="-.2255" gradientTransform="translate(90.406 107.26)" gradientUnits="userSpaceOnUse">
   <stop stop-color="#eaeaea" offset="0"/>
   <stop stop-color="#6f6f6f" offset="1"/>
  </linearGradient>
  <linearGradient id="cn" x1=".81592" x2=".18413" y1="1.5438" y2="-.54388" xlink:href="#a"/>
  <linearGradient id="cm" x1="-.033149" x2="1.0332" y1=".96045" y2=".039613" gradientTransform="translate(90.406 107.26)" gradientUnits="userSpaceOnUse">
   <stop stop-color="#eaeaea" offset="0"/>
   <stop stop-color="#6f6f6f" offset="1"/>
  </linearGradient>
  <linearGradient id="cl" x1="1.1284" x2="1.305" y1="1.5356" y2=".77016">
   <stop stop-color="#b3b3b3" offset="0"/>
   <stop stop-color="#b3b3b3" stop-opacity="0" offset="1"/>
  </linearGradient>
  <radialGradient id="bq" cx="226.1" cy="548.68" r="32.331" gradientTransform="matrix(1 0 0 2.605 0 -880.62)" gradientUnits="userSpaceOnUse" xlink:href="#a"/>
  <radialGradient id="br" cx="122.59" cy="325.78" r="8.0432" gradientTransform="matrix(1 0 0 3.2302 0 -726.55)" gradientUnits="userSpaceOnUse">
   <stop stop-color="#eaeaea" offset="0"/>
   <stop stop-color="#6f6f6f" offset="1"/>
  </radialGradient>
  <radialGradient id="bs" cx="165.21" cy="348.48" r="23.439" gradientTransform="matrix(1 0 0 .89506 0 36.568)" gradientUnits="userSpaceOnUse">
   <stop stop-color="#eaeaea" offset="0"/>
   <stop stop-color="#6f6f6f" offset="1"/>
  </radialGradient>
  <radialGradient id="bt" cx="161.64" cy="355.23" r="36.035" gradientTransform="matrix(1 0 0 1.3772 0 -133.98)" gradientUnits="userSpaceOnUse" xlink:href="#a"/>
  <radialGradient id="bu" cx="199.96" cy="425.42" r="19.927" gradientTransform="matrix(1 0 0 .62808 0 158.22)" gradientUnits="userSpaceOnUse" xlink:href="#a"/>
  <radialGradient id="bp" cx="217.82" cy="526.22" r="22.964" gradientTransform="matrix(1 0 0 1.5837 0 -307.17)" gradientUnits="userSpaceOnUse" xlink:href="#a"/>
  <radialGradient id="du" cx="388" cy="223.98" r="139.09" gradientTransform="matrix(1 0 0 .37039 0 141.02)" gradientUnits="userSpaceOnUse">
   <stop stop-color="#eaeaea" offset="0"/>
   <stop stop-color="#6f6f6f" offset="1"/>
  </radialGradient>
  <radialGradient id="dv" cx="397.78" cy="211.13" r="129.13" gradientTransform="matrix(1 0 0 .41573 0 123.36)" gradientUnits="userSpaceOnUse">
   <stop stop-color="#eaeaea" offset="0"/>
   <stop stop-color="#6f6f6f" offset="1"/>
  </radialGradient>
  <radialGradient id="dw" cx="479.31" cy="211.23" r="75.51" gradientTransform="matrix(1 0 0 .46771 0 112.44)" gradientUnits="userSpaceOnUse" xlink:href="#a"/>
  <radialGradient id="bo" cx="269.63" cy="458.51" r="28.955" gradientTransform="matrix(1 0 0 .75113 0 114.11)" gradientUnits="userSpaceOnUse">
   <stop stop-color="#eaeaea" offset="0"/>
   <stop stop-color="#6f6f6f" offset="1"/>
  </radialGradient>
  <radialGradient id="dx" cx="440.11" cy="249.35" r="95.567" gradientTransform="matrix(1 0 0 .26436 0 183.43)" gradientUnits="userSpaceOnUse" xlink:href="#a"/>
  <radialGradient id="bn" cx="322.39" cy="280.85" r="62.171" gradientTransform="matrix(1 0 0 .2275 0 216.96)" gradientUnits="userSpaceOnUse" xlink:href="#a"/>
  <radialGradient id="bv" cx="223.3" cy="431.78" r="21.519" gradientTransform="matrix(1 0 0 1.1275 0 -55.035)" gradientUnits="userSpaceOnUse">
   <stop stop-color="#eaeaea" offset="0"/>
   <stop stop-color="#6f6f6f" offset="1"/>
  </radialGradient>
  <radialGradient id="dy" cx="469.02" cy="283.96" r="20.235" gradientTransform="matrix(1 0 0 .32001 0 193.09)" gradientUnits="userSpaceOnUse" xlink:href="#a"/>
  <radialGradient id="bx" cx="221.61" cy="391.86" r="39.831" gradientTransform="matrix(1 0 0 1.1521 0 -59.617)" gradientUnits="userSpaceOnUse">
   <stop stop-color="#eaeaea" offset="0"/>
   <stop stop-color="#6f6f6f" offset="1"/>
  </radialGradient>
  <radialGradient id="ck" cx="416.67" cy="181.02" r="34.061" gradientTransform="matrix(1 0 0 .58855 0 74.482)" gradientUnits="userSpaceOnUse" xlink:href="#a"/>
  <radialGradient id="ce" cx="305.27" cy="422.29" r="48.084" gradientTransform="matrix(1 0 0 .34152 0 278.07)" gradientUnits="userSpaceOnUse">
   <stop stop-color="#eaeaea" offset="0"/>
   <stop stop-color="#6f6f6f" offset="1"/>
  </radialGradient>
  <radialGradient id="bw" cx="270.51" cy="473.88" r="9.4806" gradientTransform="matrix(1 0 0 1.1604 0 -75.997)" gradientUnits="userSpaceOnUse">
   <stop stop-color="#eaeaea" offset="0"/>
   <stop stop-color="#6f6f6f" offset="1"/>
  </radialGradient>
  <radialGradient id="cj" cx="429.75" cy="129.56" r="9.4375" gradientTransform="matrix(1 0 0 .307 0 89.788)" gradientUnits="userSpaceOnUse">
   <stop stop-color="#eaeaea" offset="0"/>
   <stop stop-color="#6f6f6f" offset="1"/>
  </radialGradient>
  <radialGradient id="cg" cx="307.67" cy="450.44" r="18.327" gradientTransform="matrix(1 0 0 .76158 0 107.39)" gradientUnits="userSpaceOnUse">
   <stop stop-color="#eaeaea" offset="0"/>
   <stop stop-color="#6f6f6f" offset="1"/>
  </radialGradient>
  <radialGradient id="dt" cx="563.78" cy="196.51" r="16.5" gradientTransform="matrix(1 0 0 .64194 0 70.361)" gradientUnits="userSpaceOnUse" xlink:href="#a"/>
  <radialGradient id="cf" cx="285.74" cy="454.59" r="13.662" gradientTransform="matrix(1 0 0 1.134 0 -60.901)" gradientUnits="userSpaceOnUse">
   <stop stop-color="#eaeaea" offset="0"/>
   <stop stop-color="#6f6f6f" offset="1"/>
  </radialGradient>
  <radialGradient id="cd" cx="345.79" cy="411.15" r="17.266" gradientTransform="matrix(1 0 0 .34357 0 269.89)" gradientUnits="userSpaceOnUse">
   <stop stop-color="#eaeaea" offset="0"/>
   <stop stop-color="#6f6f6f" offset="1"/>
  </radialGradient>
  <radialGradient id="ci" cx="312.74" cy="141.26" r="58.172" gradientTransform="matrix(1 0 0 .39637 0 85.269)" gradientUnits="userSpaceOnUse" xlink:href="#a"/>
  <radialGradient id="by" cx="227.17" cy="346.04" r="48.467" gradientTransform="matrix(1 0 0 .55728 0 153.2)" gradientUnits="userSpaceOnUse" xlink:href="#a"/>
  <radialGradient id="ch" cx="144.69" cy="292.69" r="32.936" gradientTransform="matrix(1 0 0 .76549 0 68.64)" gradientUnits="userSpaceOnUse" xlink:href="#a"/>
  <radialGradient id="bz" cx="367.42" cy="363.64" r="30.213" gradientTransform="matrix(1 0 0 .3049 0 252.76)" gradientUnits="userSpaceOnUse">
   <stop stop-color="#eaeaea" offset="0"/>
   <stop stop-color="#6f6f6f" offset="1"/>
  </radialGradient>
  <radialGradient id="cb" cx="296.96" cy="398.77" r="73.748" gradientTransform="matrix(1 0 0 .31207 0 274.32)" gradientUnits="userSpaceOnUse" xlink:href="#a"/>
  <radialGradient id="cc" cx="357.28" cy="399.99" r="11.886" gradientTransform="matrix(1 0 0 .35489 0 258.04)" gradientUnits="userSpaceOnUse">
   <stop stop-color="#eaeaea" offset="0"/>
   <stop stop-color="#6f6f6f" offset="1"/>
  </radialGradient>
  <radialGradient id="ca" cx="277.97" cy="371.4" r="75.804" gradientTransform="matrix(1 0 0 .24522 0 280.33)" gradientUnits="userSpaceOnUse" xlink:href="#a"/>
  <radialGradient id="db" cx="500.93" cy="150.72" r="18.287" gradientTransform="matrix(1 0 0 .38985 0 91.964)" gradientUnits="userSpaceOnUse">
   <stop stop-color="#eaeaea" offset="0"/>
   <stop stop-color="#6f6f6f" offset="1"/>
  </radialGradient>
  <radialGradient id="cv" cx="338.01" cy="288.27" r="227.48" gradientTransform="matrix(1.1778 0 0 1.1778 89.563 106.42)" gradientUnits="userSpaceOnUse">
   <stop stop-color="#eaeaea" offset="0"/>
   <stop stop-color="#eaeaea" offset=".08"/>
   <stop stop-color="#a0a0a0" offset="1"/>
  </radialGradient>
  <radialGradient id="cw" cx="37.899" cy="445.01" r="620.71" gradientTransform="matrix(1.1778 0 0 1.1778 89.563 106.42)" gradientUnits="userSpaceOnUse">
   <stop stop-color="#eaeaea" offset="0"/>
   <stop stop-color="#a0a0a0" offset="1"/>
  </radialGradient>
  <radialGradient id="ds" cx="571.33" cy="217.28" r="16.363" gradientTransform="matrix(1 0 0 .6473 0 76.635)" gradientUnits="userSpaceOnUse" xlink:href="#a"/>
  <radialGradient id="cx" cx="224.91" cy="250.76" r="18.924" gradientTransform="matrix(1 0 0 1.2306 0 -57.828)" gradientUnits="userSpaceOnUse" xlink:href="#a"/>
  <radialGradient id="da" cx="477.46" cy="133.51" r="23.288" gradientTransform="matrix(1 0 0 .18636 0 108.63)" gradientUnits="userSpaceOnUse">
   <stop stop-color="#eaeaea" offset="0"/>
   <stop stop-color="#6f6f6f" offset="1"/>
  </radialGradient>
  <radialGradient id="cy" cx="390.15" cy="159.57" r="59.098" gradientTransform="matrix(1 0 0 .43963 0 89.42)" gradientUnits="userSpaceOnUse" xlink:href="#a"/>
  <radialGradient id="cz" cx="476.69" cy="149.96" r="13.285" gradientTransform="matrix(1 0 0 .82623 0 26.057)" gradientUnits="userSpaceOnUse">
   <stop stop-color="#eaeaea" offset="0"/>
   <stop stop-color="#6f6f6f" offset="1"/>
  </radialGradient>
  <radialGradient id="cu" cx="380.89" cy="333.32" r="35.572" gradientTransform="matrix(1.1778 0 0 1.1778 89.563 106.42)" gradientUnits="userSpaceOnUse">
   <stop stop-color="#eaeaea" offset="0"/>
   <stop stop-color="#6f6f6f" offset="1"/>
  </radialGradient>
  <radialGradient id="ct" cx="411.07" cy="255.08" r="90.395" gradientTransform="matrix(1.1778 0 0 1.1778 89.563 106.42)" gradientUnits="userSpaceOnUse">
   <stop stop-color="#d9d9d9" offset="0"/>
   <stop stop-color="#d9d9d9" offset=".215"/>
   <stop stop-color="#a0a0a0" offset="1"/>
  </radialGradient>
  <radialGradient id="cr" cx="448.82" cy="684.36" r="25.05" gradientTransform="matrix(1 0 0 2.2387 -8.2807 -805.95)" gradientUnits="userSpaceOnUse">
   <stop stop-color="#ececec" offset="0"/>
   <stop stop-color="#ececec" stop-opacity="0" offset="1"/>
  </radialGradient>
  <radialGradient id="cs" cx="415.47" cy="690.85" r="20.934" gradientTransform="matrix(1.6482 0 0 3.455 -257.58 -1684)" gradientUnits="userSpaceOnUse">
   <stop stop-color="#878785" offset="0"/>
   <stop stop-color="#b3b3b3" stop-opacity="0" offset="1"/>
  </radialGradient>
  <radialGradient id="dc" cx="497.85" cy="145.22" r="24.442" gradientTransform="matrix(1 0 0 .33144 0 97.09)" gradientUnits="userSpaceOnUse">
   <stop stop-color="#eaeaea" offset="0"/>
   <stop stop-color="#6f6f6f" offset="1"/>
  </radialGradient>
  <radialGradient id="dm" cx="155.86" cy="239.98" r="34.098" gradientTransform="matrix(1 0 0 .43474 0 135.65)" gradientUnits="userSpaceOnUse" xlink:href="#a"/>
  <radialGradient id="dn" cx="141.62" cy="259.25" r="18.324" gradientTransform="matrix(1 0 0 .98934 0 2.7649)" gradientUnits="userSpaceOnUse" xlink:href="#a"/>
  <radialGradient id="dd" cx="455.79" cy="152.63" r="28.554" gradientTransform="matrix(1 0 0 .39726 0 91.997)" gradientUnits="userSpaceOnUse">
   <stop stop-color="#eaeaea" offset="0"/>
   <stop stop-color="#6f6f6f" offset="1"/>
  </radialGradient>
  <radialGradient id="do" cx="404.74" cy="288.81" r="22.134" gradientTransform="matrix(1 0 0 .61916 0 109.99)" gradientUnits="userSpaceOnUse">
   <stop stop-color="#eaeaea" offset="0"/>
   <stop stop-color="#6f6f6f" offset="1"/>
  </radialGradient>
  <radialGradient id="dq" cx="468.99" cy="206.13" r="22.518" gradientTransform="matrix(1 0 0 .55579 0 91.563)" gradientUnits="userSpaceOnUse" xlink:href="#a"/>
  <radialGradient id="dr" cx="573.04" cy="239.49" r="14.225" gradientTransform="matrix(1 0 0 1.2388 0 -57.193)" gradientUnits="userSpaceOnUse" xlink:href="#a"/>
  <radialGradient id="dp" cx="424.68" cy="245.37" r="63.754" gradientTransform="matrix(1 0 0 .1601 0 206.08)" gradientUnits="userSpaceOnUse">
   <stop stop-color="#eaeaea" offset="0"/>
   <stop stop-color="#6f6f6f" offset="1"/>
  </radialGradient>
  <radialGradient id="dl" cx="190.66" cy="240.68" r="37.35" gradientTransform="matrix(1 0 0 1.59 0 -142)" gradientUnits="userSpaceOnUse" xlink:href="#a"/>
  <radialGradient id="de" cx="370.24" cy="191.89" r="13.023" gradientTransform="matrix(1 0 0 1.6996 0 -134.24)" gradientUnits="userSpaceOnUse" xlink:href="#a"/>
  <radialGradient id="df" cx="345.86" cy="200.36" r="24.071" gradientTransform="matrix(1 0 0 1.399 0 -79.947)" gradientUnits="userSpaceOnUse" xlink:href="#a"/>
  <radialGradient id="dk" cx="229.69" cy="222.71" r="8.8203" gradientTransform="matrix(1 0 0 4.1718 0 -706.41)" gradientUnits="userSpaceOnUse" xlink:href="#a"/>
  <radialGradient id="dg" cx="317.13" cy="198.72" r="14.547" gradientTransform="matrix(1 0 0 2.7977 0 -357.23)" gradientUnits="userSpaceOnUse" xlink:href="#a"/>
  <radialGradient id="di" cx="277.78" cy="202.56" r="8.2839" gradientTransform="matrix(1 0 0 4.1048 0 -628.89)" gradientUnits="userSpaceOnUse" xlink:href="#a"/>
  <radialGradient id="dj" cx="330.87" cy="186.89" r="79.074" gradientTransform="matrix(1 0 0 .81025 0 35.462)" gradientUnits="userSpaceOnUse" xlink:href="#a"/>
  <radialGradient id="dh" cx="286.59" cy="210.36" r="23.245" gradientTransform="matrix(1 0 0 2.1439 0 -240.62)" gradientUnits="userSpaceOnUse" xlink:href="#a"/>
 </defs>
 <path d="m306.16 840.39c-65-28 20 85 0 118s-170 12-170.16 11.612c-0.15552-0.38782-1.8445 23.388-2 23-0.15552-0.38782 452.16 4.3878 452 4-0.15552-0.38782 0.15552-24.612 0-25-0.15552-0.38782-115.84 6.3878-129.84-8.6122s-4-111-2-111-83 16-148-12z" fill="#7f7f7f" stroke="#bababa"/>
 <g fill-rule="evenodd">
  <path d="m578.68 262.36c1.6253 16.803 7.0466 67.211 7.0466 67.211s-8.6731 10.3-9.2149 16.262c-0.54175 5.9619 24.934 97.022 24.934 97.022s1.6253 13.55-9.2149 15.719c-10.841 2.1683-18.429 1.0848-18.429 1.0848s-4.8784-1.0848-7.0466 0c-2.1671 1.0836-3.2518 9.7555-2.1671 11.924 1.0836 2.1683 2.7089 9.2149 2.7089 9.2149s-2.7089 8.1302-4.8784 10.84c-2.1683 2.71-8.6719 7.0466-8.6719 7.0466s5.4201 2.1683 6.5037 4.8772c1.0847 2.71-1.0836 8.1314-2.1671 9.7567-1.0847 1.6265-4.3366 5.4213-4.8783 6.5048-0.54181 1.0836-2.7101 18.429-3.2518 18.97-0.54297 0.54175 2.71 10.841 2.167 14.093-0.54059 3.2518-0.61829 15.31-10.297 24.932-9.6813 9.6224-26.151 12.988-32.113 13.531-5.9619 0.54297-39.434 3.8137-39.434 3.8137l-2.7101 15.176-3.253 11.383 18.972 8.6719s7.5884 4.8784 14.092 6.5049c6.5048 1.6265 18.97 3.7947 29.27 2.71 10.298-1.0836 34.689-2.71 43.361-3.7948 8.6732-1.0836 43.904-0.54175 49.324 0.54181 5.4213 1.0836 32.522 3.7947 8.6732 96.481-23.85 92.686-58.538 145.8-77.509 157.73-18.97 11.924-168.57 20.596-198.92 13.008-30.354-7.5895-176.16-56.372-207.6-88.892-31.438-32.522-48.241-103.53-48.241-103.53l20.597-15.719 62.875-48.781 12.466-13.008s1.0859-3.7947 0-5.4213c-1.0836-1.6254-2.1671-11.382-2.1671-14.634 0-3.253 4.3366-13.008 6.505-16.262 2.167-3.2518 7.0453-12.466 7.0453-13.008 0-0.54059-9.2137-31.436-10.297-38.483-1.0859-7.0466 0.5406-22.765 2.7089-24.934 2.1683-2.1671 16.262-13.008 18.43-14.635 2.1671-1.6253 7.5872-4.8784 7.5872-4.8784s3.253-7.5872 5.9619-11.382c2.7112-3.7936 10.841-12.467 10.3-15.719-0.54297-3.2518-0.54297-5.9619-2.1695-9.2138-1.6253-3.2518-5.9619-8.6731-8.6708-10.841-2.7112-2.1671-10.841-5.419-15.177-6.5037-4.3366-1.0836-14.093-7.5884-15.178-8.672-1.0837-1.0847-10.839-14.635-11.924-16.26-1.0847-1.6265-8.1302-7.5896-8.6718-9.7567-0.54308-2.1683-13.552-12.468-15.177-14.635-1.6266-2.1683-12.467-10.841-13.009-11.925-0.54178-1.0836-12.467-14.634-13.55-16.26-1.0847-1.6265-3.7948-9.7567-4.3366-10.84-0.54178-1.0847-3.253-12.467-3.253-12.467s-10.298-18.429-10.298-19.513c0-1.0835-2.1678-9.7567-2.1678-13.008 0-3.2518 4.3358-15.176 4.3358-16.26 0-1.0836-1.084-5.9619-1.084-5.9619s-10.841-16.26-9.2141-22.765c1.6265-6.5037 5.4198-10.84 7.0463-13.55 1.6265-2.7101 6.5048-6.5037 6.5048-8.672s-1.0852-13.552-0.5426-16.803c0.5426-3.2518 5.9622-9.2138 7.0458-11.382 1.0847-2.167 4.8784-4.8782 5.4201-5.9618 0.54295-1.0847 4.3366-5.9632 5.4213-8.1302 1.0836-2.1696 5.419-5.9619 8.1302-6.5048 2.71-0.5419 8.1302-0.5419 9.2137-2.1684 1.0836-1.6264 4.3367-4.3353 5.9619-5.4189 1.6266-1.0859 9.2149-3.7947 9.7568-4.3376 0.54295-0.5406 5.963-4.8785 10.298-7.0455 4.3366-2.1683 8.1302-3.7948 10.84-3.7948 2.7114 0 7.5896 0 9.2149 1.0836 1.6266 1.0859 8.6721 3.7947 10.299 3.7947 1.6253 0 10.841-2.1683 12.467-2.1683 1.6265 0 13.008-10.84 13.55-12.465 0.54178-1.6265 9.2149-7.5884 9.2149-8.6733 0-1.0834 11.382-10.84 11.924-11.382 0.54178-0.54166 7.5884-4.3366 9.7567-5.4201 2.1683-1.0847 14.093-9.2148 16.26-11.382 2.1683-2.1683 18.429-3.7947 18.429-3.7947s10.3-6.5048 15.719-7.0467c5.4201-0.54172 15.177 1.0847 16.803 1.0847 1.6253 0 8.1302 1.6265 12.466-1.6264 4.3377-3.2519 10.841-3.7936 16.262-4.8772 5.4201-1.086 26.017 3.2518 27.642 3.2518h14.635c2.7112 0 37.399 1.0835 41.194 2.1671 3.7936 1.0847 18.429 2.7112 22.222 4.3365 3.7948 1.6266 20.055 6.5048 22.224 7.0454 2.1683 0.54297 17.345 9.7567 19.512 11.383 2.1683 1.6253 22.765 24.39 23.307 30.354 0.54297 5.962 8.6732 2.1672 14.635 4.3355 5.9619 2.1694 14.092 10.3 15.719 11.924 1.6253 1.6278 9.2149 7.5897 9.7566 8.1303 0.54181 0.54283 4.3366 10.841 4.3366 10.841s4.3354 7.5884 4.8783 9.2137c0.54065 1.6264 1.6254 11.383 1.6254 11.383s2.1683 6.5037 2.1683 6.5037-4.3366 13.552-6.5048 17.346c-2.1671 3.7936-4.3354 11.381-4.3354 11.381" fill="url(#cw)" stroke="#666" stroke-width="1.178"/>
  <path d="m554.17 526.33c-1.9468-12.415 7.0926 29.486-10.565 49.538-13.334 15.143-42.465 22.963-102.03 19.642-51.862-27.97-79.87-52.583-93.714-75.218-111.29-264.33 167.39-286.64 224.7-284.73 2.4203 0.080093 15.32 89.094 3.7783 107.9" fill="url(#cv)"/>
  <g stroke="#666" stroke-width="1.178">
   <path d="m513.72 371.44c0-1.04 1.3874-3.8148 2.0811-4.5085 0.69257-0.69254 2.08-2.4262 2.08-3.8137 0-1.3874 0.34625-4.8548 0-5.5485s-5.5485-3.8136-6.5885-3.8136-16.298 5.201-16.644 5.5473c-0.34744 0.34744-14.218 6.9359-16.299 7.6284-2.08 0.6937-11.096 5.2022-11.443 5.2022-0.34625 0-13.524 6.5896-14.218 6.5896-0.69373 0-10.403 2.08-10.403 2.08l-1.3863 1.7337s19.072-3.1199 19.418-3.1199c0.34747 0 8.3233-1.7349 8.3233-1.7349s4.5086-0.69373 4.5086-0.34744c0 0.34744 5.201 2.4286 5.201 2.4286s6.2422 5.5485 6.5885 5.5485c0.34628 0 7.2822 2.4274 9.3633 2.7736 2.0811 0.34747 9.7096 0.69373 10.75 0.34747 1.0412-0.34747 5.5485-3.4686 5.5485-4.1611 0-0.6937 0.69373-4.1623 0.69373-4.5085 0-0.34625-1.3874-2.4286-1.3874-2.4286s0-0.69373 1.3874-2.7737c1.3874-2.0811 2.0812-4.1611 2.0812-4.1611" fill="url(#cq)"/>
   <path d="m515.1 366.94c0-1.04-1.7336-4.5074-2.0811-4.5074-0.34625 0-3.8136 0.34628-4.1611 0.34628-0.34625 0-8.6684 2.7748-9.0159 3.1211-0.34625 0.34744-13.524 6.5885-14.566 6.9359-1.04 0.34625-9.7084 3.1199-9.7084 3.1199s9.0158 3.4697 9.3621 3.816c0.34628 0.34625 6.2422 4.1611 6.2422 4.1611 0.39926 0.14371 9.5376 2.65 16.298 0.69373 0 0 3.4686-4.8548 3.4686-4.8548l-2.0812-1.7349-3.8148 2.0811-8.6684 0.34744s-7.6296-2.4286-7.977-2.4286c-0.34628 0-9.7084-2.4274-9.7084-2.4274" fill="#e5e5e5"/>
   <path d="m565.73 480.33c0 0.6937-4.1611 6.9347-4.1611 6.9347l-2.7737-3.1199s-9.3644 1.3862-14.566 5.8948c-5.2011 4.5074-12.831 7.9759-15.951 8.6684-3.1211 0.6937-17.687 3.4685-17.687 3.4685s7.6284 6.2422 12.137 8.6696 11.097 7.9759 15.606 6.5885c4.5073-1.3874 9.7095-2.08 13.177-2.4274 3.4686-0.34631 6.9359-1.04 6.9359-1.7337" fill="url(#cu)"/>
  </g>
 </g>
 <g fill="none" stroke="#666" stroke-width="1.178">
  <path d="m552.56 498.02c-2.7737-0.6937-5.201-1.0411-9.0159-1.0411-3.8137 0-6.9348 1.3874-10.402 2.4274-3.4686 1.04-8.3222 2.7748-11.792 2.7748-3.4674 0-6.5884-0.6937-6.5884-0.6937"/>
  <path d="m516.84 490.04c-0.34741 0.34628-5.8948 11.096-9.7096 16.299-3.8148 5.201-9.3622 12.483-10.056 13.177"/>
 </g>
 <g fill-rule="evenodd">
  <g stroke="#666" stroke-width="1.178">
   <path d="m330.71 493.54c-3.1364 0-7.8428-0.52411-12.026-1.57-4.1835-1.0447-5.2293-2.0917-9.4128-5.7511-4.1835-3.6605-6.7981-7.3222-9.9345-10.459-3.1376-3.1376-9.9357-8.3669-12.027-9.4128-2.0917-1.0459-10.982-4.7064-12.026-6.2752-1.0471-1.5676-9.4128-21.962-9.4128-21.962s16.733-1.5688 20.916-2.0917c4.1823-0.52292 9.4128-1.5688 15.687-2.0917 6.2752-0.52292 8.8899-1.5676 15.165-1.0458 6.274 0.52292 10.98 7.844 10.98 8.3657 0 0.52411-2.0906 10.982-2.0906 10.982s-0.52414 5.7534 0 5.7534c0.52292 0 2.6147 1.5676 4.1822 4.1823 1.57 2.6147 3.1388 5.2281 2.0917 7.321-1.0447 2.0917-1.5676 1.0459-1.0447 2.6147 0.52292 1.5688 3.6593 4.7064 3.6593 7.844 0 3.1364 1.5688 3.6593 0 6.7981-1.5676 3.1364-5.2282 6.7981-5.2282 6.7981" fill="url(#cp)"/>
   <path d="m316.6 461.12c1.0459 0.52292 5.7523 3.1376 6.2752 2.6147 0.52295-0.52295 4.7064-3.6605 1.0447-5.7511-3.6594-2.0917-5.2282-4.7076-6.274-5.7534-1.0459-1.0447-3.1376-2.6135-3.1376-4.7052s-0.52292-6.7981-2.0906-7.844c-1.57-1.0459-4.7076-2.6147-6.2752-2.6147-1.57 0-10.46 0.52295-13.074 1.5688-2.6135 1.0459-3.1364 3.1376-3.1364 4.7064s7.8428 6.2752 9.4128 6.797c1.5688 0.52292 8.3658 2.0917 10.982 3.6617 2.6135 1.5676 7.3199 4.1835 7.3199 4.7064 0 0.52176 1.5688 4.1835 1.5688 4.1835" fill="url(#cg)"/>
   <path d="m298.82 469.49c-2.0917-1.0459-8.3669-6.7969-9.9369-8.3669-1.5676-1.5688-2.6135-3.1364-4.1823-6.2752-1.5688-3.1364-3.1376-7.8428-4.1835-9.9345-1.0458-2.0917-1.0458-5.2293-2.0917-5.2293-1.0447 0-5.7511 0.52292-5.7511 1.5676 0 1.0471 3.1364 7.8452 4.7064 10.46 1.5676 2.6135 6.274 7.3199 7.8428 9.4116s12.028 7.321 12.549 7.844" fill="url(#cf)"/>
   <path d="m348.4 419.99s-16.928-2.014-16.928-2.014-3.8478 0-10.773-4.7017c-6.9253-4.7005-10.772-7.387-15.389-6.7157-4.6169 0.67252-12.311 9.4022-16.928 12.76-4.6169 3.3578-6.1562 5.3719-11.542 6.7157-5.386 1.3426-12.311 4.0291-16.928 3.3578-4.6169-0.67252-0.77026 3.3578 2.3084 3.3578 3.0775 0 9.2338 1.3426 12.311 1.3426 3.0775 0 9.2338 2.6865 13.08-0.67133 3.8478-3.3578 8.4647-5.373 12.311-8.0595 3.8478-2.6853 6.1562-6.0432 10.004-5.3718 3.8466 0.67133 9.2326 1.3426 12.311 2.6865 3.0775 1.3426 11.541 2.6853 15.389 3.3578 3.8478 0.67133 7.6944 0.67133 9.2338 0.67133 1.5393 0 3.8478 0 5.386-1.3438 1.5393-1.3427-0.7691-5.3718-1.5382-6.0432-0.77026-0.67133-3.0787 14.774-6.1562 14.103-3.0775-0.67133-10.003-1.3438-10.003-1.3438s-6.1562-0.67133-7.6944-0.67133h-10.773s0 3.3578 2.3084 4.7005c2.3084 1.3438 10.003 2.0152 13.082 2.0152 3.0775 0 10.003-1.3426 10.003-2.0152 0-0.67133 5.386-4.0292 5.386-5.3718 0-1.3427 1.5393-10.074 1.5393-10.074" fill="url(#ce)"/>
   <path d="m354.73 406.57c-10.772 1.5394-23.854 2.3084-25.392 2.3084-1.5393 0 5.386 6.9253 6.9253 6.9253 1.5382 0 7.6944 1.5382 11.541 0 3.8478-1.5394 6.1562-2.3084 7.6956-3.0775 1.5382-0.77026 6.1551 0 6.9253 0 0.76907 0-8.4647-6.9253-8.4647-6.9253" fill="url(#cd)"/>
   <path d="m368.58 398.11c-3.0775-0.7691-6.1551-2.3084-10.003-1.5382-3.8478 0.76907-7.6944 6.9253-11.542 6.9253-3.8466 0 3.8478 0.76907 7.6944-1.5394 3.8478-2.3084 9.2338-3.8478 10.773-3.8478 1.5382 0 1.5382-0.7691 1.5382-0.7691" fill="url(#cc)"/>
   <path d="m370.12 381.18c-3.0787 0-8.4647 1.5393-12.311 2.3084-3.8478 0.77026-12.312 7.6956-16.159 8.4647-3.8478 0.76907-11.542 2.3084-13.851 1.5394-2.3084-0.77029-6.9253-3.0787-8.4635-4.6169-1.5393-1.5394 1.5382-3.0787-10.004-8.4647-11.541-5.386-20.006-4.6169-23.852-2.3084-3.8478 2.3084-10.773 6.1562-12.312 7.6944-1.5382 1.5393-5.386 6.1562-7.6944 6.1562h-20.006s4.6169 5.386 10.772 6.9253c6.1562 1.5382 14.62 0 16.928-1.5394 2.3084-1.5393 9.2337-4.6169 11.542-5.386 2.3084-0.76907 15.39-3.8478 15.39-3.8478s-14.62 6.1562-20.776 12.311c-6.1562 6.1562-14.62 12.312-17.697 12.312-3.0787 0-10.773 1.5382-13.082 0-2.3084-1.5393-23.083-21.545-24.623-25.393-1.5394-3.8478 12.311 23.084 14.62 24.623 2.3084 1.5394 10.772 9.2338 15.389 9.2338 4.6169 0 17.698-0.76907 20.007-3.8478 2.3084-3.0775 10.003-6.1551 13.85-10.003 3.8478-3.8466 9.2337-5.386 13.082-7.6944 3.8478-2.3084 9.2337-3.8478 13.851-2.3084 4.6169 1.5394 16.928 4.6169 20.775 4.6169 3.8478 0 8.4647-2.3084 13.851-6.9253 5.386-4.6168 17.697-10.003 18.468-12.311" fill="url(#cb)"/>
   <path d="m353.19 378.87c-10.003-1.5382-15.39-3.0775-22.315-6.1551-6.9241-3.0775-11.541-6.9253-16.158-8.4647-4.6169-1.5382-6.1562-4.6169-14.62-4.6169-8.4647 0-13.851-4.6157-19.237 0-5.3872 4.6169-12.312 19.237-16.159 20.776-3.8478 1.5394-13.082 1.5394-16.928 0-3.8478-1.5393-10.773-2.3084-12.311-4.6169-1.5394-2.3084-2.3084-6.155-5.3872-10.003-3.0775-3.8478-5.386-6.9253-10.772-9.2337s-13.851-2.3084-15.389-3.0775c-1.5392-0.76907-1.5392 4.6169 0 5.386 1.5382 0.7691 12.311 5.386 13.85 7.6944 1.5393 2.3084 8.4647 7.6944 10.773 11.542 2.3084 3.8478 8.4635 10.003 10.772 10.003 2.3084 0 16.159 2.3084 20.776 0.77026 4.6169-1.5394 13.851-8.4647 16.159-12.312 2.3084-3.8466 10.003-6.9241 13.85-7.6944 3.8478-0.7691 10.004-0.7691 15.39 2.3084s13.08 8.4647 16.159 9.2337c3.0775 0.7691 11.541 2.3084 16.158 2.3084 4.6169 0 12.311 0.7691 13.851-0.76907 1.5393-1.5394 0-3.8478-0.7691-3.8478" fill="url(#ca)"/>
   <path d="m397.05 355.02c-9.2338 1.5382-5.386 6.155-14.62 6.9241-9.2338 0.77026-22.314 10.004-28.47 6.9253-6.1562-3.0775-16.159-6.9253-16.159-6.9253s3.8478 8.4647 9.2338 9.2338c5.386 0.77026 15.39 1.5393 20.776 0.77026 5.386-0.77026 7.6944 2.3072 16.928-3.0787 9.2338-5.386 12.311-13.85 12.311-13.85z" fill="url(#bz)"/>
   <path d="m413.21 333.47c-3.0787 0-12.311 6.9241-15.39 8.4635-3.0775 1.5393-19.237 7.6944-23.854 7.6944-4.6169 0-13.08 0.77026-16.158-0.7691-3.0787-1.5393-7.6956-3.8478-12.312-6.9253-4.6157-3.0775-6.1551-6.1562-11.541-9.2338-5.3872-3.0775-6.9253-4.6169-13.851-4.6169-6.9253 0-13.851 0.77026-18.468 1.5394-4.6169 0.76907-10.772 7.6944-14.62 8.4635-3.8466 0.77026-6.9253 2.3084-8.4635 2.3084-1.5393 0 10.772-8.4635 14.62-11.541 3.8466-3.0787 9.2338-8.4647 13.08-7.6956 3.8478 0.77026 14.62 0.77026 16.159 1.5394 1.5394 0.76907 24.623 8.4647 25.392 8.4647 0.77026 0 9.2338 3.0775 13.851 3.8466 4.6169 0.76907 11.542 0.76907 13.082-1.5382 1.5382-2.3084 10.003-5.3872 10.772-8.4647 0.77026-3.0775 7.6944-10.003 7.6944-10.773 0-0.7691 3.8478-4.6157 4.6168-7.6944 0.77026-3.0775 6.1562-6.155 6.9253-7.6944 0.77026-1.5393 10.773-5.386 13.082-5.386h14.62c1.5382 0 11.542 6.1551 12.311 6.9253 0.76907 0.76907 9.2337 6.155 10.772 5.386 1.5394-0.7691 10.773-4.6169 10.773-4.6169s-20.007-7.6944-21.545-9.2338c-1.5394-1.5382-3.8478-6.155-17.697-4.6169-13.851 1.5394-18.468 4.6169-20.007 5.3872-1.5382 0.7691-12.311 6.9242-14.62 7.6944-2.3084 0.76907-8.4635 8.4635-12.311 8.4635-3.8478 0-16.928 0-19.237-0.76907-2.3084-0.7691-7.6944-6.1562-8.4647-6.9253-0.76907-0.76907-6.9241-4.6169-11.541-6.9253s-11.542-4.6169-16.159-6.155c-4.6168-1.5394-9.2337-2.3084-14.62-0.77029-5.386 1.5394-17.698 5.3872-23.854 10.003-6.1562 4.6168-6.9253 13.082-12.311 13.851-5.3871 0.77026-16.928-1.5382-19.237-4.6169-2.3084-3.0775-0.77026-2.3084-5.3872-6.155-4.6157-3.8478-3.8466-7.6944-10.003-8.4647-6.155-0.76907-10.003 2.3084-13.85 3.8478-3.8478 1.5382-4.6169 5.386-8.4647 6.155-3.8478 0.77026-13.08 2.3084-13.851-0.76907-0.7691-3.0775 5.386 10.773 6.9253 10.003 1.5394-0.76907 10.773-3.0775 13.082-5.386 2.3084-2.3084 7.6944-2.3084 7.6944-2.3084s9.2338 6.9253 11.542 9.2338c2.3084 2.3084 8.4635 6.9253 11.541 6.9253 3.0787 0 10.004 0.7691 13.082-0.77026 3.0775-1.5382 10.772-0.76907 15.389-3.8466 4.6169-3.0775 10.773-5.386 13.851-8.4647 3.0775-3.0775 6.1562-4.6169 10.003-6.155 3.8478-1.5394 13.851-1.5394 15.39-0.77026 1.5382 0.77026 11.541 4.6168 13.85 6.9253 2.3084 2.3084 6.9253 6.1562 8.4647 7.6944 1.5382 1.5393 9.2338 6.9253 11.542 6.9253h12.311c3.0775 0 13.851-5.386 13.851-5.386s-6.1562 10.773-9.2337 10.773c-3.0787 0-10.003 0.7691-11.542 0.7691-1.5393 0-8.4647-1.5394-10.003-3.0775-1.5393-1.5393-13.082-6.1562-16.159-7.6956-3.0775-1.5382-10.772-5.386-13.08-6.1551-2.3084-0.7691-4.6169-2.3084-11.542-0.7691-6.9253 1.5382-13.082 6.1551-15.39 8.4635-2.3084 2.3084-9.2326 6.1562-13.08 8.4647-3.8478 2.3084-5.386 5.386-10.773 5.386-5.386 0-4.6157 0.7691-10.772-1.5393-6.1562-2.3084-13.851-4.6169-16.159-6.1551-2.3084-1.5393-5.386-2.3084-6.1551-3.8478-0.77026-1.5394-4.6169-4.6169-6.1562-4.6169s-4.6169 0.7691-9.2338 2.3084-8.4635 2.3084-10.003 2.3084c-1.5394 0-3.0775-1.5394-4.6169-4.6169-1.5395-3.0775-5.386-8.4635-6.155-9.2338-0.77039-0.76907-3.8479-3.0775-3.8479-4.6169 0-1.5382 0.76909-3.0775-1.5394-3.8466-2.3084-0.77026-7.6944 0.76907-8.4635 1.5382-0.77014 0.77026 9.2338 10.773 9.2338 10.773s2.3084 4.6169 2.3084 7.6944 0 10.003 1.5382 11.542c1.5395 1.5393 13.851 3.8478 16.159 3.8478 2.3084 0 8.4647 0.76907 12.311 0.76907 3.8478 0 8.4647 0.7691 9.2338 4.6169 0.76909 3.8466 6.1562 9.2338 10.003 10.003 3.8478 0.7691 11.542 2.3084 16.928 2.3084s12.311 1.5394 16.928-0.76907c4.6169-2.3084 14.62-2.3084 17.698-3.8478 3.0775-1.5393 11.541-3.0775 13.08-2.3084 1.5393 0.7691 13.851 3.0775 16.159 4.6169 2.3084 1.5394 6.1551 6.9253 13.08 7.6944 6.9253 0.76907 8.4647 2.3084 18.468 2.3084s20.776-0.76907 22.314-2.3084c1.5393-1.5382 30.01-23.083 30.01-23.083z" fill="url(#co)"/>
   <path d="m383.97 281.15c-6.1562 1.5382-1.5393 4.6169-13.851 4.6169-12.311 0-8.4647-1.5394-16.928-6.9253-8.4647-5.386-18.468-11.542-20.776-11.542-2.3084 0-16.159 3.0775-17.697 3.8478-1.5393 0.76907-9.2338 6.9241-12.311 7.6944-3.0787 0.76907-8.4647 6.9253-13.082 6.9253-4.6169 0-27.7-1.5394-28.47-4.6169-0.76907-3.0787 7.6944 10.772 11.542 10.003 3.8478-0.7691 16.928-3.0775 21.545-6.1562 4.6169-3.0775 12.311-6.155 20.776-6.155 8.4635 0 14.62 1.5382 20.006 3.8466s15.389 9.2337 21.545 10.004c6.1562 0.7691 16.928 3.8466 19.237-0.77026 2.3084-4.6169 8.4647-10.772 8.4647-10.772z" fill="url(#bn)"/>
   <path d="m488.61 278.07c-4.6169 0.77026-6.1551 8.4647-14.62 6.9253-8.4647-1.5382-24.623-2.3084-24.623-3.0775 0-0.76907 4.6169 5.386 10.772 6.1562 6.1562 0.76907 13.082 3.0775 16.928 0.76907 3.8478-2.3084 12.311-10.003 11.542-10.773z" fill="url(#dy)"/>
   <path d="m451.68 310.39c-5.3872-3.0775-3.8478-3.8478-10.773-5.386-6.9253-1.5393-12.311-2.3084-16.158-1.5393-3.8478 0.76907-13.851 6.9253-16.929 9.2338-3.0775 2.3084-7.6944 13.08-10.772 16.928-3.0775 3.8478-6.9253 7.6944-12.311 9.2337-5.386 1.5382-25.393 2.3084-25.393 2.3084s9.2338 5.386 20.007 0.7691c10.772-4.6169 22.314-10.003 26.931-14.62 4.6169-4.6169 6.9253-6.9253 12.311-9.2338 5.386-2.3084 9.2338-3.0775 18.468-3.0775 9.2326 0 13.85-0.77026 14.62-4.6169z" fill="url(#cn)"/>
   <path d="m510.93 265.76c-4.6169-2.3084-12.311-1.5382-19.237 0.77026-6.9241 2.3084-9.2326 4.6169-19.237 5.386-10.003 0.76907-16.158 3.8466-18.466 0.76907-2.3084-3.0775-8.4647-5.386-13.851-8.4635-5.386-3.0787-13.082-6.1562-19.237-6.1562-6.1562 0-20.006 3.0775-23.854 5.386-3.8478 2.3084-9.2338 6.9253-13.08 6.9253-3.8478 0-7.6956 2.3084-13.082 0.77029-5.386-1.5394-14.62-5.3872-16.928-7.6956-2.3084-2.3084-6.9253-6.1551-8.4647-6.1551-1.5382 0 2.3084-3.8478 2.3084-3.8478s10.004 6.1562 13.851 6.9253c3.8478 0.7691 10.003 2.3084 15.39 0.7691 5.386-1.5382 15.389-3.8466 17.697-7.6944 2.3084-3.8466 8.4647-6.9253 16.928-7.6944 8.4647-0.76909 16.159 3.0775 20.006 4.6169 3.8478 1.5394 13.851 6.9253 17.698 8.4635 3.8466 1.5393 12.311 3.8478 16.158 3.0787 3.8478-0.77026 13.851-1.5394 15.39-3.8478 1.5394-2.3084 9.2338-3.0775 11.542-8.4635 2.3084-5.3871 5.386-10.004 8.4635-13.851 3.0787-3.8478 10.773-7.6944 12.311-9.2338 1.5394-1.5394 8.4647-2.3084 10.773-1.5394 2.3085 0.77026 10.772 4.6169 10.772 4.6169s1.5393 6.1562-2.3085 5.3871c-3.8466-0.77026-22.314-0.77026-17.697 0.76909 4.6168 1.5382 6.1562 6.1551-0.7691 6.9253-6.9253 0.76909-12.311 4.6169-5.3872 6.1551 6.9253 1.5393 16.159 3.8478 15.39 5.386-0.76904 1.5394-5.3859 3.0787-10.773 2.3096-5.386-0.77028-15.389 3.0775-13.08 3.0775 2.3084 0 12.311 0.76907 13.08 1.5382 0.77026 0.77026-0.7691 4.6169-0.7691 4.6169" fill="url(#dx)"/>
   <path d="m540.94 242.68c-3.0775 0-1.5393-0.77026 0-3.8478 1.5394-3.0775 5.386-5.386 5.386-7.6944s6.1562-4.6169 2.3085-5.386c-3.8466-0.77026-6.1551 0-8.4635-2.3086-2.3085-2.3083-5.3872-5.3872-2.3085-6.9253 3.0775-1.5392 10.003-3.8477 10.003-3.8477s-3.0775-1.5383-6.1562-3.0775c-3.0775-1.5394-6.155-2.3084-6.9253-3.0776-0.7691-0.77028 4.6169-2.3083 4.6169-2.3083s6.1562 1.5381-0.7691-2.3084c-6.9253-3.8479-8.4647-4.6169-14.62-6.9253-6.1562-2.3086-11.542-3.0775-13.082-2.3086-1.5382 0.76909-8.4635 7.6944-10.003 9.2339-1.5382 1.538-5.386 8.4634-7.6944 12.311-2.3084 3.8465-9.2337 13.08-11.542 13.851-2.3084 0.76909-13.851 6.155-16.928 6.155-3.0775 0-10.003 0.77026-10.003 0.77026s15.389-3.0787 21.545-8.4647c6.1562-5.386 13.08-10.003 13.08-12.311 0-2.3086 2.3084-8.4648 2.3084-8.4648s-10.772 12.311-16.158 13.851c-5.3872 1.5394-15.39 6.9253-21.545 6.9253-6.1562 0-4.6169 0-16.159-1.5394-11.542-1.5383-10.773-2.3086-16.159-2.3086s-5.386-1.538-9.2338 0.77028c-3.8466 2.3086-10.772 7.6945-6.9241 7.6945h14.62c4.6169 0 12.311 3.8478 16.928 6.9253 4.6169 3.0775 10.772 3.8466 13.85 5.386 3.0787 1.5394 12.312 3.0775 14.62 2.3084 2.3084-0.76909 3.8478 0 6.9253-3.0775 3.0787-3.0787 3.0787-3.8478 7.6956-6.1562s13.08-6.155 14.62-9.2338c1.5382-3.0775 2.3084-3.8467 4.6169-6.1551 2.3084-2.3086 4.6157-3.8479 7.6944-6.1562 3.0775-2.3084 8.4635-3.0776 10.772-2.3084 2.3084 0.77014 11.542 6.1561 11.542 6.1561s-2.3084-2.3084-5.386-4.6168c-3.0775-2.3086 1.5394-7.6945-6.9253-5.386-8.4647 2.3083-20.776 9.2324-23.084 11.541-2.3084 2.3083-9.2326 8.4647-12.311 10.004-3.0775 1.5382-9.2338 4.6169-13.08 5.386-3.8478 0.76909-6.1562 1.5382-10.003 1.5382-3.8478 0-1.5393-1.5382-1.5393-3.0775 0-1.5382 15.389-3.8466 21.545-7.6944 6.1562-3.8479 16.159-7.6945 18.468-13.08 2.3084-5.387 16.158-16.928 16.158-16.928s4.6169 0 6.9253-1.5394c2.3085-1.5395 5.3872-1.5395 5.3872-1.5395s-18.468-0.76909-21.545-0.76909c-3.0787 0-16.929 1.5383-14.621 0 2.3084-1.5394 16.159-3.0774 21.545-3.0774 5.3871 0 9.2337 0.76909 13.082 0.76909 3.8466 0 12.311 5.386 6.1551 2.3083-6.1551-3.0774-16.158-7.6943-17.697-8.4646-1.5393-0.76909-2.3084 0.77028 0.7691-0.76909 3.0787-1.5394 9.2338-1.5394 9.2338-1.5394l-9.2338-5.386s8.4647 1.5394 10.004 3.0774c1.5382 1.5394 11.541 10.004 16.158 14.62 4.6169 4.6168 7.6944 13.082 7.6944 14.621 0 1.538 4.6169 7.6943 5.3872 12.311 0.76904 4.6169 2.3084 8.4635 1.5382 11.542-0.7691 3.0775-13.08 10.003-13.08 10.003z" fill="url(#dw)"/>
   <path d="m526.32 159.57c-6.1562-1.5394-0.7691-1.5394-13.851-1.5394-13.08 0-25.393 3.0787-33.856 4.6168-8.4647 1.5395-26.931 7.6956-39.242 13.082-12.311 5.386-36.165 18.466-46.169 23.854-10.003 5.386-52.323 29.24-60.787 33.087-8.4635 3.8466-36.934 22.314-42.321 24.623-5.386 2.3084-20.006 6.9253-20.775 6.9253-0.77026 0 4.6168-2.3084 6.155-3.0787 1.5394-0.7691 23.854-12.311 25.393-13.85 1.5393-1.5393 29.239-15.39 33.087-18.468 3.8466-3.0775 41.551-21.545 44.628-24.623 3.0787-3.0787 41.552-21.545 46.169-24.624 4.6157-3.0774 33.856-13.849 36.934-14.62 3.0775-0.76909 64.635-5.386 64.635-5.386z" fill="url(#dv)"/>
   <path d="m526.4 173.05c-3.8478 0-12.39 5.7592-20.855 6.5283-8.4635 0.77026-16.159 0-27.7 5.3873-11.542 5.386-37.704 16.928-42.321 19.237-4.6169 2.3083-28.47 14.62-37.704 19.236-9.2337 4.617-33.086 21.545-36.165 22.314-3.0775 0.76909-22.314 13.851-26.931 15.389-4.6169 1.5393-12.311 3.8478-19.237 5.3872-6.9253 1.5382-10.003 3.8466-16.159 4.6169-6.1551 0.76907-5.386 3.0775-10.772 3.0775s-6.9253 1.5382-10.003 0c-3.0787-1.5394-6.1562-0.76907-8.4647-3.8478-2.3084-3.0775-0.31683-7.162-3.3944-8.7014-3.0775-1.5394-12.765-0.53235-16.611-0.53235-3.8478 0 12.068-17.686 30.939-5.658 3.571 2.2755-20.344 39.417 52.857-0.79617 175.18-96.235 194.28-79.041 192.52-81.638z" fill="url(#du)"/>
   <path d="m547.86 189.58c3.0775-3.0788 10.772-3.0788 12.311-3.0788 1.5394 0 8.4635 3.0788 9.2338 4.6169 0.76904 1.5394 4.6169 4.617 5.3859 5.3873 0.7691 0.76909 6.1562 6.924 4.6169 7.6944-1.5393 0.76897-3.0775 2.3083-3.8478 2.3083-0.7691 0-3.0775-3.8477-4.6169-4.6168-1.5382-0.77028-3.8466 0.76907-6.9241-2.3086-3.0787-3.0774-0.77026-3.8477-4.6169-3.8477-3.8478 0-6.9253-0.76909-6.9253-0.76909s-3.8478-4.6169-3.8478-5.386" fill="url(#dt)"/>
   <path d="m562.48 207.28c0.7691 0 12.311 2.3084 13.851 3.8477 1.5382 1.5383 6.1551 4.617 6.1551 5.386 0 0.76909-0.7691 0.76909 0 1.5382 0.77026 0.77028 4.6168 6.9254 4.6168 6.9254s-1.5382 2.3084-3.0775 2.3084-4.6169-3.0775-6.1562-5.386c-1.5382-2.3084 1.5393-1.5394-3.0776-3.8479-4.6169-2.3071-6.9253-2.3071-10.003-3.8465-3.0775-1.5394-3.8478-1.5394-3.8478-1.5394s-5.386-0.76921-5.386-0.76921l6.1562-3.8477" fill="url(#ds)"/>
   <path d="m580.95 254.99c-2.3084-4.6169-4.6169-7.6944-8.4647-11.542-3.8478-3.8478-1.5394-3.0775-6.155-6.1562-4.6169-3.0775-3.8478-3.0775-4.6169-3.0775-0.77026 0 6.155-1.5382 7.6944-0.76907 1.5382 0.76907 3.0775 0-0.77026-3.0775-3.8466-3.0787-9.2326-6.9254-9.2326-7.6957 0-0.76897 11.541 0.77028 13.08 1.5395 1.5394 0.76909 3.8478 0.76909 5.386 3.0775 1.5393 2.3084 3.8478 3.0787 5.3872 3.8478 1.5382 0.76907 3.0775 1.5393 3.0775 0v-1.5394s0.76904 10.773 0 12.311c-0.7691 1.5394-6.1562 14.621-6.9254 14.621" fill="url(#dr)"/>
   <path d="m477.07 194.2c-2.3084 0.77026-5.386 4.6168-10.772 6.1561-5.386 1.5395-12.311 3.8479-14.62 3.8479-2.3084 0-3.8478 0-2.3084 0.76897 1.5382 0.76909 10.772 1.5394 10.772 1.5394s0.77026 3.0776-3.8466 3.8466c-4.6169 0.77026-9.2337 2.3086-9.2337 2.3086s14.62 5.3858 16.159 5.3858c1.5382 0 7.6944-0.76907 11.541-3.8465 3.8478-3.0776 4.6169-3.8479 6.1562-6.9253 1.5394-3.0775 3.8478-2.3086 6.1551-3.8479 2.3084-1.538 3.8478-3.0775 3.8478-3.0775s-6.1551 3.0775-13.08 6.9254c-6.9253 3.8477-7.6956 4.6168-11.542 4.6168-3.8478 0-4.6168 2.3086-2.3084-1.5394 2.3084-3.8466 7.6944-6.1549 8.4635-7.6943 0.77026-1.5394 4.6169-6.9253 4.6169-6.9253" fill="url(#dq)"/>
   <path d="m410.9 235.75c-5.386 0-10.773 4.6169-15.39 6.1551-4.6169 1.5394-14.62 5.3871-18.466 6.9253-3.8478 1.5393-9.2338 3.0787-12.311 2.3084-3.0787-0.76909-4.6168 2.3084-1.5393 3.0775 3.0775 0.77026 11.542 1.5394 15.389-0.76909 3.8478-2.3084 14.62-6.9253 16.928-7.6944 2.3084-0.76909 12.311-1.5394 14.62-3.8478 2.3084-2.3084 10.773-3.0775 12.312-3.0775 1.5382 0 13.08 4.6169 14.62 5.386 1.5382 0.77026 9.2338 5.3871 11.541 6.1562 2.3084 0.76909 12.312 3.8466 14.621 3.8466 2.3072 0 17.697-0.76909 17.697-1.5382 0-0.76909 6.9253-8.4647 6.9253-8.4647s-19.237 9.2338-22.315 8.4647c-3.0775-0.76909-35.394-9.2338-39.242-10.773-3.8466-1.5382-20.775-4.6169-20.775-5.386" fill="url(#dp)"/>
  </g>
  <path d="m546.83 337.14s9.5624 10.845 17.935 14.194c8.3728 3.3496 36.425 92.106 28.625 94.731-6.8028 2.2884-11 8.6331-18.334 1.7478-1.0753-1.0093-12.085 12.28-15.563-6.3388-2.1011-11.247-22.22-10.218-31.412-4.0256-10.2 18.516 6.4659 26.369 6.4659 26.369s-34.603 7.2869-34.603 2.2637c0-5.0244 19.512-10.452 20.684-22.518 1.1707-12.066 21.18-19.346 21.18-19.346s5.0244-5.0244 1.6748-11.722c-3.3496-6.698-15.071-11.721-15.071-11.721s-12.521 7.4801-12.521 7.4801-15.853-3.412-12.504-11.785c3.3496-8.3728 26.699-17.465 28.374-22.488 1.6748-5.0244 11.722-18.42 11.722-18.42s-1.6748-10.048-10.048-10.048c-8.3728 0 0-1.6748-15.071 0s-25.118 6.698-25.118 5.0232" fill="url(#ct)"/>
  <g stroke="#666" stroke-width="1.178">
   <path d="m426.29 277.3c-3.0775-1.5393-2.3084-2.3084-7.6944-0.76907-5.386 1.5382-16.159 9.2338-19.237 11.542-3.0775 2.3084-8.4647 7.6944-11.542 10.003-3.0775 2.3084-4.6168 3.8466-4.6168 3.8466s16.159-7.6944 20.007-10.772c3.8466-3.0775 10.772-6.1562 13.85-7.6944 3.0787-1.5394 9.2338-4.6169 9.2338-5.3872" fill="url(#do)"/>
   <path d="m183.91 319.62c-3.0775 0.7691-2.3084 4.6169-3.0775 6.9253s-1.5394 3.0775-1.5394 3.8466c0 0.77026 5.3873 7.6944 6.1564 7.6944 0.76909 0 6.1549 2.3084 7.6943 5.3872 1.5393 3.0775 5.386 6.9241 5.386 9.2338 0 2.3084 1.5394 6.9241 1.5394 6.9241s3.8478 0.77026 3.8478 0.77026 3.8467 1.5382 2.3073-1.5394c-1.5382-3.0775 0.77025 1.5394-3.8465-5.386-4.617-6.9253-5.3861-10.003-6.9254-11.542-1.5393-1.5394-4.6169-3.8478-2.3084-3.8478 2.3084 0 11.542 10.773 11.542 10.773s7.6945 1.5394 9.2339 0c1.5382-1.5393 7.6944-4.6169 9.2338-4.6169 1.5382 0 10.003 4.6169 11.541 7.6944 1.5394 3.0787 3.8478 7.6944 6.1562 10.003 2.3084 2.3084 5.386 7.6956 8.4635 8.4647 3.0787 0.7691 5.3872 3.0775 9.2338 1.5394 3.8478-1.5394 13.082-3.0787 13.082-5.3872 0-2.3084 7.6944-7.6944 0-7.6944s-9.2337 1.5394-13.082 0c-3.8466-1.5393-4.6169-0.76907-7.6944-2.3084-3.0775-1.5382-8.4635-2.3084-10.003-5.386-1.5394-3.0775 0-0.76907-3.8478-5.386-3.8466-4.6169-13.08-10.004-13.85-10.004-0.77026 0-8.4647 3.8478-10.773 4.6169-2.3084 0.77026-3.0775 1.5394-6.1563 0.77026-3.0774-0.77026-10.003-6.9253-11.541-10.003-1.5393-3.0787-2.3084-5.3872-4.6169-6.9253-2.3084-1.5393-6.1562-2.3084-6.9253-3.0787" fill="url(#by)"/>
   <path d="m182.37 348.86s6.9242 6.9253 6.9242 8.4635c0 1.5393 6.1562 9.2338 6.1562 10.004 0 0.76907 4.6169 5.386 5.386 5.386 0.77039 0 11.542 1.5382 12.311 1.5382 0.77026 0 3.0787-1.5382 3.0787 1.5393s6.155 10.003 0.76907 6.1562c-5.386-3.8478-8.4647-4.6169-13.851-6.1562-5.3861-1.5393-7.6945-0.76907-8.4636-3.0775-0.77025-2.3084-1.5393-4.6169-3.0787-7.6944-1.5382-3.0787-4.6168-10.773-6.924-13.082-2.3086-2.3084-2.3086-5.386-2.3086-5.386h0.76909s8.4635 34.625 9.2338 34.625c0.7691 0 9.2339 6.1562 9.2339 6.1562h6.155s2.3084 0 3.8478 0.7691c1.5382 0.77026 6.1551 3.8478 7.6944 6.9253 1.5394 3.0775 3.0775 3.8478 3.0775 6.1562s5.386 10.772 5.386 11.542c0 0.7691 5.3872 8.4635 6.9253 9.2326 1.5394 0.77026 9.2338 6.1562 10.004 6.9253 0.76909 0.77026 5.386 3.0787 6.155 3.8478 0.76909 0.76907 10.003 3.0775 10.003 3.8466 0 0.77026-10.003 0.77026-13.08 0-3.0775-0.7691-4.6169 0-7.6944-0.7691-3.0787-0.76907-3.0787 0-5.3872-1.5382-2.3084-1.5393-0.76909 1.5382-3.8466-3.8478-3.0787-5.386-2.3084-3.8478-3.8478-6.9253-1.5382-3.0775 0-1.5393-2.3084-6.9253s-0.76909-3.0775-3.0775-6.155c-2.3084-3.0787-3.8478-5.3872-6.1562-7.6956s-0.76909-3.0775-4.6169-3.8466c-3.8467-0.77026-6.9242-0.77026-8.4635-1.5394-1.5395-0.76907-0.76907 2.3084-3.0776-1.5393-2.3084-3.8466 2.3086 6.9253-3.0787-4.6157-5.386-11.542-6.9253-22.315-6.9253-22.315" fill="url(#bx)"/>
   <path d="m278.55 482.75c-1.5393-2.3084 0-3.8478-3.0787-6.9253-3.0775-3.0775-1.5382-3.8478-5.386-6.1562-3.8466-2.3084-8.4635-5.386-8.4635-6.1551 0-0.77026 6.9242 7.6944 8.4635 9.2338 1.5393 1.5382 4.6169 7.6944 3.8478 8.4635-0.77023 0.76907 0 3.0775 0.7691 3.0775 0.76907 0 5.386-2.3084 4.6169-2.3084" fill="url(#bw)"/>
   <path d="m239.31 448.89c-4.6169-6.1562-6.155-9.2338-10.003-13.082-3.8466-3.8466-8.4635-13.08-10.003-14.62-1.5393-1.5393-8.4647-10.003-11.542-10.772-3.0776-0.77029-5.386-2.3084-5.386-2.3084s11.542 17.697 12.311 18.466c0.76909 0.77026 10.773 10.003 10.773 11.542 0 1.5393 6.9241 9.2338 7.6944 10.773 0.76907 1.5382 9.2338 4.6169 10.772 6.1551 1.5394 1.5393-3.0775-1.5382-4.6169-4.6169-1.5382-3.0775-10.003-13.08-10.003-13.08" fill="url(#bv)"/>
   <path d="m208.53 432.73c-0.76909-1.5394-0.76909-3.0775-6.1551-3.0775-5.3861 0-6.9254 1.5382-7.6945 0.7691-0.77025-0.7691-4.6169-3.0775-6.1562-5.386-1.5392-2.3084-9.2338-11.542-7.6944-11.542 1.5393 0 13.08 3.0775 14.62 3.8466 1.5394 0.77026 9.2338 3.0787 10.772 5.3872 1.5395 2.3084 6.9254 8.4635 6.9254 9.2337 0 0.7691 6.1562 5.386 6.1562 5.386s-8.4647-4.6169-9.2338-4.6169" fill="url(#bu)"/>
   <path d="m194.68 403.49c-2.3084-2.3084-0.77025-2.3084-9.2336-6.1562-8.4648-3.8466-13.851-6.9253-17.698-9.2337-3.8465-2.3084-9.2326-3.8466-12.311-6.9253-3.0775-3.0775-10.003-12.311-11.541-14.62-1.5394-2.3084-3.8478-6.1551-6.9253-11.541-3.0787-5.3872-10.773-20.776-10.773-26.932 0-6.1551 3.0775-13.08 6.9253-16.158 3.8478-3.0787 7.6944-6.9253 14.62-5.3872 6.9253 1.5394 26.162 16.159 26.162 16.159s-9.2336 0-13.851-2.3084c-4.6169-2.3084-3.8466-3.0775-8.4635-3.0775s-12.311 2.3084-14.62 4.6169c-2.3084 2.3084 0 13.85 0 16.928 0 3.0775 3.8466 12.311 4.6169 16.159 0.76909 3.8466 10.772 16.158 11.541 17.697 0.77026 1.5382 13.851 10.772 14.62 10.772 0.77026 0 5.3872 1.5393 5.3872 1.5393s5.386-0.76907 1.5382-3.8478c-3.8466-3.0775-5.386-3.0775-7.6944-4.6169-2.3083-1.5382-3.0774-0.7691-8.4635-4.6157-5.3872-3.8478-12.311-13.082-8.4647-12.312 3.8478 0.77026 19.237 10.773 20.006 11.542 0.77026 0.77026 6.9253 6.9253 10.004 7.6944 3.0775 0.77026 5.3861 3.0787 6.1552 1.5393 0.76909-1.5393-3.0776-11.542-3.8467-12.311-0.77026-0.76907 6.9242 10.003 9.2326 20.006s6.1562 16.159 5.3871 16.159" fill="url(#bt)"/>
   <path d="m173.13 328.09h-9.2336c-5.3861 0-6.9254 0.77026-10.773 3.0787-3.8466 2.3084-3.8466 7.6944-6.9241 10.772-3.0787 3.0775-3.8478 10.772-3.8478 11.542 0 0.7691 5.386 2.3084 7.6944-4.6169s8.4647-8.4647 8.4647-8.4647 6.9253 3.0787 11.541 6.9253c4.6169 3.8478 10.773 10.003 10.773 12.311 0 2.3084 5.3861 9.2338 5.3861 9.2338s4.6168-2.3084-0.76909-7.6944c-5.3861-5.386-6.9254-9.2337-8.4648-11.542-1.5382-2.3084-2.3084-6.9253-3.0775-8.4635-0.76909-1.5393-1.5394-11.542-1.5394-11.542" fill="url(#bs)"/>
   <path d="m126.2 301.92c-4.6166 0.77026-6.1555 3.8478-8.464 7.6956-2.3083 3.8466-3.0779 10.003-2.3083 12.311 0.76944 2.3084 5.3862 15.389 6.1556 16.158 0.76944 0.77026 7.6942 13.082 7.6942 13.082s-3.0775-11.542-4.6157-14.62c-1.5394-3.0775-1.5394-7.6944-1.5394-13.082 0-5.386 1.5394-13.08 1.5394-14.62 0-1.5382 5.386-8.4635 5.386-8.4635s-7.695 2.3084-10.003 3.8466" fill="url(#br)"/>
   <path d="m173.9 315.77c0-2.3084 3.0775-5.386 1.5394-8.4635-1.5394-3.0787-0.77026-6.1562-3.0787-8.4647-2.3084-2.3084-3.0775-6.1551-4.6169-6.1551-1.5382 0-5.386 0-7.6944-2.3084s-3.0775-11.542-3.8466-11.542c-0.77026 0-3.0787 3.8466-4.6169 3.8466-1.5394 0-7.6956-0.7691-10.773-3.0775-3.0775-2.3084-6.1551-4.6169-10.003-6.9253-3.8478-2.3084-13.85-4.6169-14.62-4.6169-0.76944 0-3.8473 3.8478-3.8473 6.9253s6.9252 10.003 6.9252 13.082c0 3.0775 3.8474 10.003 3.8474 7.6944 0-2.3084 6.9253-6.1562 8.4635-8.4647 1.5394-2.3084 7.6956-4.6168 12.312-1.5382 4.6157 3.0775 14.62 10.772 14.62 10.772s9.2326 9.2338 10.772 10.773c1.5394 1.5382 8.4647 10.003 7.6944 10.003-0.76909 0-3.0775-8.4647-3.0775-9.2337" fill="url(#ch)"/>
   <path d="m123.89 249.6c0 1.5382 7.6944 7.6944 8.4647 9.2326 0.76907 1.5393 5.386 7.6956 6.155 9.2337 0.77026 1.5394 3.0787 6.1562 3.0787 6.1562s-25.393-36.781-13.851-31.548c11.541 5.2317 21.432 18.267 20.006 17.697-1.4263-0.57004 6.9253 7.6944 6.9253 8.4647 0 0.76907 5.386 12.311 4.6169 6.155-0.76909-6.155-12.311-16.928-15.389-20.776-3.0787-3.8466-10.004-12.311-10.004-12.311s-6.155-0.76909-7.6944 0.77026c-1.5382 1.5382-2.3084 10.003-2.3084 9.2338" fill="url(#dn)"/>
   <path d="m122.35 241.91c0-3.8466 1.5388-6.1551 2.309-7.6944 0.76909-1.5382 9.2326-4.6169 10.772-5.386 1.5394-0.76909 9.2338-3.0775 10.003-3.0775 0.77028 0 14.62 3.0775 14.62 3.0775s5.3871 4.6169 6.9253 4.6169c1.5394 0 9.2338 1.5393 10.773 3.0775 1.5382 1.5394 8.4636 6.9253 9.2327 9.2338 0.77014 2.3084 3.8477 8.4635 1.5392 8.4635-2.3083 0-11.542-7.6944-15.389-10.003-3.8478-2.3084-6.1562-3.0775-11.542-5.386-5.386-2.3084-8.4647-3.0775-12.311-3.8466-3.8478-0.77026 0-2.3084-6.1562-0.77026-6.1551 1.5394-5.386 0.77026-9.2338 4.6169-3.8466 3.8478-3.0775 3.8478-4.6169 3.8478-1.5382 0-5.386-4.6169-5.386-4.6169" fill="url(#dm)"/>
   <path d="m188.52 264.99c-3.8465-1.5393-8.4635-3.0775-12.311-6.1562-3.8478-3.0775-8.4647-8.4635-10.003-9.2326-1.5392-0.77025-12.311-6.9253-12.311-6.9253s2.3084 2.3084 3.8466 4.6169c1.5394 2.3084 20.007 16.158 20.007 16.158s7.6945 5.3872 7.6945 6.9253c0 1.5394 1.5382 3.8478-0.76909 5.386-2.3086 1.5393-4.617 3.0787-3.8479 4.6169 0.76907 1.5393 3.8479 5.3872 1.5393 5.3872-2.3084 0-13.851-7.6956-13.851-8.4647 0-0.76907 3.8466 2.3084 4.6169 7.6944 0.76909 5.3872 3.0775 11.542 4.6169 10.773 1.5382-0.77026 3.0775-1.5394 4.6169-3.8478 1.5382-2.3084 1.5382-2.3084 2.3086-4.6169 0.76909-2.3084 6.1549-4.6168 6.1549-4.6168s-0.76909 10.773-3.8477 12.311c-3.0776 1.5393-0.76909 6.1562 2.3083 3.8478 3.0787-2.3084 6.1562-10.772 6.9253-10.772 0.77026 0 7.6956 3.0775 8.4647 3.8466 0.76909 0.77026 3.8467 1.5394 4.617 1.5394 0.76909 0 6.1551-0.7691 1.5382-3.0775-4.617-2.3084-4.617 0-8.4635-2.3084-3.8479-2.3084-2.3086-2.3084-3.8479-2.3084-1.5382 0-0.76909 3.0775-2.3084 0.76907-1.5382-2.3084-3.0775-4.6169-4.6169-6.1562-1.5382-1.5382 0.77025 0-1.5382-0.7691-2.3084-0.76907-1.5394-0.76907-1.5394-3.8478 0-3.0775 3.0775-7.6944 3.8478-8.4635 0.7691-0.76907 6.9253-2.3084 7.6944-2.3084 0.76909 0 2.3086-1.5393 2.3086-3.8478 0-2.3084 0.7691-2.3084 0.7691-7.6944s0.77014-5.386 0.77014-10.772c0-5.3872 0.76909-12.311 0.76909-14.62 0-2.3084 2.3084-7.6956 3.8467-12.311 1.5394-4.617 4.6169-10.004 5.3872-11.542 0.76909-1.5394 6.155-11.542 6.155-13.082 0-1.538 5.3872-7.6943 5.3872-7.6943l1.5382-1.5394s2.3084 0.77016-3.8466 0.77016c-6.1562 0-10.773 1.5383-11.542 1.5383-0.77026 0-3.8478-0.76909-3.8478 0 0 0.77028 6.1562 10.003 5.386 10.003-0.76909 0 3.0787 6.9253 1.5394 6.9253-1.5394 0-0.76909 1.5394-3.0775 3.8477-2.3084 2.3086-6.1563 9.2339-6.9254 8.4647-0.76909-0.77014-5.386-5.387-8.4647-7.6956-3.0775-2.3084 0.77026-1.5381-5.386-4.6168-6.1549-3.0776-8.4635-4.6157-10.772-5.386-2.3084-0.76909-14.62-0.76909-13.082-0.76909 1.5394 0 15.39 6.155 16.159 6.9253 0.76909 0.76907 10.003 9.2336 10.003 9.2336l8.4648 10.003v3.0775c0 0.76909 2.3083 1.5394 0 3.8478-2.3086 2.3084-1.5395 6.155-3.0788 6.155-1.5382 0-0.76909 3.8478-4.6169-1.5382-3.8466-5.3871-3.0775-3.8478-8.4634-10.773-5.3861-6.9253-3.8479-5.3861-6.9254-8.4636-3.0775-3.0787-3.8478-5.387-7.6944-7.6956-3.8478-2.3084-3.0787-1.538-5.386-3.0774-2.3083-1.5394-10.773-1.5394-10.773-2.3086 0-0.76909 10.003 8.4648 12.311 10.003 2.3084 1.5394 10.003 9.2339 10.773 10.003 0.76909 0.77026 6.9254 7.6956 6.9254 7.6956s6.1549 7.6944 6.1549 7.6944 3.8478 8.4635 4.6169 9.2338c0.76909 0.76909 0.76909 1.5382 0.76909 3.8466s0.77026 6.1562 0.77026 6.9253c0 0.77028 10.772 0.77028 0 5.386-10.773 4.6169-13.082 2.3084-13.851 2.3084-0.76909 0-1.5394-0.7691-3.0775-1.5382" fill="url(#dl)"/>
   <path d="m236.23 186.5c-0.76907 1.5394-5.386 10.773-6.1562 13.082-0.76909 2.3086-1.5382 7.6945-1.5382 10.003 0 2.3083 4.6169 10.772 4.6169 12.311 0 1.5392 0.76907 16.159-3.0787 20.006-3.8466 3.8478-7.6944 14.621-8.4635 14.621-0.76909 0 1.5394 5.386 4.6169 0 3.0775-5.3872 8.4635-21.545 9.2338-23.084 0.76907-1.5394 3.0775-1.5394 2.3084-8.4647-0.77026-6.9254-0.77026-9.2326-2.3084-13.08-1.5394-3.8477-2.3084-8.4647-2.3084-10.773 0-2.3086 3.8466-11.541 2.3084-12.311" fill="url(#dk)"/>
   <path d="m255.47 248.83c0.7691-1.5382 2.3084-7.6944 3.0776-11.542 0.77023-3.8466 4.6168-3.8466 3.0787-10.003-1.5393-6.1551 1.5382-4.617-3.0787-10.772-4.6169-6.1562-6.1551-17.698-6.1551-21.545 0-3.8479 4.6168-13.082 5.386-15.39 0.7691-2.3073 4.6169-6.1551 6.1562-8.4634 1.5382-2.3086 4.6157-5.386 10.772-8.4648 6.1562-3.0774 21.545-6.1551 23.084-7.6944 1.5382-1.5394 16.928-3.8466 20.006-6.1549 3.0775-2.3084 16.928-3.8479 20.776-6.1563 3.8466-2.3083 20.775-3.8477 23.854-6.155 3.0775-2.3084 9.2326-3.0787 12.311-6.1563 3.0775-3.0775 13.85-3.0775 16.158-4.6169 2.3084-1.5393 10.773-2.3083 10.773-2.3083h7.6944s-8.4635 6.9252-13.851 7.6943c-5.386 0.77026-16.928 6.9253-20.775 7.6945-3.8478 0.77014-15.39 8.4647-25.393 10.004-10.003 1.538-19.237 4.6156-26.162 5.386-6.9253 0.76898-12.311 4.6169-16.928 4.6169-4.6169 0-6.1551 1.5381-12.311 3.0774-6.1562 1.5394-13.851 5.386-17.697 6.9253-3.8478 1.5394-6.9253 4.6169-10.003 7.6945-3.0787 3.0774-5.3872 11.542-6.1562 12.311-0.7691 0.77026-3.8478 13.082-1.5393 16.928 2.3084 3.8479 7.6956 7.6956 7.6956 10.004 0 2.3071 3.0775 7.6943 2.3073 13.08-0.7691 5.386 0.77026 12.311-2.3073 15.389-3.0787 3.0787-1.5393 3.8478-4.6169 4.6169-3.0787 0.77025-0.77026 1.5393-3.8478 1.5393s-1.5393-0.76909-1.5393-1.5393" fill="url(#dj)"/>
   <path d="m277.78 172.65c-1.5382 0.77025-3.8466 6.9253-5.386 10.773-1.5393 3.8477-2.3084 9.2336-2.3084 10.772 0 1.5394 5.386 7.6956 5.386 9.2336 0 1.5394 2.3084 5.3873 2.3084 10.004 0 4.6157 1.5394 12.311 0.77026 14.62-0.77026 2.3084-2.3084 9.2326-1.5393 7.6944 0.76907-1.5394 8.4647-9.2338 8.4647-15.39 0-6.155-3.0787-10.003-3.8478-16.928-0.7691-6.924-1.5394 0-1.5394-15.389 0-15.39 1.5394-16.159 2.3084-18.467 0.77026-2.3086-3.0775 5.386-3.8466 4.6168" fill="url(#di)"/>
   <path d="m270.86 253.45c0-1.5382 7.6956-0.76909 10.004-6.9253 2.3084-6.1551 6.9242-10.772 8.4635-16.158 1.5393-5.3872 8.4647-12.313 6.9253-16.159-1.5394-3.8479-1.5394-4.6169-3.8478-11.542-2.3084-6.9253-2.3084-6.9253-3.0775-12.311-0.7691-5.386 0.76907-7.6945 0.76907-10.773 0-3.0774 3.8478-10.003 3.8478-10.772 0-0.76907 6.1562-6.1562 6.9253-6.9253 0.76907-0.76897 8.4635-0.76897 7.6944-0.76897s-4.6169 10.772-5.386 13.85c-0.7691 3.0787 5.386 14.621 5.386 17.698 0 3.0776 1.5393 12.311 0 16.159-1.5394 3.8466-1.5394 12.311-4.6169 16.928-3.0775 4.6169-1.5382 8.4635-6.1551 10.772-4.6169 2.3084-6.9253 10.773-11.542 12.311-4.6169 1.5393-22.314 10.773-22.314 10.773" fill="url(#dh)"/>
   <path d="m304.71 237.29c1.5382-4.6157 8.4635-11.541 9.2326-15.389 0.77026-3.8479 3.8478-8.4636 3.0787-12.311-0.77026-3.8479 0.7691-6.9253-0.77026-10.003-1.5382-3.0774 0-3.0774-1.5382-7.6943-1.5393-4.617-1.5393-6.1564-1.5393-11.542 0-5.387 0-4.6169 3.0775-10.773 3.0787-6.1552 6.9253-7.6945 7.6956-8.4635 0.76907-0.77037 6.1551 0 6.1551-1.5394s1.5393-0.76909 0.76907-0.76909c-0.76907 0-1.5382 11.542-4.6157 13.849-3.0787 2.3086-3.8478 14.621-3.8478 14.621s3.8478 8.4636 3.8478 12.311c0 3.8466 3.0775 13.08 0.76907 15.389-2.3084 2.3083-4.6169 11.542-8.4647 14.62-3.8466 3.0787-5.386 6.9253-6.9253 6.9253-1.5382 0-8.4635 2.3084-8.4635 2.3084" fill="url(#dg)"/>
   <path d="m369.35 167.27c-2.3084 0-11.541 5.386-14.62 6.9253-3.0775 1.5394-10.003 11.542-11.541 13.082-1.5394 1.5383-4.6169 12.311-5.3872 14.62-0.76907 2.3084-0.76907 6.9253-2.3084 10.772-1.5382 3.8477-0.76907 8.4647-3.8466 10.773-3.0787 2.3086-8.4647 10.003-9.2338 10.003-0.76907 0 14.62-5.386 16.928-9.2338 2.3084-3.8478 6.1551-3.8478 7.6944-9.2338s6.9253-10.003 6.1562-13.851c-0.77026-3.8466 0.7691-14.62 2.3084-17.697 1.5382-3.0776 3.8466-6.1552 5.386-9.2339 1.5394-3.0774 5.386-6.155 5.386-6.155" fill="url(#df)"/>
   <path d="m358.58 212.67c0-4.6169 6.9253-17.697 6.1562-21.545-0.77023-3.8466 0-6.9252 1.5382-10.772 1.5393-3.8477 9.2337-5.387 10.773-7.6956 1.5382-2.3073 5.386-2.3073 5.386-2.3073s1.5393 8.4635-3.0775 10.003c-4.6168 1.5383-8.4647 6.9253-10.004 10.003-1.5382 3.0774-0.76907 10.003-2.3084 13.08-1.5382 3.0787-9.2326 10.004-9.2326 10.004" fill="url(#de)"/>
   <path d="m463.99 143.41c-4.6169 0-9.2338 4.6169-13.082 6.1562-3.8466 1.5394-6.9241 5.386-11.541 4.617-4.6169-0.77037-11.542 0-11.542 0s12.311 0.76898 14.62 0c2.3084-0.77037 7.6944 0 11.542-1.5393 3.8466-1.5383 11.541-0.7691 12.311-1.5383 0.7691-0.77026 5.386-3.0787 3.0775-0.77026-2.3084 2.3086-0.7691 6.1562-5.386 6.9254-4.6169 0.76909-5.386 4.6168-8.4647 3.8478-3.0775-0.77037-5.386 0-5.386 0s10.773 0 13.851-0.77037c3.0775-0.76898 6.155-0.76898 10.003-0.76898 3.8478 0 8.4647 2.3083 8.4647 2.3083s2.3084 3.8479 0.76907-0.76897c-1.5393-4.617-0.76907-3.8478-3.8478-6.9253-3.0775-3.0776-2.3084-2.3084-4.6169-4.617-2.3084-2.3083-0.76907-2.3083-6.1551-4.6169-5.386-2.3084-7.6944-3.0774-7.6944-3.0774" fill="url(#dd)"/>
   <path d="m473.99 138.03c2.3084-0.76909 11.542 0 15.389 0.76921 3.8478 0.77014 14.621 4.6168 16.928 5.387 2.3084 0.76909 9.2337 3.0776 10.004 3.8466 0.7691 0.77039 5.386 5.386 5.386 4.617" fill="url(#dc)"/>
   <path d="m483.23 144.18s9.2338 3.0776 10.772 3.0776c1.5393 0 10.773 3.0774 10.773 3.0774s6.9253 4.6169 7.6944 4.6169 6.1562 2.3086 6.1562 2.3086" fill="url(#db)"/>
   <path d="m454.76 131.87c0-1.5393 6.1562 0 10.772-0.77026 4.6169-0.76907 10.773 0 12.312-0.76907 1.5382-0.76898 3.8466-0.76898 7.6944 0 3.8466 0.76907 6.9253 3.0776 7.6944 3.0776s6.9253 3.8477 6.9253 3.8477" fill="url(#da)"/>
   <path d="m488.61 160.34c-3.8466-3.0774 0-1.5381-5.386-6.155-5.386-4.617-0.76907 0-6.1562-5.386-5.386-5.3872-4.6169-4.617-6.9253-6.1563-2.3084-1.5392-6.155-3.0775-6.155-3.0775s3.0775 6.1552 4.6168 6.9254c1.5382 0.76909 10.003 3.8465 10.003 3.8465s3.8478 3.8479 5.386 5.386c1.5393 1.5395 5.386 3.8479 5.386 4.6169" fill="url(#cz)"/>
   <path d="m332.41 184.97c0.76907-4.617 7.6944-10.004 8.4647-13.082 0.76907-3.0776 10.772-7.6944 11.541-10.003 0.77026-2.3083 12.312-3.8466 14.62-4.6168 2.3084-0.76921 10.773 0.76909 16.159-1.5395 5.386-2.3084 11.542-2.3084 13.851-3.8465 2.3084-1.5395 14.62 0 18.468-2.3086 3.8466-2.3083 12.311-3.0774 13.85-4.6169 1.5394-1.5393 11.542-3.8477 12.312-4.6168 0.7691-0.7692 7.6944-3.0776 6.9241-3.0776-0.76907 0 0 0.76909-3.0775 0-3.0775-0.76898-3.8466-3.0774-4.6169-3.0774-0.76907 0-7.6944 6.9241-13.85 6.9241-6.1562 0-12.312 3.0786-22.315 3.8477-10.003 0.76921-10.772 0.76921-16.159 1.5395-5.386 0.76909-5.386 3.0774-12.311 3.8465-6.9253 0.77026-8.4635 1.5395-15.389 4.6169-6.9253 3.0776-3.8478-2.3083-13.082 6.1563-9.2326 8.4635-15.389 20.006-15.389 20.006l-0.7691 3.0776" fill="url(#cy)"/>
   <path d="m447.06 165.73c-1.5394 0 0 0-3.8478-0.77026-3.8466-0.76909-4.6169-1.5383-9.2338-2.3086-4.6169-0.76909-5.386-1.5381-12.311-0.76909-6.9253 0.76909-13.851 3.0776-16.928 5.386-3.0775 2.3086-6.1551 10.003-8.4635 12.311-2.3084 2.3086-3.0787 6.1562-5.3872 9.2339-2.3084 3.0787-7.6944 11.542-7.6944 11.542s2.3084 0.7692 3.8478-1.5394c1.5382-2.3071 8.4635-12.311 10.772-16.158 2.3084-3.8478 8.4647-8.4647 10.773-10.004 2.3084-1.5381 13.851-3.0774 14.62-3.8466 0.76907-0.76907 4.6169 1.5394 9.2337 0.76921 4.6169-0.76921 17.697-5.386 17.697-5.386l-0.7691 1.5394" fill="url(#ck)"/>
   <path d="m420.9 127.26c2.3084 0 13.08 4.6169 17.697 4.6169" fill="url(#cj)"/>
   <path d="m324.72 123.41c-3.8478 0.76897-6.9253 7.6943-10.773 8.4646-3.8466 0.76909-6.9253 5.386-10.003 6.1551-3.0775 0.76921-0.76907 3.8479-6.9253 4.6169-6.1551 0.76909-6.1551 3.0776-15.389 4.617-9.2338 1.5394-22.314 11.542-23.084 11.542-0.7691 0-6.1551 7.6944-1.5382 3.8465 4.6169-3.8465 18.466-8.4634 25.392-11.541 6.9253-3.0787 20.776-5.387 24.623-8.4647 3.8478-3.0775 10.773-2.3083 14.621-6.155 3.8466-3.8479 11.541-4.617 15.389-6.9253 3.8478-2.3086 18.468-1.5394 20.776-3.0787 2.3084-1.5383 8.4635-1.5383 10.003-3.0775 1.5382-1.5393 3.0775-4.617 2.3084-4.617-0.77026 0-8.4647 8.4647-12.311 8.4647-3.8478 0 13.08-8.4647 6.9253-6.1561-6.1562 2.3084-13.082 6.9253-15.39 6.9253h-9.2338c-3.0775 0-10.772 4.6168-13.08 4.6168-2.3084 0-3.8478 1.5395-6.1562 2.3086-2.3084 0.76897-1.5382 2.3083-10.772 4.6168-9.2337 2.3086 1.5382-2.3084 3.0775-5.3858 1.5393-3.0788 11.542-8.4648 12.311-8.4648 0.77026 0 4.6169 1.5394 5.386-0.76909 0.77026-2.3083 2.3084-4.6169 1.5394-5.3871" fill="url(#ci)"/>
   <path d="m221.61 228.06c-1.5394 0.76909-2.3084 8.4635-3.8478 11.541-1.5382 3.0787-0.7691 11.542-3.0775 13.851-2.3084 2.3084-3.0775 7.6944-4.6169 7.6944s-4.617 0.77026-3.0776 0.77026c1.5383 0 10.772 3.8466 10.772 3.8466s5.3871 5.3872 5.3871 5.3872l4.6157 2.3084s1.5394-3.0787 2.3084-6.1562c0.77026-3.0775 6.1562-3.8478 7.6956-6.1562 1.5382-2.3084 6.1551-6.1551 5.386-6.1551-0.76909 0-0.76909 3.8466-6.1562 5.386-5.386 1.5394-3.0775 3.0775-7.6944 3.0775s-3.8466-0.7691-6.1551-0.7691c-2.3084 0-3.8478 0.7691-3.8478 0 0-0.76907 0-7.6944 0.76909-11.542 0.77026-3.8466 4.6169-20.775 3.0787-22.314" fill="url(#cx)"/>
   <path d="m257.78 483.52c0-0.76907 0.7691-2.3084-3.0775-5.386-3.8478-3.0787-3.0787-3.0787-5.3872-4.6169-2.3084-1.5393-3.0775-3.0787-4.6157-3.8478-1.5394-0.7691-3.8478-4.6169-3.8478-4.6169s5.386 6.9253 6.155 7.6956c0.77028 0.76907 3.8478 10.772 3.8478 13.08 0 2.3084 0.76909 12.311 0.76909 14.62 0 2.3084-0.76909 19.237-1.5382 20.776-0.77028 1.5382-3.8478 17.697-3.8478 19.237 0 1.5382-2.3084 15.389-2.3084 16.928 0 1.5382 0 12.311-1.5382 13.851-1.5394 1.5382-6.1562 10.003-8.4647 13.08-2.3084 3.0776-3.8478 7.6945-6.9253 9.2338-3.0775 1.5394-1.5394 2.3085-6.1551 6.9254-4.6169 4.6169-11.542 12.311-13.082 14.62-1.5395 2.3085 1.5394 7.6944-6.155 12.311-7.6957 4.6169-7.6957 6.1551-6.9254 3.8478 0.76909-2.3085 9.2338-10.773 11.541-15.39 2.3086-4.6169 9.2339-8.4635 11.542-14.62 2.3084-6.155 4.6169-4.6169 5.3871-10.772 0.76909-6.1562 3.0775-5.3872 3.0775-10.004 0-4.6169 4.6169-7.6944 1.5382-9.2325-3.0775-1.5394-3.0775 0.76904-7.6944 2.3072-4.6169 1.5394-1.5382 1.5394-4.6169 5.3872-3.0775 3.8466-3.0775 4.6169-3.0775 4.6169s5.386 7.6944 3.0775 9.2338c-2.3084 1.5382-2.3084 6.155-5.386 7.6944-3.0776 1.5382-2.3084 0.76904-6.1552 6.155-3.8478 5.3872-4.6169 10.773-4.6169 11.542 0 0.7691-1.5394 3.0775-1.5394-0.76904 0-3.8478 8.4635-11.542 9.2338-17.698 0.76921-6.1551 2.3086-6.1551 2.3086-7.6944 0-1.5382 2.3084-5.386 3.0775-9.2338 0.76909-3.8466 3.8478-9.2338 3.8478-9.2338s-0.77026 2.3084-3.8478 3.0787c-3.0775 0.7691-3.8478 2.3085-3.8478 1.5382 0-0.7691 0.77026-2.3085 0-6.9241-0.76909-4.6169-0.76909-4.6169-0.76909-9.2338s2.3084-6.1562 3.8478-9.2338c1.5382-3.0775 4.6169-2.3084 6.1551-5.386 1.5393-3.0787 6.1562 6.9241 10.003 1.5382 3.8478-5.386 6.1562-11.542 7.6956-14.62 1.5382-3.0775 3.8466 1.5394 5.386-3.8466 1.5394-5.3872 3.8478-2.3084 3.8478-6.9253s2.3072-3.0787 0.76909-8.4647c-1.5394-5.386-0.76909-2.3085-1.5394-6.9253-0.76909-4.6169 0-19.237 0-19.237s6.9253 2.3084 6.1562 1.5393c-0.77028-0.76907-1.5394-13.851-2.3084-14.62" fill="url(#bq)"/>
   <path d="m238.54 490.44c-1.5394 0.7691-5.386 16.159-6.1562 16.928-0.76909 0.7691-1.5382 9.2338-4.6169 9.2338-3.0775 0-6.1551 3.8466-10.003 4.6169-3.8466 0.76904-7.6944 4.6168-9.2338 5.3859-1.5383 0.7691-3.8467 7.6944-6.9241 10.003-3.0788 2.3084-6.1564 13.082-6.1564 15.39 0 2.3072 4.6169 10.003 4.6169 10.003s1.5395-9.2338 3.0776-13.851c1.5392-4.6169 13.082-7.6944 16.928-10.003 3.8478-2.3084 14.62-6.1562 16.159-11.542 1.5394-5.3859 4.6169-12.311 3.8478-17.697-0.77026-5.3872-3.8478-16.928-3.8478-16.928" fill="url(#bp)"/>
   <path d="m284.71 477.36c-3.0775-4.6157 0.77026-4.6157-5.386-7.6944-6.1562-3.0775-3.0775-2.3084-8.4647-4.6169-5.386-2.3084-3.8466-2.3084-6.1551-3.0775-2.3084-0.7691-2.3084 0-4.6169-1.5394-2.3084-1.5382-1.5393-0.76907-1.5393-3.8466s2.3084-0.77023 3.0787-4.6168c0.7691-3.8478 2.3084-5.386 0.7691-5.386-1.5394 0 0 1.5382-3.8478 1.5382-3.8466 0-3.0775 1.5394-6.9253 1.5394-3.8466 0-3.0775 1.5393-4.6169-0.7691-1.5382-2.3084-0.76907-2.3084-3.0775-4.6169-2.3084-2.3084-4.6169-3.0787 0-3.8478s14.62-2.3084 15.39-2.3084c0.7691 0 5.386-0.76907 5.386-0.76907s5.386 6.155 5.386 6.9253c0 0.7691 4.6169 13.08 4.6169 13.08l16.928 11.542s7.6944 10.772 6.1562 10.772h-8.4647c-1.5393 0-4.6169-4.6169-5.386-5.386" fill="url(#bo)"/>
  </g>
 </g>
 <path d="m556.37 430.58c-2.4286 0-8.6708-0.32739-12.832 0.65485-4.1611 0.98111-6.9348 1.3085-11.79 4.909-4.8548 3.5993-6.5884 9.8191-6.5884 11.782 0 1.9645 1.3874 7.2009 2.4274 9.1643s3.4674 4.5815 4.8548 4.909c1.3862 0.32739 4.8548 0.98227 6.5884 0.65485 1.7337-0.32745 5.5474-0.32745 6.9348-0.98227 1.3874-0.65366 2.4274-1.6359 5.201-1.9634 2.7748-0.32742 4.5097-0.65485 6.5897-0.65485h9.3633s2.4274-5.5638 1.3862-5.5638c-1.04 0-6.241-1.6359-9.0147-1.3085-2.7748 0.32742-7.2833 0.65482-8.3245 1.3085-1.04 0.65485-3.4674 1.6371-3.4674 2.292 0 0.65366 3.4674 1.6359 4.5086 1.6359 1.0399 0 7.9759-0.32742 8.6696-0.32742 0.69373 0 6.5885 0.32742 6.5885 0.32742" fill="none" stroke="#666" stroke-width="1.178"/>
 <path d="m496.58 351.32c3.4509 0 5.6156 0.65131 9.2561 1.954 3.6393 1.3038 7.5613 4.5615 7.6556 5.2128 0.094177 0.65131 2.4156 7.1668 1.9139 8.4694-0.50177 1.3026-1.3179 5.2117-2.5098 6.5154-1.1931 1.3026-2.511 6.5143-3.107 7.1668-0.59595 0.65131-0.62775 5.2117-1.0353 7.1668-0.4075 1.954-1.6006 3.2566-2.8867 3.9091-1.2861 0.65131-7.2162 2.6052-7.2162 2.6052s-2.2908 3.2577-3.4827 4.5603c-1.1931 1.3038-1.3179 5.2128-1.3179 5.2128s6.1809 4.5604 7.2786 2.6064c1.0989-1.9551 1.8833-1.3038 9.7273-9.1219 7.844-7.818 13.084-9.772 14.089-12.378 1.0034-2.6064 6.5578-7.1668 8.4399-8.4694 1.8833-1.3038 4.1423 0 6.5261-2.6064 2.385-2.6064 7.029-3.9091 7.6249-4.5604 0.59595-0.65131 1.2861-0.65131 1.8832-1.3038 0.59595-0.65131 5.2706-6.5142 2.2272-8.4694-3.0433-1.954-7.6555-5.2117-10.009-7.1668-2.3532-1.9539 1.0035-2.6052-13.587-3.2577-14.59-0.65131-30.184 1.3038-30.184 1.3038" fill="url(#cm)" fill-rule="evenodd"/>
 <g fill="none" stroke="#666" stroke-width="1.178">
  <path d="m558.11 350.29c-1.7337-3.8148-7.6296-6.9359-10.404-8.3233-2.7737-1.3874-13.871-1.7337-18.032-1.04-4.1611 0.6937-28.089 1.04-30.862 1.7337-2.7736 0.69373-33.984 5.5485-41.614 7.9771-7.6284 2.4274-23.233 12.136-27.048 13.523"/>
  <path d="m334.16 486.17s6.698 30.143 15.071 38.516c8.3728 8.3728 35.166 38.514 41.864 41.864 6.698 3.3496 43.539 20.095 55.26 23.444 11.722 3.3496 35.166 5.0244 41.864 5.0244 6.6992 0 38.516-8.3728 38.516-8.3728l16.746-8.3728"/>
 </g>
 <g fill-rule="evenodd">
  <path d="m430.54 632.79c-0.91882 9.0819-13.881 24.802-17.203 35.285-4.2864 13.526-11.143 20.295-17.203 29.857-7.2378 11.42-1.6375 24.559 3.4406 32.571 6.3136 9.9614 19.706 15.546 30.965 24.428 10.512 8.2927 18.664 12.01 27.525 19-0.63123-16.317-18.875-23.748-32.391-57.843 12.684-22.287 20.304-59.42 22.069-77.869 0-8.447 7.6247-9.3458-17.203-5.4285z" fill="url(#cs)" opacity=".495"/>
  <path d="m257 628.1c7.6122 5.4493 13.947 15.369 18.788 25.05 5.3093 10.619 7.3614 12.746 10.438 25.05 2.9157 11.663 6.8948 15.245 12.525 20.875 5.5213 5.5214 22.306 6.2626 29.225 6.2626 10.991 0 20.089 6.2626 31.313 6.2626 9.7539 0 19.496 5.9178 29.225 8.3501 10.928 2.732 2.9977-1.1774-4.175-8.3501-9.2677-9.2678-6.6813-14.822-18.788-20.875-9.8545-4.9272-21.049-3.6967-31.313-6.2626-7.1724-1.7931-17.451-9.7693-22.963-12.525-9.5165-4.7583-14.131-12.044-20.875-18.788-8.4994-8.4994-10.752-13.647-22.963-16.7-4.3225-1.0806-6.9584-5.5668-10.438-8.3501z" fill="url(#cl)" opacity=".495"/>
  <path d="m415.49 705.8c5.0048 12.218 9.9018 28.354 12.525 46.229 3.7822 25.772 3.2942 22.739 16.7 28.449 11.314 4.8185 20.875-0.2785 20.875-17.78 0-23.606-1.5466-34.332-8.3501-49.785-4.8241-10.957-14.607-14.219-22.963-21.337-6.1762-5.2606-9.6407-40.991-14.613-7.1121-1.0674 7.273-2.7834 14.224-4.175 21.336z" fill="url(#cr)" opacity=".495"/>
 </g>
 <path d="m136.41 991.64l450.59 4.3622v21l-453-6 2.4055-19.362z" fill="#a5a5a5" stroke="#bababa"/>
</svg>
