<?xml version="1.0" encoding="UTF-8"?>
<svg enable-background="new 0 0 430.441 238.578" viewBox="0 0 430.441 238.578" xmlns="http://www.w3.org/2000/svg">
 <path d="m50.338,15.241c.876,11.526 1.897,20.564 0,31.162-8.542-.308-17.718-.598-26.368-.343-2.475.073-4.55.833-6.506-.685-1.304-1.971-.112-4.102 0-6.506 .19-4.077-1.072-8.845-.685-13.697 .294-3.693 1.165-7.027.685-10.616-.062-.291.134-.323.343-.342 .277-.065.341-.344.685-.342 .731-.16.652.489.685,1.027 9.523-.191 20.284-.2 31.161.342zm-30.819,2.397c.597,3.981-1.774,9.465-1.37,14.725 .057.744.542,1.571.685,2.397 .478,2.757-.295,5.98.342,7.876 .383,1.139 1.87,2.323 2.739,3.082-.125-1.568.22-2.132 1.027-4.109 3.584-1.049 6.795-3.239 10.616-2.739 .659.086 1.437.638 2.397,1.027 2.132.865 5.479.484 5.821,2.397-3.581.799-8.61-2.194-12.67-1.712-2.566.305-4.826,1.854-6.164,3.767 3.973-.257 7.703.506 11.3.342 2.389-.109 4.641-1.102 6.849-1.027 .257.009 1.238.32 1.37.343 2.748.463 4.419.917 6.506.342 .304-7.752.923-19.708-.343-27.395-8.165.33-21.334-1.567-29.105.684z"/>
 <path d="m25.34,20.035c.553-.097.59.324 1.027.343 1.896,5.191 4.322,11.645 5.479,16.437-2.237-1.511-2.304-4.707-3.424-7.534-1.249-3.153-3.871-5.843-3.082-9.246z"/>
 <path d="m32.189,20.035h.685c1.815,1.106 1.014,6.721.685,8.903-.335,2.221.614,4.587-.685,6.164-1.711-3.848-.389-10.609-.685-15.067z"/>
 <path d="m41.092,20.377c.398-.056.609.075.685.342-.386,2.532-2.065,4.641-3.082,6.849-1.059,2.301-1.25,5.101-3.424,6.506 1.611-4.894 3.338-9.673 5.821-13.697z"/>
 <path d="m20.889,26.199h.685c1.234.136 1.045,1.694 1.712,2.397 1.962,2.033 3.818,4.172 5.479,6.506-2.074-.128-5.488-1.945-6.849-4.109-.786-1.25-1.062-3.029-1.027-4.794z"/>
 <path d="m45.543,27.226c.421.149.704.438.685,1.027-2.499,2.866-5.503,5.227-8.903,7.191 1.739-3.739 6.03-4.928 8.218-8.218z"/>
 <path d="m110.949,29.28c-1.258.77-4.725.864-5.821.685 .423-1.04 3.85-1.344 5.821-.685z"/>
 <path d="m86.636,30.65h1.027c.097.553-.324.589-.342,1.027h-.685v-1.027z"/>
 <path d="m21.573,35.102c1.614.669 3.34,1.225 3.767,3.082-1.861-.422-3.495-1.071-3.767-3.082z"/>
 <path d="m46.914,36.129c-.129,1.76-2.362.858-3.424,1.027-1.934.308-4.113,1.021-6.164.685 .901-1.106 3.532-1.438 5.479-1.712 1.376-.194 3.138-.418 4.109,0z"/>
 <path d="m248.607,37.156c.199,1.227-1.015,1.042-2.056,1.027-.256,1.055 1.181.417.685,1.712-1.516.247-2.885-.373-2.738,2.055-2.639.47-1.438-2.9-3.768-2.74-.064-3.978 5.068-2.46 7.877-2.054z"/>
 <path d="m258.88,38.184c-1.287,1.91-4.59,1.803-6.164,3.424 .089,1.687.134,3.329-1.713,3.082-.328-2.208.608-4.014 0-5.479 .974-2.402 6.17-3.251 7.877-1.027z"/>
 <path d="m44.859,42.635c.274,1.302-1.619.436-2.397.685-.136-1.453 1.872-1.762 2.397-.685z"/>
 <path d="m252.375,46.745c.361,1.732-.961,1.779-2.396,1.712-.646.532.49,1.334-.344,2.055-1.209-.16-3.299.56-3.082-1.027 1.23.202 1.656-.398 2.396-.685 .445-.851-1.004-1.421 0-1.712 .649-.609 2.261-.251 3.426-.343z"/>
 <path d="m352.365,48.799c-.334.921-.756,1.756-1.027,2.739-3.139,1.658-3.738-1.579-6.164-1.712 .609-3.598 5.144-.75 7.191-1.027z"/>
 <path d="m250.662,48.799c.988.267 1.77.743 2.396,1.37-.781.713-1.992,1.203-1.027,2.74-1.689.321-2.322-.417-3.082-1.027 .008-1.135 1.936-.348 2.396-1.027-.083-.918-1.441-1.303-.683-2.056z"/>
 <path d="m342.435,55.306c-1.219-.494-.442-2.981-1.368-3.767-2.244,1.06-4.943,1.274-6.164-1.027 2.895-3.341 9.522-1.585 7.532,4.794z"/>
 <path d="m346.542,57.703c.059.857-.525,1.072-1.027,1.37 .314.6.64,1.19 1.713,1.027 .296,1.435-1.53.75-2.055,1.37 .422.491 1.178.649 2.055.687-.436,1.224-1.114.901-2.396.685-.266-.305-.367-.773-.342-1.37-1.252.075-1.314.471-2.396,0 1.115-1.649.83-1.71 0-3.424 1.906.475 2.882.218 4.448-.345z"/>
 <path d="m244.841,65.921c1.351-.655 4.474-.146 4.793,1.37-1.845,1.031-3.547-.696-4.793-1.37z"/>
 <path d="m238.677,70.373c.474.554 1.63.426 1.369,1.712-1.047.248-1.248-.35-2.055-.342-.423-1.109 1.109-.263.686-1.37z"/>
 <path d="m241.074,72.084c.76-.188.486.654 1.025.685-.137.853-1.566.262-1.025-.685z"/>
 <path d="m237.992,74.139h1.025c-1.088,4.398-.34,9.486-.685,14.382-.153,2.188-.931,4.597-1.026,6.849-.142,3.198 1.041,9.521-3.425,9.931-1.053-1.666 1.558-2.208 2.056-3.424 .723-8.64-.208-19.185 2.055-27.738z"/>
 <path d="m350.31,75.167c-.034,1.894-2.184,1.543-3.424,1.37-.34-2.472 1.916-1.449 3.424-1.37z"/>
 <path d="m249.977,75.852h1.026c.201,4.193.32,8.568.345,13.012 .018,3.429.444,6.717.342,11.301-.064,2.918.928,5.966-.342,8.561 .873,1.847 1.399,4.182 1.026,6.164-.369,1.953-2.174,3.835-3.082,5.821-.819,1.792-.506,4.48-2.74,4.452 .066-1.194.949-1.856 1.369-3.082 .386-1.12.205-2.625.687-3.767 .951-2.259 2.883-2.934 2.396-7.191-.09-.792-.67-1.575-.686-2.397-.021-1.249.637-2.514.686-3.767 .378-9.543-1.408-20.272-1.027-29.107z"/>
 <path d="m230.8,78.591c.554-.096.591.324 1.027.343 .728,6.14 1.827,13.187 1.026,19.861-.492,4.107-1.93,7.317-3.424,9.931-3.084.682-5.869.261-8.904-.342 1.201-1.57 4.938-.622 7.191-.342 2.24-3.976.58-9.498-2.738-11.643-3.188.836-5.662,4.119-9.932,2.74 1.286-1.682 4.569-1.367 5.821-3.082 1.159-.096 1.967-.545 3.424-.342-.447-1.272-2.097-1.011-3.08-1.37-2.492-.909-5.991-2.805-7.191-5.479 1.943-1.238 2.465,1.777 3.768,2.74 2.295,1.698 5.578,2.621 8.219,1.027 .141-1.458 1.25-1.945 1.711-3.082-.699-3.209-3.406-6.142-3.424-8.903 2.785,2.218 2.977,6.617 4.451,9.931 .846,1.896 2.33,3.287 2.738,5.137 1.197-6.525-.394-11.159-.683-17.125zm-4.793,16.779c2.048,1.833 3.388,4.374 4.107,7.534 1.647-.868 1.454-5.388 1.37-6.849 .043.615-.34.801-1.026.685-.961-1.779-.735-4.742-2.74-5.479-.661,1.279-.689,3.193-1.711,4.109z"/>
 <path d="m255.457,78.591c.553-.096.588.324 1.025.343 .17,8.018 2.869,17.528.686,24.655-2.104-2.092-.82-5.907-.686-8.903 .233-5.133-.703-10.56-1.025-15.067v-1.028z"/>
 <path d="m82.184,88.521c-.043.614.419.722.342,1.37-.97.261-2.585,1.011-3.424.343 .594-1.005 1.606-1.59 3.082-1.713z"/>
 <path d="m276.001,88.521c2.052,3.074.64,7.461.345,12.328-1.388-2.7.55-7.741-.345-12.328z"/>
 <path d="m71.226,91.604c2.85,1.374 5.228,3.219 5.137,7.534 2.738,3.968 1.847,10.034 3.767,14.725 .822,2.008 2.373,3.579 2.74,5.479 4.215,3.896 9.934,4.708 16.779,5.479-.252,1.91-2.797,1.481-4.109,1.371-4.71-.401-8.925-3.397-12.67-4.451-.997-1.479-1.653-3.142-2.74-4.794-1.049-1.596-2.572-2.774-3.082-4.794-.766-3.033-.373-6.392-1.027-9.588-.541-2.639-1.893-4.989-2.74-7.191-.781-1.164-2.565-1.32-2.055-3.77z"/>
 <path d="m240.73,93.316c1.18,5.343 1.696,13.159-3.767,14.382 .606-1.446 1.699-2.409 2.738-3.424 .448-1.604-.037-4.146 1.026-5.136-.539-1.407-1.331-4.621.003-5.822z"/>
 <path d="m361.953,94.686h1.027c.108,2.493-.121,6.238 0,8.903-2.025-1.554-1.938-6.308-1.027-8.903z"/>
 <path d="m68.829,96.74c-1.983,3.819-5.198,6.622-4.452,10.958 .163.945 1.284,2.569 2.055,4.109 1.911,3.818 4.519,10.648 6.849,13.355 1.697,1.971 4.809,2.711 4.452,5.136-2.459-1.536-4.423-3.565-6.506-5.479-.286-2.683-1.353-4.582-3.082-5.82-1.865-4.642-4.412-8.6-6.506-13.012-2.521,1.588-4.214,4.005-6.506,5.821-2.153-.642-3.137,1.233-4.109.685 .141-2.011 1.597-3.283 2.74-4.451 1.123-1.147 2.375-2.643 4.109-3.082-.436,2.76-4.031,2.36-3.767,5.821 5.787-3.458 9.21-9.281 13.697-14.04l1.026-.001z"/>
 <path d="m110.606,97.083c.699.101.672.926 1.37,1.027-.344.861-1.514-.273-1.37-1.027z"/>
 <path d="m62.323,98.452c-.089,1.142-1.372,2.223-2.397,1.37-4.11,2.624-9.928,3.541-14.382,5.821 1.728-3.723 6.748-3.32 10.273-4.794 2.211-.924 3.726-3.231 6.506-2.397z"/>
 <path d="m99.306,99.479c1.202.213.305,1.431-.685,1.37-.249-.934.68-.689.685-1.37z"/>
 <path d="m244.15 107.7h1.027c-0.265 3.496-1.185 8.396-5.138 9.246 1.494-2.961 4.193-4.713 4.111-9.246z"/>
 <path d="m208.2,108.041c1.55,3.7 4.284,6.217 6.506,9.246-3.858.165-7.279-4.782-6.506-9.246z"/>
 <path d="m56.501,112.149h.685c2.094.796 3.167,3.078 4.452,4.794 2.646,3.534 5.282,7.239 7.876,11.301 2.695,1.299 4.961,3.027 6.849,5.136-4.07-.382-4.686-4.218-8.218-5.136-1.608-1.576-2.19-3.645-3.424-5.479-2.47-3.671-6.26-6.451-8.22-10.616z"/>
 <path d="m358.871,117.286c1.979,1.955 3.057,7.503 1.713,10.614-1.842-.346-.994-4.188-.344-5.135-.401-1.883-.969-3.597-1.369-5.479z"/>
 <path d="m329.421,118.313h1.027c2.646,4.26 12.887,4.385 10.271,11.642 1.142,2.971 4.117,4.104 5.822,6.507-.332,1.576-1.496-1.298-2.396-1.37-4.252-2.393-4.819-5.445-9.588-4.794-.805.11-1.719.89-2.739,1.027-1.494.202-3.345-.418-5.138,0-.934.218-2.391,1.31-3.768,2.055-2.789,1.511-8.787,4.296-12.326,4.452-1.252.055-3.861.58-4.452-1.713 5.577.725 11.583-1.51 16.095-4.109 1.312-.754 2.632-2.119 3.769-2.396 4.805-1.173 9.721.47 14.383,0-.446-6.975-9.036-5.805-10.96-11.301z"/>
 <path d="m312.3,120.71c1.801.737-.748,2.538-.344,4.108 3.432,1.574 7.973.572 12.328.686-2.594,2.984-9.816,2.082-13.354.686-.352-2.635.728-3.84 1.37-5.48z"/>
 <path d="m120.879,127.559c.602.082.78.59.685,1.369 .715.998 3.496-.07 3.082,2.055-3.546-1.338-8.622-.523-10.958,1.371-1.131.695-1.148,2.504-3.424,2.056 1.19-4.062 6.274-4.229 10.616-5.138 .239-1.055.239-.658-.001-1.713z"/>
 <path d="m319.148,130.298c-4.505,1.218-8.554,4.669-13.354,4.452 .642-1.527 3.244-1.311 4.793-2.055 1.4-.674 4.086-2.172 6.506-2.74 .442-.103 2.151-.706 2.055.343z"/>
 <path d="m365.035,133.38c-1.805,2.032-5.914.481-9.246.685-.807-.676-1.781-1.186-2.738-1.711-1.396.115-3.01,1.359-4.453.342 .765-2.031 2.976-2.202 4.453-2.055 1.547.156 3.181,2.227 5.137,2.739 .558.146 1.681-.453 2.396-.343 .516.08 1.215.688 1.369.686 1.197-.028 1.525-1.344 3.082-.343z"/>
 <path d="m122.249,133.38h1.027c2.084,2.644 2.94,6.407 1.712,10.616-3.233,1.902-2.853,7.42-5.479,9.93 .32-6.727 5.367-10.271 3.767-17.807-.519-.711-2.061-1.534-1.027-2.739z"/>
 <path d="m119.167,140.229c.612-.096.703.324.342.345-.582,2.854-1.934,6.476-3.082,9.243-1.089,2.629-1.186,3.83-3.424,4.795-.812-2.117 1.479-3.494 2.397-5.479 .456-.984.635-2.361 1.027-3.425 .799-2.159 1.7-3.619 2.74-5.479z"/>
 <path d="m325.998,140.572c-.275,1.263-1.744.85-3.424,1.027-4.127.436-7.687,2.354-10.617,4.106-.908-.117-1.154-.897-1.369-1.711 2.832.11 4.572-2.521 7.533-3.082 2.022-.383 4.281.396 6.508,0 .511-.089.699-1.152 1.369-.34z"/>
 <path d="m103.76 141.94c-1.386 1.582-3.876 2.06-6.164 2.738 0.674-1.606 3.468-1.098 4.109-2.738h2.055z"/>
 <path d="m362.98,142.284c1.11,1.973 1.896,6.09 1.713,8.219-1.377.022-.476-1.249-.687-2.055-.403-1.532-1.555-3.136-1.026-6.164z"/>
 <path d="m337.64,143.997c-1.303,1.896-3.114.828-4.795,1.026-8.102.959-12.182,7.942-19.858,9.931-3.017-.869-4.777,2.291-6.164,0 .641-1.938 3.317-.992 5.137-1.369 1.684-.351 3.082-1.621 4.795-1.37 5.743-3.91 11.653-9.895 20.885-8.218z"/>
 <path d="m158.547,146.393c-1.414,2.238-3.257,4.049-5.136,5.821-.09,1.726-1.461,2.479-2.397,3.767-1.175,1.617-2.169,3.998-4.452,4.795-.701-2.547 1.977-3.323 3.082-4.795 1.114-1.479 1.541-3.637 2.74-5.137 1.595-1.994 3.931-2.711 5.479-4.794 .397-.055.608.075.684.343z"/>
 <path d="m326.339,148.79c.422.149.703.438.687,1.026-1.398.429-2.783.869-3.082,2.396 2.422,1.396 4.455-.39 6.508-1.025 .621-.193 2.047-.029 3.082-.345 2.209-.669 8.418-2.725 8.217,1.37-2.17-.07-2.9-1.02-4.451-.686-2.61.562-2.553,4.269-5.137,4.795 .072-1.982 2.225-1.887 2.396-3.768-.463-1.429-2.225.078-3.082.342-2.881-.026-4.821.886-7.188,1.369-1.244.33-.289-1.539-1.371-1.369-1.428,1.652-2.52,3.646-4.793,4.451-1.643,3.479-3.73,7.612-3.768,11.645-1.623.025-.933-3.581-.687-4.794 .502-2.478 2.269-4.994 2.74-6.851 3.631-2.528 5.834-6.489 9.929-8.556z"/>
 <path d="m364.693,151.872c.396-.056.606.076.684.343 1.49,9.032-1.227,16.801-3.082,23.628-2.1,2.163-2.82,5.65-4.451,8.562-.408.729-.946,2.194-2.055,2.055-1.465-2.377 1.15-3.89 2.055-5.479 1.398-2.461 1.822-5.562 3.769-7.532 1.556-6.915 3.328-13.771 3.08-21.577z"/>
 <path d="m339.695,152.898c1.346.348.469,2.492 0,3.082-1.25-.25-.676-2.698 0-3.082z"/>
 <path d="m322.916,156.324h1.027c-3.105,7.734-6.354,17.818-5.48,27.395-.943-.563-1.686-3.626-1.711-4.109-.137-2.442.328-5.623.684-8.217 .792-5.766 3.856-11 5.48-15.069z"/>
 <path d="m280.453,159.062c.307.151.613.302.688.687-.707,5.429-2.205,9.642-3.082,16.094-.211,1.548-1.168,3.183-1.371,4.794-.266,2.104.219,4.463-1.369,5.821 .525-9.582 3.892-17.938 4.451-26.367 .317-.252.517-.624.683-1.029z"/>
 <path d="m391.402,160.775c.396-.058.608.074.686.343-2.791,7.481-4.24,16.306-9.932,20.889 .033-4.368 4.082-6.698 5.479-10.272 1.409-3.606 1.698-7.43 3.767-10.96z"/>
 <path d="m165.738,164.884c-1.604.634-2.546-1.022-4.109-1.026-2.225-.008-3.491,2.054-5.479,1.369-.051-1.318 2.736-1.975 4.452-2.74 .945-.423 5.854.099 5.136,2.397z"/>
 <path d="m404.072,163.172c2.881.521 2.944,3.391 5.137,5.137 2.078,1.656 5.18,1.787 7.877,2.396 1.717.389 4.35.721 5.137,2.74-4.881-1.053-9.758-1.26-13.014-3.77-2.157-1.657-3.477-4.432-5.137-6.503z"/>
 <path d="m372.568,164.884c.717.312 1.045,1.011 1.026,2.056-.401-.669-2.003-1.038-1.026-2.056z"/>
 <path d="m153.068,167.624h1.027c.658,2.492 2.185,4.385 3.424,6.507 .338.579.649,1.46 1.027,2.055 2.691,4.228 7.966,6.317 11.643,9.933 2.359,2.317 4.058,5.073 5.479,8.218-.756.271-.445,1.609-1.37,1.712-1.417-.864-1.951-2.612-2.055-4.793-1.006-1.394-2.224-2.569-3.082-4.108-4.776-3.328-9.663-6.547-12.328-11.985-2.15-1.39-3.164-3.912-4.452-6.163-.247-.941.682-.695.687-1.376z"/>
 <path d="m31.162,172.76c.398-.056.609.076.685.344 .95,18.537-1.303,38.422 0,53.763-1.496-.655-1.282-3.892-1.37-5.821-.745-16.396 1.273-32.209.685-47.256v-1.03z"/>
 <path d="m35.271,173.788c.553-.097.59.323 1.027.343-.51,4.186-.031,8.564-.342,12.67-.459,6.049-.502,11.605-.342,17.807 .03,1.185.632,2.211.685,3.427 .054,1.237-.667,2.511-.685,3.766-.042,2.824 1.323,6.663.685,9.591 .152-.699-.964,1.705-.342,1.025-.28.307-.726.402-1.37.343 .096.611-.324.702-.343.343 .546-16.166.406-32.371.685-48.283-.097-.558.323-.595.342-1.032z"/>
 <path d="m283.193,173.788c.553-.097.59.323 1.027.343 .057,3.036-1.746,5.895-2.056,8.903-.11,1.065.385,2.442.342,3.424-.188,4.321-2.239,8.319-2.739,13.354-2.168-2.023-.306-4.299.344-7.19 1.008-4.491 1.143-10.608 2.055-14.726 .32-1.444 1.289-2.146 1.027-4.108z"/>
 <path d="m111.976,174.13h1.027c-1.703,16.196-.231,36.302-1.712,53.077-1.424-2.793-.791-6.521-.685-10.615 .134-5.186-.085-10.643 0-15.752 .034-1.996.624-4.021.685-6.164 .173-6.035-.685-13.885.685-19.52v-1.026z"/>
 <path d="m419.824,176.87c-1.189,2.233-2.771,4.078-4.109,6.164-.518,4.514 1.215,6.776 2.398,9.588-.938.364-.742-.399-1.027-.687-.748-.746-2.512-3.694-2.74-5.479-.509-3.974 1.81-9.341 5.478-9.586z"/>
 <path d="m348.941,191.936c.899,1.825-.533,4.256-1.371,5.479 .057,1.427.119,2.858-.687,3.425-1.792-2.826 1.152-6.526 2.058-8.904z"/>
 <path d="m133.55 210.43c1.907 0.869 3.149 1.201 5.136 1.369-1.018 1.881-5.301 1.012-5.136-1.369z"/>
 <path d="m291.753,214.195h1.026c-1.344,6.074-5.198,9.639-9.245,13.013-.771-.255-.134-1.921-.343-2.74 4.234-2.046 6.523-6.034 8.562-10.273z"/>
 <path d="m274.291,220.702c.336-1.052.912.394 1.369.342-.336,1.048-1.155-.153-1.369-.342z"/>
 <path d="m273.947,227.208c-1.324,1.718-2.633-1.726-3.424-2.74-1.229-.086-1.256,1.029-2.396,1.027 .178-.507.506-.862.686-1.369-2.244-1.756-5.285-.297-7.533.687-.336-.465-1.153-.443-1.37-1.026-6.339.737-7.474,6.68-14.382,6.848 1.121-2.215 2.654-1.198 4.451-2.055 4.068-1.935 4.945-6.66 12.328-5.479 3.209-1.883 7.945-1.02 10.271,2.055 .539.71.08,1.998 1.369,2.052z"/>
 <path d="m35.956,223.441c.852.052.1,1.158 0,1.369-.716.146-.907-.234-1.37-.345 .106-.464.857-.282 1.37-.342v-.682z"/>
 <path d="m428.729,212.825c1.459-2.953.934-7.572 1.026-12.327 .047-2.369.664-4.564.687-6.507 .021-2.203-.65-4.521-.687-6.849-.096-6.414 0-13.738 0-20.89 0-4.274.273-9.871 0-12.67-.039-.396-.674-.938-.686-1.37-.117-4.501 1.071-8.816-.345-12.67 1.605-3.033.261-6.402.345-9.589 .047-1.767.608-3.435.686-5.138 .353-7.923-.108-17.314 0-26.708 .039-3.487-.83-6.773-1.026-10.273-.218-3.843-.052-7.958 0-11.985 .116-9.623.286-19.161 0-28.422-.13-4.128-1.25-8.209-1.027-11.985 .098-1.645.918-3.16 1.027-4.794 .323-4.78-.193-9.947-.345-14.725-.147-4.834.033-9.833-1.369-14.382-8.621-.801-18.354-.729-25.682-.343-3.791.2-6.051-.491-9.246-.685-6.305-.382-12.606,1.18-19.176.685-9.646-.727-20.318-.226-30.82-.342-9.192-.102-18.617-.547-27.735-.342-4.656.104-9.152.106-13.697,0-4.393-.103-9.893-.846-13.354-.343-6.664.97-14.365-.458-20.89,1.027-6.879-1.773-14.117-.433-21.231-.342-3.427.044-6.479-.379-9.931,0-3.217.354-7.887.687-11.985.685-3.109-.001-5.668.613-7.875.685-4.763.155-8.965-.136-13.355,0-3.264.101-6.438.31-9.588.343-4.706.049-9.546.806-13.012.685-2.801-.098-6.298-1.065-9.588.343-9.374-1.661-21.059-1.075-30.477-1.37-2.485-.078-4.956-.747-7.191-.685-1.324.037-2.495.723-3.767.685-1.182-.036-2.603-.617-3.767-.685-9.077-.525-18.576.703-28.08,1.37-11.53.808-23.224-.822-34.93-.685-1.176,1.172-2.745.387-4.109.343-4.109-.135-7.575.003-10.615,0-16.947-.018-31.92-.672-46.914-.684 .533,21.88.368,44.354.342,67.459-.008,7.4.909,13.795 1.027,19.861 .151,7.688-.859,16.12-.342,22.943 .063.836-.35,1.235-.343,2.055 .09,10.021.013,22.504 0,30.134-.003,1.971.432,3.994.343,5.821-.062,1.267-.616,2.555-.685,3.767-.166,2.906-.035,6.266 0,9.246 .035,3.004-.262,6.15 0,8.903 .16,1.686.915,3.112 1.027,4.794 .304,4.555-.655,11.533-.342,14.725 .286,2.913.342,5.795.342,8.903 0,9.716.301,19.087 0,27.396-.127,3.506-.787,6.977.342,9.588 .162.375.355.687.571.965 .896-.062 1.797-.088 2.7-.088 .068,0 .127.015.191.02 .689-.77 1.758-1.046 2.702-1.236 2.7-.55 6.441.534 9.931.686 8.061.346 17.646-.904 25.683-.686 1.731.049 3.504.69 5.136.686 2.036-.008 4.08-1.033 6.164-1.027 1.401.004 3.04.623 4.452.686 6.792.296 15.382.549 19.861.344 1.063-.051 2.035-.037 3.082,0 5.811.207 10.687-.295 16.094-.344 7.083-.062 14.298.683 21.574.344 7.016-.326 13.864.195 20.888.343 7.485.155 14.986-.036 22.601,0 15.797.074 31.826.359 47.599-.343 11.212-.5 22.742,1.102 33.56.688 1.361-.055 2.502-.678 3.768-.688 3.918-.031 7.799.379 11.301,0 1.203-.13 2.619-.688 3.767-.686 1.187.002 2.604.621 3.769.686 7.03.387 14.276-.863 21.229-.344 8.651.646 19.305.352 29.105.687 6.358.216 13.028-.391 17.809-.687 5.459-.338 10.211.178 15.408.344 3.391.107 6.883-.393 10.272-.344 3.781.057 7.508.664 11.299.687 19.863.104 35.81-1.479 53.421-1.026 .254.053.45.164.614.312 .33-.244.729-.392 1.158-.374 .352.016.682.07 1.008.145 .607-.354 1.248-.569 1.922-.688 .287-3.268-.444-6.508-.594-9.667-.206-4.416.228-9.224-1.027-14.051zm-1.714-43.831c-2.112-1.652-4.274-3.473-6.848-5.137-.859-.558-1.666-2.664-3.082-1.371 3.799,4.307 10.166,6.041 9.588,14.726-1.285,1.568-2.551,3.156-3.768,4.795-2.965.647-7.699,2.929-5.479,6.507 .176-2.449 1.644-3.607 3.082-4.795 2.103,2.01 3.291,4.928 5.479,6.85-2.588,4.83-5.886,8.955-11.302,10.957-1.264-6.485-1.946-15.315-5.479-20.545 1.086-.397 2.016-.953 2.395-2.056-1.819-5.256-5.686-8.468-8.901-12.327-.951-3.955-3.717-6.1-4.793-9.931-3.486-.401-3.98.197-7.533,0-2.082-6.938-9.246-8.789-12.328-14.726 1.187-3.039 2.422-6.024 4.109-8.562h4.793c1.252,2.855 4.352,3.868 4.453,7.876 3.834,3.357 4.481,9.897 8.561,13.015 .629-1.312 3.008-.873 3.767-2.057 1.686.94 2.604,2.646 3.77,4.109-1.303-.41-2.396-1.03-3.426-1.713-2.308,2.263-3.754-1.142-7.533-.344 1.094-1.306-.137-.828-.686-2.055-1.398.542-2.732,1.146-3.425,2.396 2.306.255 6.318.713 8.902,1.713 .395.404.389,1.21.342,2.055 3.506.549 8.062.208 12.672.343 1.076-.479-.473-1.688.343-2.055 1.42-.521 3.016-.867 5.137-.687 .016.877-.254.418-.687.344-2.506,5.588-10.332,5.297-16.438,4.106 2.352,1.632 5.744,2.224 8.904,2.056 3.104-.162 5.178-2.729 8.219-2.396 1.02-.122 1.735-.545 2.396-1.025 1.945.725 2.234.293 4.451,0 .771,2.659.14,6.715.345,9.934zm-49.996-24.314c2.533,1.121 4.164,3.145 5.48,5.479-2.568-.218-3.391,2.909-5.137,2.397 .985-2.562-.314-5.244-.343-7.876zm-1.025-2.739c-1.375-.683-1.492-2.618-3.426-2.739 2.385-4.351 5.047-8.422 8.219-11.984 .104-.79-.988-.381-1.027-1.026-3,2.363-4.475,6.254-6.848,9.244-1.152-.901-2.338-1.771-3.426-2.737 1.396-1.459 2.041-3.666 3.082-5.479-1.65-3.406-2.283-7.542.344-10.273 5.926-1.265 5.059-9.323 7.533-14.04-.865-5.925-.681-13.888-4.795-17.464-.72,1.077.862,2.776 1.713,3.424 1.51,4.352 1.219,8.757 2.055,13.354-2.609,3.592-.852,7.593-3.768,10.958-2.019,2.329-5.597,2.735-6.164,5.821-.41,2.229.688,4.772 1.371,7.534-.871,1.299-1.062,3.275-2.398,4.109-2.045-.468-3.166-1.856-4.451-3.082 .117-3.078 2.84-3.555 3.769-5.822-1.177-2.708-1.562-2.895-.687-5.82 .422.149.703.438.687,1.027 2.354-6.548 8.305-12.195 6.85-22.943-.715-5.271-3.625-10.24-5.822-14.382-.321-.609-.555-1.765-1.369-2.055-.104,5.406 4.89,9.033 5.82,15.067 1.451,9.373-2.07,16.705-7.875,22.601-.486,2.431.938,4.085 0,6.849-1.645-.473-3.44-2.247-2.055-3.767 .258-1.17-1.394-.435-1.027-1.712 .51-3.484 2.863-5.126 3.769-8.218 .506-.396.86-.396 1.368,0-.098-2.346.503-4.686 2.056-6.506 1.026-8.216-3.57-13.161-6.164-18.834 1.668-2.697-.049-8.506.686-11.3 7.039-.19 6.543,7.154 10.959,9.588 .093,1.021-.959,2.085.343,2.397 .854-1.212.241-3.884-.687-4.452 .541-.847 1.84.416 1.713,1.37 3.517.822 4.242,4.433 5.82,7.191-1.269,4.718 1.842,10.268 1.371,15.409-.23,2.487-2.48,4.767-2.058,6.849 .392,1.9 3.082,2.083 3.082,3.767-2.039,1.497-4.94-1.2-6.506,1.027 1.455.942 3.847,1.021 5.822,0 .742,1.438-2.154,2.175-3.426,2.739-1.213,1.513-5.324,3.049-3.424,5.479 1.561.307 1.385-1.127 1.713-2.057 3.477-.307 4.771-5.436 8.901-4.794 .896.139 1.291,1.294 2.396,2.055 2.481,1.708 6.188,1.723 4.451,6.504-2.845-1.266-4.785-3.434-8.562-3.767-.166,1.735 2.064,2.202 3.082,2.74 1.309.69 2.691,1.44 4.109,1.712 1.336,2.203 3.719,3.357 5.137,5.479 1.363.353 2.627.799 2.74,2.397-5.521-1.308-13.861-2.743-20.203-1.026-1.926,2.87-3.147,6.442-4.793,9.588zm.683,18.491c2.08-.164 2.392-1.539 4.451-.342-.285,1.768-2.481,1.626-3.082,3.082-.896-.471-1.482-1.256-1.369-2.74zm23.285-7.875c-1.248-4.229-3.459-7.498-5.137-11.301-.756.043-.146,1.453-.342,2.055-1.132-1.549-2.949-4.053-2.738-5.819 1.477.233 1.908,1.515 2.053,3.082 .76.188.488-.654 1.027-.687 5.412,1.665 10.856,3.297 16.096,5.137 .047.639.228,1.146.687,1.369-1.163,4.774-7.519,4.356-11.646,6.164zm12.329,4.795c-3.021-.52-4.672-2.406-5.479-5.138 3.16-1.141 5.908,2.688 5.479,5.138zm-9.93-17.123c-4.832-1.104-8.763-3.109-10.959-6.849 3.562-1.425 8.301,2.21 11.643,2.056 .234,2.059-1.018,2.632-.684,4.793zm19.517,17.464c.312-.829 1.377-.906 2.396-1.026 .528,1.673-1.7,1.62-2.396,1.026zm4.11-66.432c.666,4.951.168,11.296.686,16.438 .451,4.496-.137,9.303 0,14.04 .301,10.554-.873,23.896 0,33.899-1.367.272-2.213-1.092-3.768-1.369-3.043-.547-6.408.422-8.902,1.026-1.609-1.36-2.57-3.364-3.768-5.137 1.84-.959 3.164-1.901 3.082-3.767-.162-3.695-6.73-3.338-8.562-5.821 2.93-7.312-4.146-10.038-8.561-13.698 3.037-7.876-4.482-10.386-9.588-12.327-.822-.789-.521-1.104-.345-2.397-1.557-.498-2.725-1.384-3.424-2.739-.17-1.566 1.42-2.834 1.713-4.452 .445-2.466-.875-5.696-1.026-9.246-.029-.698.625-1.075.686-1.712 .422-4.493-1.344-8.215-2.396-11.3-1.406-2.132-4.783-2.293-5.479-5.137 17.967-.265 32.68.271 49.311,0 .873,2.326.988,4.607.345,8.561-.344,2.08-.323,2.768-.004,5.138zm-422.221-53.42c-1.847-5.801.501-15.797-1.37-21.573 1.707-2.289-.371-8.361 1.712-10.273 3.462-1.424 7.156-.041 10.615,0 2.255.026 4.533-.596 6.849-.685 6.55-.25 13.455-.095 20.204-.342 8.825-.324 17.681.912 26.368.685 4.631-.121 9.746-.553 14.725-.342 1.259.053 2.507.665 3.767.685 2.784.044 5.647-.715 8.561-.685 5.846.061 11.57,1.557 16.779,1.027 3.783-.384 7.435-1.339 11.3-1.37 17.102-.135 34.604.757 52.393.342 19.043-.444 38.922.525 57.871,0 .885-.024 1.873-.62 2.738-.685 .979-.073 2.15.375 3.082.343 1.812-.062 3.582-.653 5.479-.685 7.062-.119 14.707-.266 21.914,0 24.666.911 53.752-.895 80.131-.342 27.408.574 53.746-.342 78.074-.342 1.475,3.966-1.363,10.201 1.027,13.012-.236,18.582-.209,36.932.342,57.872-1.318.329-2.705.675-4.107.685-.881.006-1.53-.599-2.396-.685-3.42-.341-8.562-.032-12.328,0-1.879.016-3.939.233-5.822.342-10.52.609-18.789.126-29.104,1.027-1.517-3.394-3.371-6.446-8.902-5.821-2.137-2.658-3.811-5.779-7.191-7.191 .921-2.644-.881-6.052 0-8.218 .541-1.332 1.871-1.488 2.74-2.739 .629-.907 2.959-6.098 3.08-7.191 .127-1.13-.408-3.389-1.027-4.452-.786-1.356-2.286-2.062-3.766-3.424-1.018-.871.873-1.67 0-2.397-2.547-3.087-5.465-7.333-10.615-7.191-1.43.039-2.936,1.208-4.45,1.37-1.191.127-2.617-.417-3.769-.342-5.854.379-8.102,5.105-9.246,10.615-1.676,1.352-2.836,3.615-2.738,5.821 .144,3.213 2.73,5.271 5.479,6.164-.104,1.588.004,2.964.686,3.767-3.01,3.206-3.829,6.677-1.026,11.3-1.838.704-4.474-1.017-5.82-.342-.227.113.16.729-.342.685-1.271-.112-3.027-1.803-4.795-.685-.976.167-1.211,1.072-1.369,2.055-4.594.43-5.457,4.587-7.535,7.533-5.976-.64-12.991.105-18.832.685 .175-.967-.194-1.953-.344-3.082-.427-3.266-.772-7.792-1.369-12.328-.735-5.614-2.522-11.419-2.396-16.094 4.569-.348 2.336,6.109 4.793,7.876 1.969-2.018-.125-6.392 0-9.931 .082-2.305 1.635-4.582 0-6.164-2.527.667-2.031,4.359-3.082,6.506-2.689.557-2.34-2.721-2.396-4.109-.15-3.719.043-9.401 0-14.04-.023-2.816.916-5.167-.686-7.534h-4.107c-.562,7.034.992,14.618.342,22.943-3.34-.781-4.176.492-7.189.685 .396-5.7 1.438-15.03 2.056-22.601-5.313-4.087-5.733,2.834-6.164,8.219-.297,3.726-.465,7.032-1.026,10.273-1.431,8.229-2.867,15.802-3.769,23.628-1.637-.874-1.646-3.375-1.711-5.821-1.556-2.625-4.796-1.46-8.22-2.055 .715-3.623 2.74-5.935 3.082-9.931 1.183-1.12 7.146-7.9 4.793-10.616-.065-.078-.664-.308-.686-.342-.582-1.054.396-2.515-1.711-2.055 .281-2.283-1.07-2.958-.344-4.794-1.098-.387-2.271-.696-3.768-.685 .313-1.626 2.383-1.498 3.768-2.054-.664-1.881-1.191-1.701 0-3.424-.863-1.061-1.111,1.377-2.738.685-2.312-.021-3.236-1.069-5.479-.342-3.381-2.42-11.184-2.965-14.383-.342-1.817-.21-3.608-1.98-5.479-1.027 .582,1.079 1.949.592 3.082,1.027 1.092.419 1.621,1.389 2.739,1.37 1.494-.025 2.007-1.06 3.425-1.712 1.116.709 2.659.992 3.082,2.397-.748.05-.736.862-.687,1.712-4.77-.316-7.147,1.754-10.615,2.739-.479-3.901 5.027-1.82 5.82-4.451-2.537-.197-4.967-.593-7.533-1.712-.135,1.733 2.117,1.079 2.396,2.397 .066,2.034-2.256,2.775-3.082,4.452-.479.973-.137,2.18-.686,3.082-.868,1.429-2.613,1.847-3.082,3.424 .854,1.964 1.102,2.501 1.713,4.452 .229,1.026 1.992.519 2.396,1.37-.345,3.198 1.545,4.162 2.739,5.821 .914,3.955 1.446,8.214-.687,11.3-1.494.468-.729-1.326-2.055-1.027-1.75,1.333-4.127,2.038-4.795,4.452-6.351,3.353-12.32,7.084-17.122,11.985-.512,2.228-1.625,3.854-2.396,5.821-12.668.067-29.793-.224-45.544-.342-3.761-.028-7.253.564-10.615.342-2.653-.175-5.143-.304-8.561-.342-1.367-.016-2.838-.713-4.109-.685-1.49.033-2.656.888-4.109,1.027-.62.06-1.477-.332-2.055-.342-1.664-.03-3.29.615-4.794.685-4.42.206-9.012-.656-13.355-.685-2.994-.02-5.755.749-8.561,0-.599-1.349-2.051-3.646-1.37-5.137-1.371-1.254-2.308-2.943-3.082-4.794-.867-.845-3.044-.38-3.424-1.712-.095-1.872 1.576-4.769 3.424-5.821 2.323-.188 5.425.402 7.191-.342 1.528-.95 1.46-3.16.685-4.794 .435-1.278 2.603-.822 2.055-3.082 1.221-.537 2.617.37 3.424-1.027-.775-2.785-.661-6.469-1.027-9.588-.138-1.171-.803-2.406-.685-3.424 .252-2.177 2.246-3.409 2.74-5.137-.307-1.862-1.596-2.741-2.055-4.452-2.517-1.022-4.614-2.463-6.164-4.452-7.891-1.937-18.634-3.277-22.258,3.424-1.804.093-1.907-1.517-3.423-1.712-4.285.167-5.847,3.057-7.876,5.479-.81,6.175 1.388,9.341 5.821,10.273 .868.837-.722.73-.342,2.055 .539,2.362 3.904,3.565 3.767,5.479-2.688.133-4.333,1.668-3.424,4.452 2.612-.47 3.297-2.867 4.794-4.452-.058-2.708-4.086-2.796-3.082-5.479 1.852-1.237 3.243.524 3.424,2.055 1,1.055 2.576,1.534 2.74,3.424-3.618,2.841-5.239,7.496-9.931,9.588-1.278.57-3.036.469-4.452,1.027-2.323.916-4.121,2.371-5.821,4.109-4.964.433-7.997,4.334-10.958,7.876-1.548,1.852-2.85,3.433-3.767,6.164-14.987-.504-31.273.229-51.023-.685-1.563-7.481-.369-16.42-.342-24.655 .011-4.475-1.143-8.854.339-12.674zm353.734,36.298c-.594,1.689-1.787,2.778-2.396,4.452-3.101-.198-5.359,2.11-7.878,1.37-.856.283-1.084,1.2-1.713,1.712 .578,2.44-.196,4.109.688,6.164-1.146,1.167-1.283,4.163 0,5.479 1.561-3.017-.045-7.251.684-10.616 2.066.446 2.254,2.769 3.426,4.109-.506,3.844 1.779,11.556-2.055,14.382 .674,1.836-.176,5.197 1.369,6.164-1.104,1.522-2.689,2.563-4.795,3.082-2.146,2.535-4.051,5.309-7.533,6.506-2.264-3.672-8.547-3.324-11.984-5.822 2.662-3.158 5.144-6.5 7.533-9.93 1.529-.188 4.349,1.068 5.479,2.397-.244,3.75-4.992,2.998-7.191,4.794 3.316,2.498 6.938-.816 8.562-3.082-.129-1.355-.48-2.487-1.027-3.424-1.756-.526-3.205-1.361-4.795-2.055 .438-1.161.902-2.293 1.713-3.082 3.639.47 5.004,3.214 6.506,5.822-.289,1.879-1.899,2.436-2.055,4.452 4.361-.497 4.078-6.717 6.506-9.931-1.24-3.325-4.199-4.933-6.848-6.849 1.442-3.349 3.037-6.55 5.137-9.246 1.27-4.83-.998-8.105-1.713-11.985 .461-.225.639-.732.686-1.37 2.074,0 3.632.69 5.479,0 1.479-2.518 3.899-4.089 4.795-7.191h1.027c.812,3.32-.914,8.549-.345,11.643 2.236-1.323 2.416-3.565 2.056-6.849 4.33,2.16 6.562,7.915 5.819,14.04-2.866-1.468-2.807-5.867-5.137-7.876-1.626.61.207,1.529 0,2.74zm-9.931,61.297c2.391,1.568 6.217-.564 7.877,2.056-.199,2.312-2.867,2.153-4.109,3.425-1.271.555-1.043,2.607-2.74,2.736-1.397-1.565-1.844-4.09-4.106-4.793 .283-.969-.482-.887-.342-1.713-2.953-2.068-6.855-5.016-11.304-4.451 1.052,1.007 2.332,1.777 4.453,1.714 2.188,1.69 5.17,2.592 6.164,5.479 .969.057 1.426.627 2.396.686 .102,2.18 1.653,2.908 2.396,4.451-.043,1.64.096,3.099.687,4.107-.691,4.331-1.447,8.6-2.398,12.67-1.158,1.188-2.963,3.59-1.369,5.479 2.635-3.073 3.166-8.249 4.795-12.328 1.289,4.123 1.799,6.907 3.769,10.272-.562,3.881-3.052,7.429-4.795,10.957-1.511,3.053-2.482,6.521-5.138,8.219-.1-2.815-1.684-4.778-2.737-7.19-.675-1.534-1.793-3.333-2.058-4.793-.951-5.297 3.131-8.619 3.769-13.014 .2-1.392.562-3.77-1.027-5.138 1,4.334-4,10.062-4.451,13.697-.438,3.525.877,7.184 2.74,9.932-1.271,2.715-.699,5.621-2.74,7.875-.815,6.303-3.834,11.399-6.848,16.097-1.369,2.131-2.527,3.287-2.74,6.506 1.969-1.569 1.721-5.354 4.451-6.164 3.914-6.019 5.75-14.11 8.219-21.573 4.572,3.342-.998,9.629-.342,13.354-1.402-.146-1.789.725-2.398,1.368-.364,3.223 1.166,4.543 3.082,5.479-.725,2.813-1.526,5.548-1.366,9.245 .36.663 1.971.083 2.055,1.027-1.113,2.617-1.115,4.968-1.371,7.875-1.881.687-4.885.293-6.848,0-.347-2.756 2.514-4.394 3.082-7.19 .104-.528-.339-1.204-.345-1.712-.037-3.542.959-7.484.687-10.615-1.457,3.225-1.363,7.997-2.055,11.985-3.513-1.308-7.246.255-9.591,2.055 .609-4.811 1.689-11.256 3.769-15.067 2.549-4.674 5.271-9.694 6.85-16.094-1.877,1.865-2.699,4.928-3.768,7.533-1.117,2.725-1.865,5.665-3.769,7.533-1.45-.798-.037-2.535 0-3.768 .076-2.547-.004-5.006.345-8.562 .233-2.408 1.401-4.437 1.713-6.507 .137-.912-.531-2.401 0-3.768 .649-1.681 2.133-3.401 2.737-5.138 .767-2.188 2.074-4.862 1.369-7.19-1.211.271-.655,2.312-1.024,3.426-1.517,3.359-4.24,6.869-5.14,11.3-.317,1.578-.094,3.556-.342,5.479-.25,1.938-.891,3.941-1.027,5.82-.217,2.975.451,6.028 0,8.903-.758,4.831-1.622,14.386-4.106,17.807-1.07,1.476-3.551,2.466-4.453,4.796-1.178,1.109-4.16,2.223-3.424,4.107-1.478.465-2.629,1.251-2.74,3.082-2.264-.211-2.078,2.029-3.766,2.396-1.439-.113.646-1.896.686-2.738-1.562-.071-2.438,3.492-3.082,5.479-2.805-1.189-2.658-5.332-5.137-6.85 .285-1.654 2.604-1.275 2.738-3.081-2.348-9.679-6.588-18.829-6.506-29.106 .022-2.963.467-5.928.342-8.904-.086-2.045-.953-4.045-.686-6.164 2.297,1.473 3.571,3.964 5.137,6.164-1.156,2.987-2.369,7.373-1.369,10.615 .76,2.465 3.115,3.045 4.109,4.795 .842,4.055-2.439,6.479-2.396,9.588 .029,2.133 1.332,3.236 2.396,5.821 .37,4.726 1.225,8.519 1.026,13.013 .526-1.023 1.299-2.303 1.369-3.424 .104-1.643-1.011-3.977-1.369-6.507-.158-1.108.237-2.089 0-3.082-.959-3.999-3.621-7.166.342-10.614 1.607-6.652-3.047-7.229-5.137-10.959 1.053-1.802.307-5.399 1.026-7.533 1.806-.094 1.908,1.519 3.424,1.714 .996-1.528-.661-3.132-1.368-4.109-1.216-1.685-2.992-3.562-4.451-4.794-.724-2.246-2.021-3.914-3.424-5.479-.394-3.948-3.129-7.371-2.74-10.959 1.82.688 2.521,2.824 3.425,4.453 .911,1.642 1.903,3.522 2.397,5.479 1.657,1.08 1.762,3.716 3.424,4.793 2.358.037 3.353,1.443 5.82,1.37-.013,3.304-2.039,6.56-1.712,9.589 .382,3.52 3.122,4.421 5.82,6.163 .144,4.138-2.17,5.819-3.082,8.903-.022,3.453 2.396,5.605 2.396,8.561 .004,2.462-2.408,5.115-.342,7.877-1.562,1.291-2.006,3.701-2.058,6.506 .695-1.369 1.896-2.453 2.74-3.767 .822-1.279 1.137-3.021 2.055-4.109 1.795-2.126 4.92-2.954 5.822-5.821-2.453-.344-3.709,3.33-5.479,4.795-2.447-1.74-1.994-5.812-.687-8.219 .383-.707 1.314-.959 1.711-1.713 .889-1.683.683-4.205 2.398-4.451-.144,2.424.092,4.474.684,6.164 1.695-5.824 1.924-17.897 3.769-23.971 .573-1.893 1.768-3.081 1.026-5.822-.711.088-.094,1.506-.686,1.713-2.008-2.834.271-7.266 1.369-10.271 1.274-3.49 2.922-7.564 4.795-9.932-2.123.414-3.427,3.192-4.451,5.479-1.844,4.106-4.34,8.385-4.451,14.382-.027,1.441.846,3.688.687,5.821-.058.735-.537,1.256-.687,2.055-.41,2.185.605,5.431-1.713,6.849-2.197-9.432-5.844-19.56-6.164-30.817-.82,3.938-1.059,8.797-2.74,12.67-2.848-.433-5.547-2.162-7.531-2.396-2.095-5.781-4.893-10.86-7.877-15.752-.74-.287-1.168-.888-2.396-.686 .229-2.284-.664-3.445-.687-5.479 3.676.416 7.48,1.223 9.933-1.026-2.195-.972-6.025,1.18-7.877-.343 .711-1.61 2.551-1.413 3.424-2.739 1.81-2.743.563-5.884-.342-9.245-.683-1.67-2.81-2.164-3.767-3.768-.998-1.67-.438-3.984-2.057-5.479 3.555-5.122 4.229-13.121 5.479-20.546 2.125,3.272 1.459,7.811.686,11.645-.877,4.348-2.123,8.765-2.738,12.67 .4.513.426,1.398 1.027,1.713 2.012-1.106 1.043-3.953 1.369-6.164 .127-.864.865-1.771 1.027-2.74 .396-2.363.817-5.244 1.026-7.533 .356-3.927.039-7.209-1.026-9.931-.535-1.363-1.4-2.709-.687-5.137 2.062-.438 2.09,1.756 2.739,3.082 1.229,2.509 1.953,4.887 1.711,8.903-.032.573-.6,1.085-.684,1.712-.496,3.686.633,7.916.342,11.3-1.037,1.588-1.375,3.877-2.056,5.82-1.116.854-2.696,2.189-1.712,4.109 1.293.15 1.607-.676 2.396-1.027-.146-2.429.684-3.883 1.713-5.137 .596-10.473 3.943-25.073-3.768-30.476-.002-5.622.406-11.236-1.027-16.095-.652-2.211-3.002-5.971-2.396-8.903 5.365-.72 12.992-.886 17.807-1.027 .404,1.546-1.518.765-1.026,2.397-.971.612-3.195.871-4.451,2.397-.722.876-.66,2.583-1.369,4.109-.526,1.136-1.291,1.293-1.368,2.054-.277,2.701 1.057,6.137 4.794,5.822 .076,2.971-3.858,6.541-3.426,10.615 .195,1.824 1.431,3.034 2.396,4.794-1.329,4.108 1.88,6.539 3.769,8.561-2.026,6.533-6.383,10.74-7.876,17.806 .258,1.285-1.311.747-1.37,1.714 .523,2.672 1.314,5.075 1.714,7.875-2.33,1.096-5.109,1.739-5.479,4.795 2.264-.147 3.067-3.701 5.819-3.426 1.062.105 2.634,1.074 2.74,2.396 .229,2.85-3.924,2.617-4.795,5.138 .146,2.022 1.42,2.918 1.713,4.794-1.404-.343-4.505.502-6.164,0-1.646-.499-1.879-2.076-3.425-2.396-.579,1.445 2.015,2.225 3.767,3.769 1.847,1.624 2.437,4.646 6.164,3.424 1.156-.379 1.591-1.491 2.056-3.082 1.071.07 2.514-.229 3.082.343 .059,3.711-1.178,6.127-1.711,9.246-2.978-.562-4.871-2.207-7.535-3.082 1.303,2.766 4.438,5.28 7.877,4.795 1.098-1.187.814-3.752 2.396-4.451-.771-1.793.038-4.676.344-6.508 1.621-.252 2.354.387 3.766.344 .121-3.03-3.131-1.418-4.793-1.713-2.885-.512-5.108-1.965-6.164-4.108 1.218-2.206 3.181-3.669 4.793-5.479-.01-3.528-2.366-4.709-3.081-7.533 .758-1.068 2.543-1.109 3.768-1.713-.683-1.438-2.152.043-3.424-.685-.854-.519-.476-2.267-1.369-2.739 .41-1.643 1.769-2.342 1.369-4.795 2.54-3.736 4.959-7.598 6.163-12.669 1.209-.66 1.875.112 2.738.685 1.146-.997-.844-1.696 0-2.396 2.521-.334 3.762-1.947 5.822-2.739 1.041,1.698 3.492,1.986 4.108,4.109-2.012-.231-4.588-1.477-5.821-1.37-.961.594-.322.897-.342,2.055 1.219.642 3.047-.625 4.45,0 .8,1.254 1.713,2.396 1.713,4.452 2.687,2.564 7.354,3.146 12.671,3.082-1.56-2.104-5.673-1.068-8.22-2.055-1.469-.568-3.396-2.352-3.768-4.109-.164-.775.324-2.221 0-3.083-.543-1.439-2.188-2.147-3.082-3.425-.158-2.098 2.357-1.522 3.082-2.739 3.021,2.116 6.938,3.336 10.957,4.452 .391.751.885,1.399.686,2.739 2.437,4.979 15.271,1.013 13.355,9.247-3.146,1.255-4.763,5.178-1.708,7.186zm-4.793,59.24c-.613,1.672-.449,4.116-2.058,4.795-3.313-1.153-.925-6.248 2.058-4.795zm-30.135,33.901h-1.024c.18-.275.354-.556.342-1.027 .418.15.702.439.682,1.027zm-2.396.685c.063-.277.344-.342.342-.686h.687c.158.733-.492.653-1.029.686zm5.136-25.34c-.74,1.758-1.746,3.416-2.396,5.137-2.082-1.16-2.562-3.988-2.396-5.822 .312-3.482 5.287-6.369 2.396-10.271-1.73-2.016-4.574-2.125-5.138-4.793-.35-1.658 1.082-3.793 1.711-6.852 .521-2.508.773-4.844 1.714-6.848 .555-.098.59.323 1.026.342 .402,8.273 2.627,14.725 5.479,20.547 .078.492 1.021.119 1.026.686 .267,2.32-.444,3.666-.686,5.479-.785-.287-.939-2.104-.342-2.738-1.396,1.223-1.64,3.34-2.394,5.133zm-3.767,10.957c.676.809.807,2.162 1.026,3.426-1.673.19-.817-2.151-1.026-3.426zm-40.75-73.964c-3.053-.146-4.688-1.705-6.85-2.74-.777,1.394 2.432,1.336 2.397,3.082-2.418.249-3.24-1.098-5.479-1.026 .397.974 1.393,1.35 2.739,1.369-1.166,1.811-3.233-.304-4.108-.685-2.517-1.099-6.545-1.695-7.533-4.108-9.268-2.832-18.23-5.968-28.422-7.877-1.295-2.64-6.408-3.106-6.164-6.164 .147-1.851 2.641-1.859 3.426-3.767 4.137.619 6.623-4.247 9.244-1.027 1.213.185.844-1.213 2.055-1.027 2.793,1.887 6.094,3.268 7.535,6.506 6.33,4.055 13.066,9.002 23.627,6.849 2.678,2.458 7.562,2.709 8.562,6.849-2.153-.354-3.408-1.612-5.139-2.396-1.062.001.184,1.603-2.055,1.026 1.466,2.106 6.189,2.67 6.165,5.136zm2.054,22.257c.377,5.702-2.394,10.751-2.055,16.779-3.707-3.04-.591-12.117-1.027-15.752-.144-1.189-.61-2.928-1.026-4.109-1.58-4.5-3.529-7.635-5.82-11.301-.811-1.294-1.424-3.004-3.082-3.424-.15,1.982 2.686,3.932 3.082,6.506 1.758,2.056 3.928,7.227 5.137,10.615 1.188,3.332-.449,8.396-.342,12.328-3.455-1.041-2.582-4.707-3.426-9.246-.539-2.91-1.9-5.394-2.396-7.533-.104-.465-.855-.284-1.369-.342-.496-5.51-3.266-10.338-4.107-14.383-.459-.689-2.204-1.119-1.37-2.057 3.036.391 4.385,2.467 7.877,2.396 1.713,3.882 5.853,5.336 6.506,10.272 .478,1.351 1.66,1.992 2.396,3.082-.562,2.358.888,4.115 1.022,6.169zm.685,38.696c1.592,2.896 6.239,6.948 2.397,10.272-1.688-.709-2.158-2.638-3.769-3.427 .398-1.956-.975-4.905-2.055-6.506 .17-4.506-2.373-6.301-2.396-10.615-1.953-2.851-1.263-6.429-4.109-8.561 .877-3.048-.987-6.714 1.027-8.562 1.039.485 2.063,2.088 3.082,3.08 1.954,1.909 3.766,6.428 5.137,9.246 .431.883.326,1.934.685,2.739 .983,2.209 3.188,3.815 2.739,6.506-.469,2.806-4.53,3.063-4.45,6.164 .514,1.137.838-.705 1.712-.336zm-4.108,10.957c-.361,1.288-2.732,3.95-3.082,4.108-.973.445-2.512.301-3.424,0 1.26-5.976 3.846-11.914 3.766-18.147 1.043.223 4.174,6.774 4.109,8.901-.031,1.092-.857,1.351-1.369,2.739-.26.707.211,1.649 0,2.399zm-6.164-43.147c-2.467-2.099-3.031-6.101-2.738-10.957 1.389.932 2.441,4.561 2.738,6.848 .177,1.37-.131,2.644 0,4.109zm0,1.713c.373.084.232.683.686.687-.149.945-1.079.015-.686-.687zm-7.534-24.998c2.691,3.146 3.897,9.553 3.425,14.727-4.47-2.125-3.134-9.862-3.425-14.727zm-110.263,8.903c-2.603,1.72-5.881,1.289-7.876,3.082-1.884-.171-4.487.378-5.822-.343 1.743-4.193 5.136-6.735 6.506-11.301-.86-.6-1.556,1.093-2.055,1.713-1.231,1.529-2.614,3.283-3.424,5.479-1.734.777-2.704,2.318-3.424,4.109-2.961.465-4.546-1.148-6.164-1.027-1.215.383-1.722,1.475-3.767,1.027-1.131-1.051 1.362-1.803.343-2.739-2.148.363-1.879,3.144-4.794,2.739 .099-1.271 1.812-.928 1.712-2.396-2.619-.106-3.247,1.775-4.794,2.739-2.946-.263-5.765.448-7.876,0 1.423-3.485 3.385-6.431 6.164-8.562 2.21-5.553 7.083-8.44 8.561-14.727 1.5-.669 2.208-2.13 3.767-2.738-2.854-1.821-5.146,2.529-6.506,4.453-3.104,2.029-4.816,5.455-7.533,7.875-5.058,1.508-14.401,2.033-19.176.686-2.449.783-3.81.611-6.506,0 1-2.311 4.565-2.057 6.506-3.424 .878-1.178 2.408-1.701 3.082-3.082 6.11.287 7.319-4.324 13.013-4.452-.672,1.735-2.362,2.241-2.055,4.108-3.866,1.728-8.765,2.422-11.985,4.795 2.391.898 4.936-.996 6.849-1.713 3.92.152 6.721-.812 8.219-3.082-.05-.748-.863-.734-1.712-.686 3.719-4.614 7.294-9.371 13.698-11.301 .638.047 1.144.226 1.37.686 .759.188.487-.652 1.027-.686 2.023.486 3.977,1.045 5.479,2.055 .785,1.646.874,3.59-.343,4.794 1.067.604 3.515.771 4.794,2.056 6.764-1.176 10.868,3.592 16.437,1.371 .925.102.614,1.438 1.37,1.711-.89,2.877-2.124,5.408-3.767,7.532 .253,2.293.132,6.301.682,9.249zm6.848,41.434c.9.103.27-1.328 1.37-1.026 7.153,6.545 12.917,14.478 17.464,23.628-.569,1.585-.919-.518-2.054-.343-.105-1.036-1.06-1.224-.685-2.739-4.987-2.891-7.622-8.13-12.67-10.958-1.177-2.476-2.741-4.563-5.137-5.821-1.11-3.25-4.683-5.964-5.479-9.931-.292-1.453.165-3.017 0-4.451-.336-2.935-2.25-5.899-2.397-8.903-.116-2.354-.584-5.348-.685-7.875 1.562.145 1.448.942 3.082.342 .415,1.07.831,2.138 1.37,3.082 .511.632 1.081,1.201 1.712,1.714 4.563,10.504 9.521,20.612 15.752,29.448 2.085,1.338 3.597,3.252 4.794,5.479 1.945,1.252 2.841,3.551 4.794,4.794 .946,3.512 3.929,8.234 2.739,11.645-4.122-3.412-4.854-10.213-8.903-13.697-3.373-7.129-9.194-11.809-14.04-17.465-.794.108-1.315-.055-1.712-.342-2.229-7.133-4.986-13.733-7.534-20.547-.277-.063-.341-.345-.685-.343 2.616,8.454 5.368,16.774 8.904,24.309zm2.397,14.726c1.178,3.479 1.924,7.478 3.082,10.614 .763,2.07 2.533,3.471 2.397,5.479-7.197-4.561-7.864-15.648-9.588-25.682 2.33-.344 2.428,2.766 2.74,4.107 .429,1.855.767,3.702 1.369,5.482zm-11.3-25.34c-.825-.142-.745.625-1.712.342 .269,1.41-.525,1.758-.342,3.082-.825-.659-1.137-1.831-2.055-2.396-2.562.137-3.085.217-5.479.342 .975-4.618 3.313-7.873 4.109-12.67 .783.355 2.065.217 2.739.686 .31,4.35 2.183,6.021 2.74,10.614zm-4.452-22.944c-1.499.814-1.335.086-3.082,0-7.554-.374-15.714-.602-24.313-.343-10.399.312-21.633-.507-32.188,0-5.392.259-11.542.495-16.779.343-8.036-.234-16.349.77-24.313.686-8.672-.092-17.065.16-24.998-.344-3.203-.203-8.431,1.211-9.588-2.738 10.965-1.24 22.448-1.025 33.901-1.025 12.039,0 24.927.052 35.956-.344 3.986-.145 8.028.635 11.985.686 4.745.062 9.513-.539 14.382-.342 4.249.172 8.529.541 12.67.342 3.598-.173 6.823-.396 10.616-.342 5,.066 11.663.26 17.807.686-.89,1.813-1.026,2.174-2.056,2.735zm-22.258,49.31c.043-1.153.6-2.242.685-3.424 .926-12.933-1.651-25.5 0-36.982 4.136-.424 8.721-1.438 12.67,0-.386,9.337-3.626,19.068-5.479,28.765-.47,2.461-1.373,4.873-1.712,7.191-.614,4.202-1.319,7.399-2.397,11.3-.781,2.824-1.864,5.348-2.054,8.218-2.049-1.411-1.356-4.616-1.37-7.19-.014-2.611-.427-5.608-.343-7.878zm6.849-42.804c-7.886-.447-14.684.547-21.573.688-6.714.135-12.101-.559-17.464-.344-1.719.068-3.511.646-5.136.686-5.012.122-11.426-1.191-16.437-1.025-1.839.061-3.622.568-5.479.686-4.003.248-8.147-.209-12.328,0-10.375.517-24.063.316-35.271.342-.261-2.25-1.042-3.98-1.37-6.164 15.357,1.324 36.146.406 51.708.344 2.594-.012 5.338-.695 7.876-.686 3.808.014 7.562.48 11.3.342 3.583-.133 7.167-.389 10.615-.342 6.151.083 12.141.693 17.807.342 8.328-.516 19.148-.055 28.765,0 1.011.477-.486,1.876-1.027,2.74-.717,1.144-1.106,2.293-2.055,2.738-1.935.905-6.719-.164-9.931-.347zm-7.876,58.215c-2.727-.295-3.792.098-6.506.342-1.293-4.824-.641-9.623-.685-15.065-.105-13.069-1.498-27.091-1.027-40.063-2.187,1.439-1.37,5.002-1.37,7.533 0,7.639.139,13.1.343,19.86 .089,2.976.682,5.929.685,8.901 .008,6.83.03,12.314.685,18.492-.837-.843-1.485.252-2.739,0-1.449-1.684-.374-3.891-.343-5.821 .187-11.544-.721-25.613-.685-37.324 .007-2.409.471-4.671.342-6.851-.111-1.887-.789-3.76-.685-5.479 2.98-.756 9.069.051 10.616-1.027 1.46,1.901.144,4.775.342,7.533 .062.869.683,1.316.685,2.055 .025,7.606.664,16.108.685,24.312 .019,7.809-1.506,15.529-.343,22.602zm-13.013,0c-2.032-.838-3.685,1.209-5.479-.344-6.938,1.242-16.16-1.135-24.655-.342-2.256.211-3.995.197-6.849.342-1.147.059-2.142.7-3.082.686-.952-.014-1.84-.693-2.74-.686-1.64.02-3.233.678-4.794.686-1.199.008-2.212-.618-3.424-.686-.795-.042-1.6.643-2.397.686-2.948.16-6.188-.318-8.903-.342-1.185-18.312-.77-36.082-1.027-55.133 5.439-1.021 11.014-.037 16.437-.342 2.783-.156 6.718-1.456 8.903-1.027 10.293,2.019 23.18.604 37.325,1.027 .351,6.961 1.656,14.609 0,21.915 1.679,8.823.356,18.801.342,28.08-.002,1.851.673,3.664.343,5.48zm-74.308-27.395c.128-2.215.895-4.521 1.027-6.85 .402-7.065-.576-15.114 0-21.229h.685c1.565.013 5.849-.293 7.876.342 .116,18.195-.173,37.21.342,54.447-3.051.487-6.33.747-9.931.685-.037-6.845.146-12.738.343-19.858 .042-1.523-.49-4.982-.342-7.537zm-1.027,26.71c-1.781-.062-1.141-2.526-1.37-3.424-2.11-8.265-3.396-18.692-5.479-27.738-.989-4.295-2.084-8.584-3.424-13.012-.852-2.816-3.279-8.839.342-10.615h10.273c.996,19.868-1.027,36.315-.342,54.789zm-23.971-97.594c.049-1.376.415-2.734.342-4.109-.14-2.665-.945-4.657-.685-7.191 .27-2.625.28-5.178.342-8.561 .032-1.72.728-3.492.685-5.137-.079-3.01-1.041-7.703-.685-11.643 .249-2.758.626-7.445.342-10.958-.1-1.265-.765-2.538-.341-3.766 1.828-.949 4.056-.409 6.164-.342 9.692.304 23.88-.104 34.244,0 2.75.027 5.993-.059 8.561-.685 1.877.014-.005,1.617-.343,2.739-.577,1.919-.873,4.002-1.37,5.822-1.314,1.167-2.873,2.463-3.767,4.109-.385.709-.028,1.674-.343,2.397-.686,1.576-3.889,3.636-3.424,6.849-1.368.344-1.965,1.458-3.082,2.055-3.257,7.016-6.926,13.62-10.616,20.204 .708,5.111-2.467,7.16-1.712,12.67 1.62.574.964-2.891 2.054-1.713-1.138,5.826-2.229,11.696-2.397,18.491-1.464-.133-2.71,1.186-4.109,1.37-2.922.391-5.668-.605-8.219.344-2.882,1.069-3.476,3.659-5.821,5.479-1.52-.904-3.727.039-5.479,0-.747-2.568-.63-5.183-.342-8.22 .621-6.547-.229-13.707.001-20.204zm49.996-47.256c.812-3.526 2.568-6.107 6.506-6.506 .328-1.241-1.478-.348-1.712-1.027 1.399-2.938 4.854-3.821 6.164-6.849-.422-1.041-1.177.371-2.055,0 1.388-2.924 5.014-3.687 8.219-5.137 2.249-1.018 3.982-3.614 6.849-3.767 5.42-.288 6.472,6.499 10.958,8.561-1.012,2.625.919,3.101 2.054,4.451 .821.136-.19-1.56 1.027-1.027 1.234.364.9,2.295 2.055,2.739 .628-.322-.528-1.728-.342-2.739 .747-.606 2.215.041 2.397-.343 3.309,5.543 2.291,13.533 3.767,20.204 .26,1.175.972,2.255 1.027,3.424 .04.83-.406,1.911-.342,2.74 .054.698.521.912.685,1.712 .568,2.778-.428,6.349 0,9.246-1.167-.546-1.068-2.356-2.397-2.74-.059-11.302-1.552-20.227-4.109-30.134-.906,2.169 1.145,4.329.685,7.191-3.051-1.629-2.488-6.872-4.109-9.931-1.104,1.238.464,2.717.342,4.109-1.389.197-2.246-2.07-3.082-3.425-.929-1.505-1.596-3.23-2.739-4.109 .228,1.583 1.169,3.48 2.055,5.136 1.397,2.615 3.325,5.302 5.136,7.191 .62,1.891 1.511,3.511 2.74,4.794 .557,3.667.445,8.001 2.397,10.273-1.486,5.769-.671,12.57 1.37,17.122-.93-.245.245,1.615-.685,1.37-1.741-1.125-1.645-3.174-2.739-4.794-.988-1.463-2.387-2.591-3.424-4.452 .278-1.184-.639-1.445 0-2.054-2.72-4.585-3.007-11.604-6.164-15.752v-2.74c-1.826-2.53-1.343-6.031-2.055-8.903-.875-3.529-3.613-5.297-4.452-8.218-3.527-.391-7.539-.391-11.643,1.027-.667.231-1.073.842-1.712,1.027-1.49.432-3.69-.044-3.767,2.054 4.402.055 13.585-6.119 16.779-1.027-1.146,5.36-2.22,10.792-7.191,12.328 .346,1.209 1.609.608 2.397.342 3.174-1.071 5.743-6.659 5.821-9.931 3.219-.58 2.221,4.338.343,4.452-.659,2.195-2.271,3.436-2.74,5.821-2.185,1.354-4.012,3.065-5.821,4.794 .171,1.078-.747,1.339 0,2.055 .994.954.888-1.124 2.397-.685 1.064,2.132 2.616,3.776 3.082,6.506 .425.717.996,1.287 1.712,1.712 .789,2.551 3.14,5.133 5.479,9.588 2.001,3.812 4.172,9.622 8.561,7.191-.44-1.266-1.018-1.375-2.397-1.027-2.264-1.796-3.062-4.917-4.794-7.876-1.762-3.009-4.617-5.215-6.164-8.903-.27-.757-1.198-.857-1.712-1.37-.293-3.017-2.183-4.438-3.425-6.506 1.323-1.987 2.984-3.637 4.794-5.136 .501-2.353.983-4.724 3.082-5.479 .698,2.156 1.085,4.623 2.397,6.164 .247,1.046-.35,1.248-.343,2.055 2.576,4.958 3.403,11.665 6.164,16.437 .373,4.64 4.875,7.523 6.164,12.328 1.616.553 3.517.82 4.452,2.055 4.489-.298 11.043,1.612 7.191,5.479-1.848-.663-3.005-2.018-4.452-3.082-4.644.191-7.289-1.615-11.3-2.055-.302,1.688 1.974,2.361 4.109,2.739 2.378.42 5.803-.715 6.506,1.37-3.579-1.549-3.002,1.86 1.027,1.027 1.011.358.655,2.085 2.055,2.055-.425,1.517-1.684,2.197-3.082,2.74 .145-.718-.235-.907-.342-1.371-1.011.474-1.387,1.582-2.397,2.055-6.326-4.267-17.039-.907-20.204,4.109 2.041-.019 4.534-2.539 6.506-3.767 1.979.268 2.995-.432 4.109-1.026 3.441.325 7.878-.347 8.561,2.737-1.924-.131-3.104-1.004-4.109-2.056-1.801,2.433 3.799,3.546 5.821,3.427-.349,3.188-3.06,4.018-5.136,5.479-.559-1.172.041-1.029.685-1.713-1.75-2.873-4.903-5.977-9.931-4.451 .596,1.453-1.142,2.695-2.397,4.109-4.664-.582-11.479,1.02-15.409-1.027-1.177-.15-1.919.135-2.74.342-.102-.697-.686-.912-1.027-1.369-9.258-2.242-16.861-5.318-21.916-12.328 .638-2.441 2.796-3.368 3.767-5.479h1.712c.475.438.209,1.617.685,2.055 7.6,4.729 12.533,12.122 20.889,16.094-.219-1.834-2.619-1.488-2.74-3.424-4.095-1.418-6.54-5.451-9.931-8.219-1.365-1.113-2.985-1.585-3.767-3.424-1.6-.227-2.418-1.234-3.767-1.712 .611-2.667-1.541-2.568-1.37-4.794-1.654,1.086-2.47,3.009-3.425,4.794-6.863-1.028-8.259,5.19-14.04,4.108 1.72-2.731 3.979-4.925 7.534-5.82 .566-.461 1.179-.875 1.37-1.712h1.712c3.418-3.203 8.413-4.828 11.301-8.561-4.535,2.07-8.411,3.673-12.67,6.164-1.791,1.047-3.076,3.213-5.479,3.082 1.671-3.237 3.424-6.392 5.821-8.903 1.587-.125 2.611-.813 3.082-2.054-1.126-1.154-2.298,1.154-3.424,0 .197-1.705 2.405-1.952 3.767-2.397 1.491-.488 3.152-1.045 4.794-1.027 2.019-1.329 6.836-2.715 10.273-3.425 1.145-.236 2.417.005 3.424-.342 .985-.34 1.563-1.207 2.397-1.712 1.154-.699 3.403-.556 3.082-2.397-1.37-1.182-4.672,1.127-5.821,2.397-4.997.482-8.831,2.127-13.013,3.424-1.18.964-2.97,1.804-4.452.685 .904-4.46 4.39-6.339 5.137-10.958 3.455-3.28 7.731-5.738 9.588-10.616-2.051.465-3.268,4.721-6.506,5.138zm7.191-12.67c.908.931-1.042,1.91-1.712,2.397-.827-.85 1.302-1.649 1.712-2.397zm27.737-26.368c.961-.865 2.638-1.014 3.424-2.055 .434,1.278 1.69,1.734 1.37,3.767 1.237,1.425 3.788,2.852 5.821,2.397 .243-1.27-.585-1.469-.342-2.739-3.429.606-6.375-2.771-4.109-5.137 1.483-.113.843,1.896 2.397,1.712 1.072.159 1.529-.298 1.37-1.37 3.151-.045 3.607-2.785 5.822-3.767 4.956.96 4.731-3.259 8.903-3.082 .536,1.633 1.131,3.206 1.37,5.136-1.999.849-4.495-.383-6.164.343-1.814.789-.581,2.296-1.712,3.424 1.875-.595 2.408-.76 3.767.342 1.973.146 1.608-2.044 3.424-2.055 .968,2.114.605,5.559 1.37,7.876-1.276.207-2.166-.875-3.082,0-.265,2.716-2.859,3.899-1.712,7.876-1.854,1.228-5.676.487-8.561.685-2.406,2.845-3.34,7.161-6.849,8.903-.168,1.201-.51,2.229-.342,3.767-1.23.895-3.05.013-4.109-.342 .223-.348.788-.354.685-1.027-4.649-2.428-6.185-7.969-11.985-9.246 2.005-1.876 5.108-2.654 6.164-5.479 1.002.089 1.052-.774 2.055-.685 .356-2.611 2.374-3.562 3.767-5.137 .015-2.299-.892-3.674-2.742-4.107zm-4.794-5.821c-4.326.782-6.893-2.569-6.506-6.164 .417-3.875 4.164-5.656 7.533-6.506 1.803,1.917-.405,5.031.685,6.849 .606-.991.574-2.622 1.027-3.767 2.396-.012 2.876-1.726 3.082-3.082 4.048-4.668 15.641-3.352 20.546-.342-3.786,1.693-7.103,3.855-10.273,6.164-1.714.23-2.651-.317-4.109-.343-1.486,1.368-3.76,1.947-4.794,3.767-1.26-.224-2.694-.274-3.424-1.027 .784,2.936 6.849,2.695 6.506-1.027 1.943-.552 3.739-1.505 5.136,0 2.505.451 2.763-1.346 5.137-1.027-2.167-.525.409-1.361-.343-2.055 3.148-1.551 11.041-5.238 11.985.685-.32.251-.519.623-.685,1.027-1.639.155-2.72-.248-3.424-1.027-1.132.514.712.837.343,1.712-4.569.433-5.226,4.254-10.273,3.424-.955.301-1.136,1.375-1.37,2.397-2.21,1.531-3.419.952-6.506.685-.967.175-1.455.829-2.397,1.027-1.291.263-1.637-.418-2.739-.342-.169,1.767 2.173,1.023 2.397,2.397-5.967.309-7.93-4.364-5.479-8.903-2.152.304-2.543,3.607-2.055,5.478zm28.764-6.164c1.561.053 1.344.283 2.739,0 .306,2.804-2.847,2.273-2.739,0zm-3.082,49.653c-.719,2.02-.828,4.651-1.37,6.849-3.962-3.572-4.064-11.003-6.849-15.752 .112,6.624 3.219,13.218 6.506,17.807 1.597.228 2.2-.539 3.424-.685 1.969,1.798 5.115,2.418 5.821,5.479-1.309-1.773-5.86-.304-6.164-3.082-.93.439-.985,1.754-2.054,2.055-1.118.09-.726-1.329-1.712-1.37-.363,2.376-3.44,2.039-3.767,4.451 .47.448 1.428-1.522 2.739-1.37 .583,2.083.281,4.722 0,7.191-.444,3.912-1.599,8.273-1.027,13.355-.152,1.522 2.287.453 2.055,2.055-1.565-1.157-5.525.082-6.506-2.397 .891-.922 1.033.419 2.055.343-.265-12.188-.957-27.173-3.767-39.723-.14-.825.625-.744.342-1.712-2.106-2.228-1.139-5.379.342-7.534-2.306-.366-1.112,2.769-3.767,2.055-.303-2.086 3.258-5.582 5.137-2.74v2.397c3.531,3.434 5.347,8.581 8.562,12.328zm-6.506-13.355c1.392-.137 1.054,1.457 2.055,1.712-.449,1.395-3.118-.458-2.055-1.712zm15.067,41.435c-2.433-1.562-4.473-3.517-8.903-3.082v1.37c.918,1.253 2.585.053 4.109.342 2.585.491 5.12,2.497 4.794,4.109-.501,2.479-4.873,1.929-8.561,2.055-.623-1.318-.753-3.127-2.739-3.082-.437-5.22 1.125-9.918.342-14.382 1.363.222 1.376-.906 2.74-.685 .14-.825-.625-.745-.343-1.712 2.209.53 4.684.795 6.506,1.712 .564,1.84.388,4.319-.685,5.479-1.822.224-1.626-1.57-2.739-2.055-.067,3.836 5.552,4.948 5.479,9.931zm-16.437,21.573c4.877-.99 7.55-7.295 13.697-4.793-2.637,2.385-5.512,4.531-7.876,7.189-1.693-.588-3.821.527-5.479,1.027 .469-1.485.275-2.284-.342-3.423zm8.904-6.506c-.87-1.041.938-1.598.342-3.425-.324-1.959-2.51-2.055-2.397-4.452 5.933-.553 7.816,5.871 10.958,9.246-2.304.53-2.478-.305-3.767-1.369-2.381-.485-3.51.24-5.136,0zm-3.767-12.328c1.525.899 2.231,3.04.685,4.452-.698-.101-.671-.927-1.37-1.027-.295-1.666.98-1.76.685-3.425zm-7.191,1.027c.046-2.329-1.497-3.069-1.027-5.821 2.113.969 2.346,3.818 3.082,6.164-1.048.248-1.008-.591-2.055-.343zm-76.02,43.833c-2.079-.937-5.062-.794-5.822,1.369-.771-1.354 1.086-3.015 2.055-3.767 4.505.279 7.022-1.427 9.588-3.082 .48-2.373-.02-4.973.342-7.535 .257-1.817 1.177-4.27 1.712-6.848 .298-1.437.807-2.68 1.027-3.769 .146-.722-.263-1.716 0-2.396 1.613-4.181 6.726-4.508 9.246-7.875 2.232.277 2.639,2.383 4.109,3.424-3.984,10.056-8.001,20.078-11.643,30.478-2.339.825-7.072,1.849-9.588.342 1.212-1.299 3.776-1.245 5.136-2.396-2.242-.867-4.503,1.197-6.162,2.055zm-7.192,1.026c-.959.395-1.78.395-2.739,0 .711-1.801 2.802-2.221 3.767-3.769 1.356.388-.911,2.619-1.028,3.769zm13.698-28.422c.019-2.949 2.058-3.879 2.055-6.851 5.45-.312 6.32-3.42 11.643-4.109 .306,2.018-1.479,1.946-1.712,3.422-2.817.836-4.275,3.031-7.191,3.769-1.638,1.219-2.005,3.706-4.795,3.769zm13.354,6.506c3.962.515 7.709,3.974 13.355,4.795 3.292.479 7.865-.416 12.328,0 2.928.271 5.666,1.354 8.219,1.712 1.678.233 3.753-.544 4.794,1.026-1.532.842-2.654-.316-4.109-.343-3.757-.063-7.389,1.612-10.958,1.712-1.294.036-2.816-.656-4.109-.685-2.545-.056-4.78-.151-7.191-1.027-.789-.286-1.592-.423-2.397-.686-.729-.238-1.181-.757-2.055-1.027-2.341-.728-3.345-.983-5.479-2.055-1.067-.535-2.153-.677-2.739-1.712-.11-.792.054-1.313.341-1.71zm-1.027,3.767h.685c5.837,2.153 10.333,5.647 17.464,6.506 .483.935-.861,1.366.685,2.056 2.929,1.955 5.489,5.189 8.903,6.85 1.776.861 4.683.439 5.137,3.082-6.173-.139-13.088-.461-20.204-.344-6.309.105-13.622.975-19.519,0 2.493-5.84 4.366-12.299 6.849-18.15zm29.792,14.382c-1.042-.479-2.302-.262-3.082-.685-1.444-.783-3.551-3.142-5.136-4.452-1.096-.906-3.049-1.471-2.397-2.739 2.098.376 4.567-.416 6.506,0 2.851.612 3.938,3.188 5.821,4.794h2.74c3.68,1.987 12.398,3.41 16.094.344-8.735.766-19.259.078-22.943-6.164 4.027-.564 5.042,2.897 7.876,3.426 1.219.227 2.203-.715 3.767,0-1.222-2.432-6.084-1.223-7.534-3.426 2.273-1.061 3.733-.301 6.506-.344 .879.377 1.194,1.318 1.712,2.055 3.466,1.156 7.704.443 11.643,1.027 1.662.248 3.115,1.094 4.794,1.027 1.039-.041 1.968-.82 3.082-1.027 .846-.156 1.771.176 2.397,0 4.937-1.375 8.518-4.537 10.958-8.561h1.027c-.667,2.871-2.457,4.619-4.452,6.164-.765,3.672-4.322,5.156-6.164,7.876-1.005,1.483-.856,3.507-2.397,4.794-7.631-1.289-17.289,1.896-22.943-1.369-2.931,1.434-4.828-1.337-7.875-2.74zm-3.766-14.724c-3.361-.087-5.777.006-9.931-.343-5.933-.498-10.228-3.17-14.04-4.451 1.013-.989.696-5.647 3.082-6.163 1.125-.244 3.426,2.129 5.479,3.081 2.064.958 4.88,1.373 6.506,2.055 .956.401 2.836,1.987 4.109,2.396 5.196,1.671 10.302,1.31 15.752,1.369 1.16.015 2.525.562 3.767.344 3.221-.567 3.994-3.559 6.849-5.137 2.312.312 3.638,1.61 4.452,3.424-2.414.714-4.381,4.813-7.191,5.479-.969.229-3.639.105-5.136,0-4.155-.295-9.301-1.94-13.698-2.054zm76.705-2.74c-4.283-1.62-11.001-3.405-15.067-3.082-1.382-4.212-2.631-8.556-8.903-7.876-1.411-3.841-5.317-7.009-7.191-9.246 1.299-2.126 5.842-1.007 6.849-3.424-.442-3.781-.746-7.701-4.109-8.561 1.171-2.367 1.94-5.136 3.082-7.534-.768-3.456-3.565-4.881-5.479-7.191-2.52-.049-2.228-2.086-4.452-1.712 .419-3.206 2.596-7.46-.343-9.246 2.069-1.533 5.001-.346 7.191-.342 9.589.018 18.244-.08 28.08,0 1.218-.151 1.5-1.24 2.397-1.712 1.25.005 1.538.973 2.397,1.37 7.42.498 14.728,1.553 21.573,1.027 .831-.064 1.552-.599 2.397-.685 2.948-.3 7.044.638 10.273.685 2.847.041 5.855-.216 8.903-.343 5.182-.214 10.654-.456 16.437-.685-.539,2.486-.339,4.894-1.027,7.191-.294.981-1.34,1.657-1.37,2.74-.071,2.598 2.522,4.59 1.712,7.876-2.636,2.5-4.581,5.692-6.506,8.903 .724,5.272-1.125,9.398 0,13.698-.217,1.039-1.571.941-2.055,1.712-.295,1.416-.919,2.506-1.027,4.108 2.465.183 1.8-2.767 3.424-3.425 2.368-.085 2.474,2.092 4.452,2.396 .83-2.063-1.922-3.263-3.424-4.109 1.134-8.291-1.126-14.936 4.109-19.519 1.81,2.756 2.068,7.063 4.451,9.246 1.462-2.259-2.055-4.636-2.397-7.533-.29-2.459 1.196-4.203.685-6.506 .636-.277 1.384-.443 1.712-1.027-.964-2.004-2.321-3.615-3.082-5.821 .76-2.976 2.567-6.45 2.055-9.588 2.256-4.136 4.437-8.347 7.533-11.643 3.279-.716 5.058-2.933 7.877-4.109 1.076.293 1.443,1.294 2.738,1.37 .83-1.001-1.354-1.182-.685-3.082 1.758-.41 2.246-2.092 4.107-2.397 .383,1.433 1.418,2.712 2.055,4.109 .611,1.343.502,3.219 2.055,3.767-3.34,3.394-5.53,7.938-10.271,9.931-1.329-2.096-1.262-5.587-3.426-6.849-.621,2.952 2.767,4.733 2.739,8.218-2.725,1.437-2.659-2.175-4.795-2.397-1.094,1.519 1.273,2.008 1.714,3.082 1.622.089 1.061,2.363 3.081,2.055 1.244-.011 1.505-1.007 1.369-2.397 3.578-1.673 5.775-4.726 7.877-7.876 2.205.265 2.336-1.544 3.425-2.397 4.646.454 6.752,3.836 10.957,5.136 3.436-.446 5.079-2.682 6.85-4.794-2.78.53-4.481,2.137-6.85,3.082-4.337-1.598-7.009-4.862-11.984-5.822-.644-2.593-3.157-5.006-3.082-7.191 .603-.895 2.388-.807 3.425-.342 2.463-.913.278-4.358 1.37-6.506 2.044.817 3.187,2.81 4.794,4.109 1.604,1.294 3.278,2.357 5.479,3.082 1.323.184 1.672-.611 3.082-.342 .493,3.228-2.06,3.673-1.027,6.506 1.632.376.472-2.04 1.713-2.055 3.015,1.937 5.802,2.787 6.849,5.821 .979,2.837-.228,7.691.686,10.616 .891,2.852.635,8.211 1.371,12.328 .379,2.129 1.42,3.244.686,5.136-1.104,2.836-2.867,5.811-4.108,8.903-.671,1.666-1.181,3.134-1.714,4.794-1.455,4.537-3.723,9.301-2.396,15.068 .304,1.314 1.316,2.258 1.027,3.768-5.363-.916-10.172-2.387-12.671-6.164 2.068-2.072 5.535-4.334 6.164-7.535 .601-3.055-.627-8.115-.344-12.328 .388-5.729-1.271-13.217-1.369-18.834-.028-1.686 1.275-3.208-.342-4.794-1.147,3.227.125,7.072.342,10.273 .062.907-.461,1.884-.342,2.74 .228,1.65 1.773,2.845 1.025,4.109-2.895-6.009-4.336-13.471-5.82-20.888-1.447.925-.137,2.967 0,4.109 .322,2.706.322,4.939 1.027,7.534 .164.605.877,1.091 1.025,1.712 .348,1.448.309,3.066.686,4.452 .723,2.647 1.768,5.053 1.713,8.218 1.107.423.262-1.108 1.369-.685-.553,3.938.412,8.427 0,12.328-.488,4.622-3.877,6.234-5.82,9.246-1.975-1.222-3.107-3.284-4.795-4.794 1.68-6.364-3.25-6.446-9.246-6.164-2.084.098-4.42-.586-5.479.685 4.646,1.434 13.086-2.381 13.697,4.109-2.029.432-2.678-.519-3.426-1.37-1.199.438-2.371-.113-3.425,0-2.25.242-4.493,1.698-6.848,2.397-.771.228-1.679.006-2.398.342-2.946,1.378-4.498,4.419-6.848,6.164-1.418,1.054-5.743,3.328-9.246,2.739-1.255-.211-1.789-1.432-3.424-1.713-2.755,2.104-.779,7.877 2.74,7.877 .671,1.727 1.024,3.77 2.739,4.449-2.727,4.517-5.792,11.578-1.712,16.438 2.168,1.144 4.631,1.988 5.479,4.451-11.812.782-23.269.176-35.271.343-.572-4.146-1.896-9.048-3.767-11.984-.579-.91-1.676-2.205-2.74-2.739-.84-.423-1.756-.06-2.739-.343-.707-.203-1.144-.996-2.055-1.369-1.387-.569-3.416-.479-4.794-1.026-2.014-.802-4.34-2.959-7.876-2.74-.405-.965-1.002-1.735-1.712-2.396-1.727-.244-2.499.467-3.765.684zm89.716-107.182c4.533-.105 7.932-2.077 11.645-3.767-4.172-2.386-8.242,4.029-11.984,2.055 2.65-3.075 12.607-6.052 15.752-1.37 7.135-1.717 12.945,1.954 11.984,8.218-1.234-.556-1.199-1.854-2.396-3.082-1.598-.115-2.518-.908-3.424-1.712-1.377-.236-1.955.328-3.082.342-1.211-.272-1.254-1.713-2.396-2.055-1.357,1.609-3.438,2.498-5.479,3.424-2.516-2.471-4.237.658-6.85,1.027 .102,1.927-1.027,2.625-1.369,4.109-2.461.406-3.199-.91-4.795-1.37-.374-3.109 2.68-2.795 2.394-5.819zm16.782-4.109c-2.13-.042-2.646-1.69-3.769-2.74 1.512-1.178-.332-2.162 0-4.109 2.346.393 4.812.667 5.479,2.739-.328,1.041-1.311,1.43-2.057,2.055-.376,1.326 1.213,1.219.347,2.055zm4.45-.685c-.778.167-1.75.679-2.396,0 .279-1.546.6-3.052 1.369-4.109 2.354-.2 4.135-.405 6.164.342-.658,2.396-4.205,3.021-6.164,1.37-.714.518 1.314,1.174 1.027,2.397zm4.11,2.055c.088-.801 1.504-.197 1.713,0 .145.716-.234.907-.344,1.37-.604-.31-.565-1.261-1.369-1.37zm-22.944,12.67c1.713-3.028 3.787-3.823 4.795-7.191 2.709,1.014 6.013.866 7.533-1.027 1.365-.109 2.528-.019 3.082.685 3.56-2.596 4.64,1.502 7.19,2.74-.194,1.563.994,2.983-.344,3.767 .365,5.886-1.236,12.66-5.479,15.067-.26.998-.812,1.698-1.371,2.397-3.93,1.29-7.334-1.292-9.932-3.424-.525-.433-1.584-.891-1.711-1.027-3.082-3.272-2.439-8.959-5.479-11.985 .455-.442 1.268-.442 1.716-.002zm27.054,28.765c-3.369-2.68-5.855-6.243-7.533-10.616-.381-.875-1.047-1.465-2.055-1.712 .817-1.255 1.485-2.835 3.424-2.055v1.712c2.828,3.451 7.298,5.256 6.164,12.671zm-3.082,1.027c-.799-3.406-4.912-5.902-7.533-7.876 .67-1.781.213-2.869.686-4.452 2.008.657 2.137,2.979 3.426,5.136 1.689,2.83 3.824,4.958 5.82,7.534-.148,3.505-.123,7.183-1.713,9.246-1.749-2.933-.009-6.693-.686-9.588zm-54.79,66.774c-.106-.809-1.189-.637-1.027-1.713 .404-.852 2.167-.345 2.397-1.369-.291-1.223-.843-.04-2.055-.342-.885-1.283-2.989-1.351-4.452-2.057-.354-.9-.41-2.102-.342-3.425 4.896,2.614 11.734.498 14.382-3.081 3.074,2.861 6.059,5.812 10.958,6.85-.897,1.612-3.008,2.017-5.137,2.396 .18-.275.356-.558.342-1.027-6.134.596-9.987,2.893-15.066,3.768zm-1.371,8.22c.687-2.738 1.882-4.967 3.082-7.19 .901.354 2.102.408 3.424.342 .637-1.836 2.574-.289 2.74-2.396 1.895,1.614 1.84-.862 4.109-.687-.825,1.67-2.417,1.873-3.768,2.74-3.626,2.328-5.357,5.467-9.587,7.191zm.343.341c-.149.422-.438.703-1.027.686 .149-.422.438-.704 1.027-.686zm-.685,1.028c1.47,1.61 4.46,1.704 5.479,3.767-2.02,1.669-8.019-.877-5.479-3.767zm1.713.342c.691-1.363 2.15-1.958 3.767-2.396 3.428-5.934 11.155-7.564 16.778-11.303 1.344.027 2.137.604 3.082,1.027 1.846.14 1.436-.957 3.082-.344 1.104.268 2.022.718 2.739,1.369 1.814.354 4.589-.252 5.138,1.371-2.551.668-4.865.238-7.191.686-9.441,1.81-15.412,6.549-21.23,11.984-1.295-1.558-4.112-1.594-6.165-2.394zm55.131-29.791h1.027c1.062,2.819.524,7.233 3.424,8.219-.781,1.89.305,2.832.342,4.794-1.342.629-4.443.44-5.82,0 2.58-.836-.693-10.668 1.027-13.013zm6.849,15.409c-1.854-4.188-.387-10.549-.687-17.122-.098-2.135-.686-4.368-.686-6.506 0-8.313 1.423-14.562.686-22.258-1.889,1.233-.631,3.154-.686,4.794-.174,5.324-1.164,10.324-1.027,16.094 .121,5.042-.531,9.673-.342,14.04-3.41-3.592-2.494-10.632-2.055-16.779-.889.693-2.07,4.345-2.057,6.506 .008.912.262,1.787.686,2.397-2.992,3.449-2.535,10.966-2.055,16.095-1.695-.135-2.547.953-3.768.343 .518-4.13-2.171-9.884.686-13.354 .561-8.114 3.967-13.383 7.191-18.834-.308-4.603-.974-8.843-2.056-12.67 1.228-6.57 5.285-18.965 1.711-24.312-1.754-2.625-4.344-2.861-5.479-6.164 2.506.851 3.07.223 5.822.686 1.752,2.355 1.453,6.765 3.424,8.903 .162,6.39-1.856,12.208-.686,18.491 .896-1.654.418-4.143.686-6.849 .34-3.433 1.429-6.746 1.713-10.273 .199-2.482-.313-5.276 0-7.876 .569-4.734 2.701-9.52 3.082-14.382 .203-2.6.75-4.676 1.026-6.849 .218-1.713-.185-4.193 0-6.506 .153-1.926.366-4.355.685-6.164 .285-1.612.05-3.722 2.056-3.767 2.448.758.776,2.803.687,4.452-.076,1.368.143,2.935 0,4.452-.15,1.612-.775,3.041-1.027,4.794-.609,4.241.43,8.755-1.369,11.301 1.139,9.557-2.711,14.868-2.74,23.97 1.57-2.083 1.408-5.898 2.057-8.903 1.799,3.094-.41,7.422.687,11.3-1.556.185-.916-1.825-2.397-1.712-2.117,4.481-.818,12.156-.685,18.149-.104,1.381-1.291,1.676-2.056,2.397 2.041,1.396 2.671-2.849 4.451-1.712-.283,9.871-.68,20.775-.686,31.847-.545,1.81-1.689,1.672-1.027,4.109 .217,1.586-1.69,1.047-1.369,2.739 .746,1.322 2.652,1.17 3.425,0 1.879.166 3.186-.239 4.108-1.026-.229-2.09-1.113-4.657-.686-7.191 .096-.559.938-1.284 1.027-2.055 .268-2.309-.408-4.969-.344-7.534 .178-6.852 1.754-13.007 1.368-20.546 2.691-.293 2.158,2.637 5.138,2.054-.351,5.007-.715,10.747-1.369,15.41-.443,3.17.164,6.535-.342,9.588-1.224,7.357-3.828,13.99-3.769,20.546 1.694.304 1.258-2.744 1.713-4.795 .351-1.586 1.326-3.158 1.711-4.793 .476-2.008.513-4.308 1.027-6.508 1.327-5.649 1.354-12.582 2.055-19.519 .257-2.533.841-5.845.345-8.903-.334-1.36 1.914-.141 1.711-1.37 .129-1.383-1.17-1.34-1.711-2.055 .582-2.601.416-5.092.686-7.876 .559-5.792-1.258-11.274-1.369-16.779-.033-1.584.686-3.167.686-4.794 0-3.313-1.242-6.933-1.026-10.616 .03-.536.678-1.131.684-1.712 .093-8.521-1.061-17.457-1.026-26.367-.096-.553.324-.59.344-1.027h2.055c.545,12.538.148,22.939 1.369,34.243 .32,2.966 1.357,5.658 1.713,8.561 .178,1.446-.184,3.007 0,4.452 .18,1.402.867,2.423 1.027,3.767 .455,3.81-.721,7.847 0,11.643 .297,1.562 1.559,2.538 2.055,3.767 .414,1.025.658,2.827 1.027,4.109 .893,3.092 1.656,7.254 1.369,11.985-.224,3.651-1.445,6.749-2.055,10.616-.306,1.933.231,4.463-.343,6.849-.242,1-1.271,2.023-1.713,3.083-.69,1.66-.688,3.551-1.369,4.795-1.514,2.761-4.767,4.449-5.821,7.875-2.05.117-2.925,2.412-4.795,2.74-1.984.35-3.847-1.238-6.162-.344-1.258-2.173-2.236-4.62-5.139-5.14zm15.752-78.417c.093,2.086.804,4.55.685,6.506-.056.933-.707,1.873-.685,2.74 .026,1.066.539,1.96.685,3.082 .951,7.298.356,15.646.344,23.971-1.564-1.746-3.668-2.953-5.479-4.452 .291-8.63 1.849-17.762 1.027-26.368 2.269-2.326-.377-10.515 2.055-11.643 2.429.734 1.275,4.052 1.368,6.164zm-7.532,57.186c-.529-2.527.598-5.61-.345-8.218-.737,2.001-.265,5.214-1.026,7.191-1.984-4.331.032-10.672 0-16.095-.017-2.639-1.371-5.035.344-6.849 1.193,1.298.869,1.277 2.396.342 .662,12.52-1.147,23.475-1.368,34.929-2.24-.396-.757-4.71-.687-7.19 .028-.965-.582-3.331.686-4.11zm-4.453-39.722v-1.027c2.631.951 2.28,4.078 2.057,7.876-.203,3.402.898,8.163-1.371,8.903-1.283-.426-.652-2.316-.686-3.424-.101-3.643.075-8.384 0-12.328zm2.398,44.516c-.85-1.207.479-3.164 0-5.137 1.425.556.064,3.835 0,5.137zm0,9.246c-1.262.314-.623-1.807-.344-2.055 1.094-.482.865,2.049.344,2.055zm.684-50.338c1.021.236 1.252,1.26 2.055,1.712 .477,1.264-.543,2.215-.684,3.424-.312,2.665 1.182,5.926-1.027,6.506-.928-2.86.063-7.59-.344-11.642zm2.398,11.3c-.537-.785-.537-3.324 0-4.109 1.136.148 1.834,4.141 0,4.109zm.684-4.794c-1.543-.577-.023-2.327-.343-3.767 .275.181.556.357 1.027.342 .057,1.427.118,2.859-.684,3.425zm0-6.164c-1.597-.727-.384-2.711-.343-4.109 .082-2.793-.062-5.821 0-8.562 1.214-.072.677,1.606 2.056,1.37-1.381,3.094-.558,8.966-1.713,11.301zm2.054-27.737c1.063,2.127-.137,4.67-.344,7.191-.17,2.088.606,4.642-.685,6.164-2.642-1.742.084-4.508-1.371-6.849 1.17-1.342.593-4.432 1.027-6.506h1.373zm-.686-2.739c1.283-.238.836,2.591-.342,2.055-.751-.721-.069-1.523.342-2.055zm4.11,2.397c-1.275.363-1.104-.721-1.711-1.027 .006-.938 1.613-.813 2.055-.342 .042.613-.421.721-.344,1.369zm-3.765-4.794c.772-1.201 3.959-.792 3.768,1.027-1.13.702-2.589-.696-3.768-1.027zm.341,1.027c-.404,1.371-2.883.579-2.396-1.027 .681.46 1.631.652 2.396,1.027zm-2.738,9.588c-.439,3.885-.5,7.134-.688,11.643-.14,3.351.612,6.812-.343,9.588-2.665-1.833-1.137-5.907-1.026-9.246 .115-3.494-.39-7.343 0-10.615 .231-1.951.686-4.63.686-7.191v-1.027h1.027c1.019,1.998.599,4.576.344,6.848zm10.957,79.787c.553-.098.59.323 1.025.342 .25,4.883 7.449,8.412 6.164,14.04-.429,1.877-2.529,3.364-4.793,4.109-2.115-1.652-2.197-5.337-3.425-7.876-1.274-1.58-2.665-3.043-4.452-4.109 1.943-2.052 4.178-3.813 5.481-6.506zm33.9-64.72c1.971-.144 3.295.359 3.768,1.712 1.768-1.505 3.844-.631 6.506-1.027 1.158.782.74,2.283 1.369,4.109 1.137,3.292 3.529,5.16 0,7.534-.48-3.057-.713-6.363-3.424-7.191-.154,1.759 3.197,2.962 2.396,6.506-.666.703-1.067,1.671-2.396,1.712 .188.498-.4,1.771.342,1.712-1.451,1.784-3.127,5.038-5.135,5.137 .774-4.349-4.166-5.544-8.562-5.821-.289,3.371 5.892.274 5.82,3.424-3.111-.155-4.957-.442-7.533.342-3.471-6.716 6.146-8.626 9.246-4.794 .527.958.244,2.724 2.055,2.397 .277-.065.343-.343.687-.342-.064-2.333-1.816-2.979-2.738-4.452 .533-2.438 2.517-6.712-.344-7.876 .812,1.826.125,4.767-1.027,7.191-4.99-1.512-11.153,1.415-8.901,8.219-1.855,2.064-7.883,3.933-8.562.342-.358-1.9 2.375-4.38 4.793-4.794 3.512-3.679 4.01-10.372 9.246-12.327 1.002-.09 1.053.774 2.055.685 .507-.427-.979-1.75.339-2.398zm8.561-18.834c-4.025-1.435-1.938-6.657 0-8.562 2.457.119 4.236-2.348 6.85-3.082 5.603-1.573 12.031-.154 17.121,1.027 1.724,1.132 3.582,2.126 5.14,3.424 1.338,3.806-.312,7.026-2.398,9.246-1.604-.334-1.666-2.214-1.711-4.109-.504-1.302 1.529-.067 1.027-1.37-.955-2.583-5.906-1.172-7.533-3.082-1.277-.021-2.166.346-3.082.685-1.479-.006-1.262-1.706-2.74-1.712-3.785-.079-5.002,3.459-7.875,4.109-1.346.304-3.235-.531-4.453.685-.534.5-.305,1.755-.346,2.741zm23.287-12.67c-6.699-2.294-16.162-1.151-21.916,2.055 .002-5.331 5.635-9.062 10.271-6.506 2.621-1.452 6.859-2.417 9.246,0 .324,1.237-1.35.478-2.055.685 .825,1.916 4.497.983 4.454,3.766zm-16.78,19.519c-1.651-.174-2.906-.747-3.768-1.712-.136-2.736-.027-3.609 0-6.506 3.139-1.313 6.278-2.623 8.901-4.452 2.295.548 4.107,1.584 6.509.342 1.823,1.331 2.479,1.849 5.479,1.712 2.779,9.225-1.451,17.436-6.506,21.916-1.666-.21-1.76-.21-3.426,0-2.125-1.832-4.056-5.682-7.875-3.767-.291-2.002 1.02-2.406 1.369-3.767 .104-1.735-1.579-2.212-.683-3.766zm-2.054.685c-.146,2.367-2.094,2.93-2.398,5.137 1.808.782 1.498-3.217 3.769-3.082 .717,2.191-3.006,4.551-.343,6.849 1.687-.37 2.724-1.388 4.796-1.37 .184,1.642 1.481,2.169 1.368,4.109-.87,1.017-1.672-.872-2.396,0 .311,2.865 1.965,4.387 3.082,7.191-.287,2.192.623,3.99 0,6.164-.262.914-1.49,1.645-2.055,2.74-.412.797-.373,1.854-.687,2.397s-1.059.824-1.371,1.37c-1.373,2.405-3.338,5.179-4.793,7.876-.562,1.042-.742,2.443-1.371,3.424-.576.9-1.803,1.529-2.395,2.397-.64.933-.74,2.167-1.371,3.082-1.748,2.537-4.627,4.234-6.164,6.506-2.295.457-3.637,2.097-5.82,3.424-1.272.774-2.971,2.122-4.108,2.055-2.066-.122-3.009-2.337-4.793-3.767-.375-1.516.577-1.703.686-2.739-.699-1.128-1.252-2.401-2.055-3.424-.517-3.254.778-4.698 1.024-7.191 1.189.275 1.316-.51 2.396-.342 .678-.237.914-.914 1.027-1.712 5.192-2.339 10.651-4.414 15.752-6.849 2.893-4.528 7.174-7.666 10.614-11.643-1.723-6.153-3.594-12.159-6.506-17.122 1.041-2.157 1.196-5.2 4.112-5.48zm9.588,41.092c-.471,1.698-1.369,2.969-1.713,4.794-1.41-2.813-3.721-4.725-6.506-6.164-.08-1.906 1.479-2.171 1.713-3.767 3.007.873 4.9,2.861 6.506,5.137zm-20.204-8.903c-1.234,3.278-4.246.468-7.535,1.027-2.231.38-3.658,1.87-6.506,2.74-3.217.983-7.157.235-6.164-4.794 5.32,5.834 11.635-2.867 19.521-.685-.256,1.054.938.658.684,1.712zm-4.795,2.739c-3.131,2.462-8.07,3.117-10.615,6.164-.614-2.333 1.929-4.46 4.793-4.451 1.815-.921 3.278-2.456 5.822-1.713zm-16.093,69.173c-.221,1.924-2.854,1.922-4.109,1.026 .551-1.161 2.389-1.034 4.109-1.026zm-299.631,76.019c-1.307-1.455.592-4.174-1.027-5.479 1.738-1.408 1.375-7.527 1.027-10.958-1.322-13.06 1.023-27.19-.343-40.065 .945-.834 1.343-2.289 1.37-3.424 .031-1.273-.674-1.672-1.027-3.082-.109-.436.175-1.177 0-2.055-.08-.396-.685-1.025-.685-1.027-.007-.812.786-1.272.685-2.055-.178-1.37-1.434-2.701-1.027-4.109 1.621-.062 3.358,2.523 4.794,3.77 .318,1.529-.28,3.875.685,5.479 .927.213 3.27-.736 5.479-.343 .877,2.149-.351,4.515 0,6.849 .397,2.639 2.278,5.25 2.74,8.219 .112.723-.144,1.641 0,2.396 .354,1.872 1.344,3.604 1.712,5.479 .312,1.588.086,3.15.343,4.795 1.026,6.572 3.876,13.158 4.794,19.52 .305,2.113.655,4.979 1.37,7.533-3.458-.361-5.997.795-8.218.686-2.116.967-2.19,3.975-2.055,7.19-3.069.556-8.422.358-10.617.681zm14.382-.342c-.915.266-1.912.537-3.082,0-.147-2.773.822-4.429 1.37-6.507h1.37c.632,1.651.232,4.333.342,6.507zm106.84.342c-2.861.315-5.813-.1-8.903,0-2.321.075-4.715.854-6.849.688-1.517-.119-2.721-.938-4.109-1.027-1.616-.104-3.238.34-4.794.344-6.751.016-13.542-.58-20.204-.344-1.901.067-3.908.701-5.822.686-3.391-.028-6.811-.575-10.273-.686-3.518-.109-7.072.379-10.615.344-2.597-.026-5.27-.771-7.876-.687-1.478.05-3.04.589-4.452.687-4.678.316-9.344-.196-14.04,0-2.402.101-4.877.881-7.191-.344 .034-2.312-.73-4.578.685-5.82 1.524-1.34 12.367-.748 17.806-.687 7.962.095 14.556.464 20.889,1.027 1.179.104 3.104.06 3.767,0 1.237-.11 2.302-.851 3.767-1.027 1.212-.146 2.777.119 4.109,0 1.574-.14 3.118-.667 4.109-.687 1.213-.021 2.319.562 3.424.687 2.214.251 4.362-.389 6.506-.343 1.465.031 2.983.609 4.452.688 5.923.297 11.836-.603 17.122-.345 6.688.327 12.697,1.099 18.834,1.37 .745,2.052.693,3.826-.342,5.476zm26.025.343c-3.604.296-7.955-.151-11.985-.344-4.216-.199-8.487,1.309-11.643-.686-.298-2.562 1.117-5.15-.343-6.85-2.49-.135-5.577.326-7.533-.344 4.361-14.367 6.503-29.697 10.273-43.488 .223-1.031 1.345-1.166 1.712-2.055-.737-3.195-.079-6.345 0-10.271 .979-.85 3.01-.645 4.452-1.027 2.107-.52.549-4.701 3.424-4.451-.247,2.221 1.168,4.537 0,6.163-1.938.013.505-2.129-.342-2.055-2.473,1.293-1.874,5.66-3.767,7.533v2.055c-1.666,2.103-2.416,5.118-3.082,8.219 1.911,1.104 4.201-.355 6.164-.342 2.125,2.409-.141,4.755-2.054,8.562-.519,1.033-.833,2.334-1.37,3.425-.548,1.112-1.742,1.94-2.054,2.739-.189.481.226,1.248 0,1.713-.758,1.554-3.935,3.791-1.37,5.479 .792-.35.708-1.574.685-2.738 3.336-4.197 4.525-10.543 8.218-14.384 .04,3.269-1.033,5.209-1.37,7.877-.783,6.214 3.166,11.239 2.055,16.095-.676,2.955-4.023,4.935-1.37,8.903 2.768-1.012 4.046,2.394 6.506,1.711 .691-.19 1.512-.659 2.739.343 1.527,1.25 1.954,3.738 3.767,5.139 1.441,1.111 2.83.605 4.109,2.396-1.031,1.517-3.833.52-5.821.683zm-9.246-19.177c.553-.096.589.324 1.027.344 .858,2.715 3.248,5.609 3.082,8.219-1.728-.783-4.229-.792-5.479-2.055-.052-2.68 1.239-4.014 1.37-6.508zm4.452,8.561c.553-.097.589.323 1.027.344 .136.663-1.56.499-1.027-.344zm14.04,10.959c-.607-.877-.607-2.361-1.027-3.425-1.5-.399-1.761.093-3.082-.344-2.717-1.849-4.219-4.912-6.849-6.849-.493-.877-.324-2.416-1.027-3.082-.746-.737-1.588-1.38-2.739-1.713-4.026-7.315-7.226-22.132-2.397-31.161 .553-.097.589.323 1.027.344 .539,3.036 3.646,5.391 4.794,8.562 .917,2.534.482,5.84 1.027,8.562 .957,4.771 1.866,12.491 4.794,17.12 1.822,2.882 5.281,5.649 8.903,7.534 .766,1.859 2.53,2.721 4.109,3.768-1.266,1.472-5.161.316-7.533.684zm17.121,0c-1.353-.929-3.157.125-4.794,0-1.584-.117.854-1.173.685-2.056-1.112-.769-2.813-1.209-4.109-.342-9.193-3.363-10.309-14.805-14.725-22.943 .481-1.004.921-2.047.685-3.768 2.342.512 3.347,2.92 4.794,4.45 4.136,4.376 9.677,8.056 13.355,13.354-1.232,1.965-4.657,1.733-4.452,5.138 3.416,1.84 8.374-.462 10.615-2.056 4.614,2.068-.133,6.566-2.054,8.223zm10.616-2.397c-.813.213.053,2.107-.685,2.396h-7.534c.904-2.521 3.306-3.544 3.425-6.85-.213-.93-1.431-.854-1.37-2.057-4.887-.752-7.012,2.998-10.958,2.057-.834-1.547 2.122-1.883 3.425-2.396 1.731-.553 2.069-2.496 4.109-2.74-.867-3.701-1.286-7.127-2.739-9.93-1.024-1.975-3.148-3.151-3.424-5.479-3.845-5.32-9.614-7.998-12.67-14.041-.635-1.258-.717-2.801-1.37-4.108-.907-1.82-2.33-3.462-3.424-5.821-2.606-5.62-4.943-11.289-8.903-15.752 1.011-1.158 2.572-1.766 4.452-2.055 2.305-2.082 4.193-4.57 6.164-7.191 1.74-2.314 4.24-4.186 5.479-7.191-1.86.266-2.918,2.297-4.109,3.77-2.783,3.438-5.464,7.357-9.246,9.932-1.634.438-2.976-.033-4.794.686-.055-.401-.624-.289-1.027-.344-.721-.646-1.056-1.684-1.37-2.738-.3-1.596.888.472 1.027-.686 .299-1.668-.468-2.271-.685-3.426 1.736-2.072 3.808-2.352 4.452-5.137 .622-2.688-.754-6.699 0-9.588 1.503-1.236 1.978-3.501 3.082-5.139 4.05-.705 9.856,3.609 13.697,4.451 1.957.43 3.001.344 4.452,1.37 .749,1.779 1.995,3.356 2.74,5.138 .68,1.625 1.611,3.891 2.055,5.82 .506,2.201.112,4.793.685,7.191 .493,2.062 1.407,3.398 2.055,6.164 .993,4.234 3.389,7.025 3.767,11.984 3.612,3.691 2.44,12.17 6.506,15.408-.311-4.137-3.186-9.617-4.109-14.725-.23-1.271-.013-2.344-.343-3.426-.653-2.145-2.576-3.897-2.397-6.164 2.69.695 2.798,4.123 3.767,6.508 .791,1.943 2.378,3.826 3.082,5.82 .834,2.364 1.218,5.572 2.055,8.219 .564,1.783 1.783,5.227 2.055,7.533 .106.898-.39,1.891-.342,3.082 .129,3.23.607,9.537.342,13.014-.162,1.611-4.288,4.938-4.109,7.189 .222,2.797 4.51,4.279 7.534,2.055-.188-2.321-4.424-.598-5.479-2.055-.424-1.447 1.866-2.85 3.082-3.768 .013-1.471.446-2.521 1.027-3.424 2.148,1.846 3.816,4.174 5.821,6.164-2.714,3.804-3.337,9.686-9.25,10.28zm-2.055-47.599c-.63-3.279-3.348-6.201-3.082-9.246 3.492,4.955 6.21,10.685 6.506,18.834-1.858-2.25-2.245-5.973-3.082-9.245 .277-.064.341-.344.685-.343-.149-.508-.438.134-1.027,0zm24.998,49.31c-.608.062-1.152.672-1.712.688-5.491.143-10.26-.387-16.437,0-.683-1.906-.579-2.521 1.027-3.426 .132-1.693 1.265-2.389 2.055-3.426 .194-1.858 1.142-2.967 2.055-4.107 2.879.203 3.803,2.359 6.506,2.738 1.707,2.633 5.212,3.465 7.876,5.139 1.403.311 3.516-.092 3.426,1.712-1.061,1.502-3.372.542-4.796.682zm42.118.343c-1.916.822-5.738-.262-7.189,1.027-8.541-1.324-17.711-.645-25.684-1.371-.838-.808.512-.638.344-1.711-4.539-1.283-8.832-2.812-13.014-4.453-1.673-2.894-5.171-3.959-8.218-5.479-2.104-3.375-5.225-5.731-7.876-8.562-.151-6.951-.728-14.099-.685-20.547 .007-1.035.467-2.037.343-3.082-.506-4.235-3.45-9.209-5.479-13.013-.79-1.479-1.238-3.187-2.055-4.108-.763-.862-1.891-.692-2.74-1.369-.911-.729-2.761-3.019-3.082-3.769-.276-.646.157-1.579-.343-2.396-1.563-1.338-3.553-3.916-2.397-6.851 5.779-.905 12.963.339 20.204,0 7.165-.331 14.509-.938 19.519-.685 1.524.076 3.665,2.479 4.793,3.424-.055,3.826-3.84,3.922-4.451,7.189 .607,1.25 2.578,2.052 4.109,2.74 2.924,1.315 5.815,2.883 10.614,1.711-.682-1.935-2.698-.479-4.108-.685-3.362-.485-6.375-2.839-9.246-3.767 1.791-2.319 4.734-3.486 4.795-7.534 3.585-.359 5.085-5.062 8.562-3.425-2.004,3.588-6.688,4.498-7.875,8.903 2.406-1.591 6.43-4.526 8.561-7.532 .91-.004 1.955.129 2.396-.346 .693-1.816 2.971-2.053 3.426-4.107 2.094-.76 3.908-1.799 5.137-3.424 .852.036 1.061.643 1.713,0 .475-.555.971-1.084 1.369-1.714-.309-.72-.531-1.521-1.027-2.055-4.963,1.999-7.912,6.015-11.645,9.246-4.938-3.661-9.287,5.882-13.695,2.054 .213-2.183 3.476-1.316 5.137-2.054 1.854-1.488 1.857-3.933 3.082-5.821 1.185-1.831 3.433-2.969 4.107-5.137 .398.056.609-.076.686-.344 3.177-.934 6.089-2.131 8.562-3.768-2.438-1.353-6.233.838-8.217,2.055-4.438,2.721-7.295,8.309-10.615,11.645-1.666.162-2.854.799-4.108,1.37-4.627-1.644-.974-6.415.686-8.562 2.973-2.964 7.408-4.461 10.614-7.19 1.081.056 2.067.013 2.397-.685-1.191-1.082-3.062-.104-4.109.342-2.344.994-5.002,3.022-6.851,4.451-3.344,2.588-6.007,6.479-8.218,9.59-2.807-1.418-6.007-2.439-6.849-5.821 2.319.8 4.705-.196 6.849.342 3.922-3.455 7.542-7.481 12.669-10.272 2.92-1.588 8.082-3.344 12.672-4.107 2.195-.366 5.505-.502 7.875,0 .623.132 2.021.947 3.082,1.37 4.541,1.805 6.812,4.04 6.851,10.271 .014,2.237-1.455,4.94-1.027,7.877 .451,3.099 3.385,4.971 5.479,7.19 1.291,5.554 5.021,9.903 2.739,17.464-.327,1.085-1.379,2.114-1.713,3.426-.555,2.178-.19,4.684-.685,6.85-.36,1.58-1.323,2.984-1.713,4.449-.405,1.526.229,4.051-1.713,4.453-.01-4.164-1.322-7.662-.686-11.302 .375-2.139 2.334-4.063 2.74-6.506 .385-2.317.481-4.417.684-6.506-1.793.854-1.182,3.586-1.711,5.479-.488,1.743-1.25,3.645-2.396,4.449-.83-5.104-.674-11.195-1.713-16.094-1.649,3.135-.438,7.666 0,10.615 1.605,10.846 1.431,23.369 3.082,32.873-3.233-1.469-6.807.016-11.301-1.027 2.09-11.025 2.598-21.878 3.426-32.53-1.162.658-.852,2.312-1.026,3.425-.314,1.973-.353,4.073-.687,6.85-.408,3.389-1.938,6.682-2.396,9.931-.423,2.979-.003,5.62-1.369,7.876 1.271,1.911.121,4.389-.345,6.506-3.528.57-7.321,2.152-10.272.688 2.002-6.332 3.851-12.815 6.164-18.834 .283-.969-.481-.889-.342-1.713 2.229-4.16 1.493-11.291 4.108-15.066-.315-4.602 2.885-6.52 3.082-9.588 4.256-.946 8.465-1.323 13.012-.688-.383-3.057-6.243-2.859-8.219-1.367-1.778-.1-4.016-.118-5.819.342-1.566.398-2.31,1.346-3.769,1.025-1.242-.271-1.296-1.033-2.396-1.025-4.06.027-6.647,3.392-10.272,5.137 2.59,1.604 4.694-2.006 6.85-3.082 1.076-.535 2.137.24 2.738-1.025-.179,1.681-2.711,2.799-4.107,4.451-.854,1.01-.908,2.258-2.057,2.738-.666,2.084-.435,4.877 1.026,5.821 1.256.253 1.904-.845 2.74,0-.531,2.022-1.265,3.165-1.026,5.137 .231,1.938 2.553,4.476 3.081,6.851-2.016,3.717-2.901,9.504-4.45,14.383-.968,3.041-3.168,6.033-.687,9.244-.806,2.05-1.879,3.828-2.056,6.508 1.812,2.381 6.341-.508 8.903,0-.278,5.099 4.542,11.82 9.931,11.3 1.89-.183 2.47-1.748 4.451-2.056 .287.858.446,1.84.339,3.087zm1.713-21.573c-1.383,3.524-5.516,4.301-6.164,8.562-1.441.498-2.51,1.371-2.738,3.082-2.146-2.418-3.459-5.674-3.082-10.615 2.396-.817 5.42.138 7.875.343 1.137-.007.35-1.937 1.027-2.396 1.856-.438 2.013.084 3.082,1.024zm-11.301-7.534v-.686c.688-.116 1.071.07 1.026.686h-1.026zm-8.561-25.34c1.517-.79 2.56-.333 3.426-2.055-.44-.959-.709,1.078-1.713.685 .9-3.437 2.502-6.172 4.109-8.901 .569-.682-.031-.437 0-1.371 .68-.467 2.145-1.179 3.081-.342-2.823,6.356-4.543,13.649-6.506,21.573-2.539-1.732-3.168-5.446-2.397-9.589zm-.685-1.371c-1.588.219-2.117-.621-2.738-1.369 .658-4.706 4.09-6.641 6.506-9.588 .846-.045 1.65-.053 2.057.342-1.298,4.183-3.989,6.972-5.825,10.615zm35.957,52.051c-.478,1.846 1.305,1.436 1.024,3.082-1.621-.254-2.354.385-3.766.342-.173-1.426-1.019-2.178-1.369-3.424-1.67.157-1.271,2.381-2.397,3.082-1.228.199-1.041-1.014-1.025-2.055-1.021.007-.439,1.615-1.027,2.055-2.752-.188-4.506.672-6.85,0-.635-.963-.996-2.201-1.713-3.082 3.998-6.096 13.99-7.363 18.147-1.027 .536,1.217-1.16.206-1.024,1.027zm18.148,3.082c-1.978-.945.203-5.547-1.026-7.877-1.457,1.057.562,4.971-.685,6.85-1.998.059-3.283-.598-5.479-.342-2.006-2.201-.828-6.064-2.396-8.562-.965-1.533-2.604-1.979-4.108-3.081 .317,2.421 2.549,2.929 3.768,4.451-.371,3.796.914,5.935 2.055,8.219-1.307,1.125-3.934-.043-6.506.343-.859-4.618-3.764-7.196-7.535-8.903 .148-.42.438-.703 1.027-.685-5.482-.883-10.117.683-14.039,3.767-1.914,1.506-2.846,4.271-5.479,4.453-3.898.269-5.103-3.955-7.877-6.164-.511-2.533.166-4.888-.343-6.851-1.709-.565-.621,1.663-1.369,2.056-1.483-1.576-4.793.53-6.85-.686 .063-2.585 2.356-3.102 1.368-5.821 2.355.146 4.488-1.694 5.138,1.369 1.151-.553-1.076-1.084 0-1.712 1.588-.534 3.168-.65 4.108-.343-.961,4.686.982,9.237 3.425,11.643 4.329-1.032 4.61-6.116 7.534-8.561 .449-.351 1.263-.337 1.711-.687 .8-1.599 1.601-3.193 2.396-4.794-.334-2.559-1.355-5.557-1.025-8.219 .215-1.739 1.687-3.779 2.056-5.821 .153-.863-.164-1.66 0-2.396 .45-2.035 1.694-3.886 2.055-5.82 .345-1.854-.512-3.762.685-5.479 1.854.088 2.043,1.838 3.082,2.738-1.271,3.328-1.935,7.32-2.738,11.643-1.125,6.035-.168,13.216-4.109,16.779-.094,1.961-1.342,2.77-1.369,4.795 2.271-.013 1.932-2.635 2.396-4.451 4.719-6.584 3.416-19.186 5.82-28.078 1.858,1.184 2.464,4.25 2.057,6.848-.08.512-.623,1.203-.688,1.713-.14,1.127.219,2.273 0,3.426-.254,1.348-1.185,2.74-1.369,4.107-.256,1.896-.105,4.417-.687,6.164-.521,1.578-1.926,2.48-2.053,4.794-.05.872 1.077,1.953 0,2.396 2.446.748 5.082,1.311 7.875,1.713-.666-1.047-2.048-1.379-3.769-1.369 .017-1.584 2.099-1.102 2.74-2.057 .898-2.295 2.438-3.955 2.738-6.849 1.691.704 2.896,1.897 3.768,3.425 .357,1.957-1.191,2.004-1.369,3.424 2.308,1.493 1.938-2.306 3.424-2.738 2.416.447 1.07,3.236 1.714,4.795 .676,1.638 1.7,2.256 3.424,3.082 1.354-1.715-1.192-2.447-1.713-3.426-.257-2.369-1.201-4.049-2.054-5.82 3.027-4.87-2.012-8.371-3.426-11.984 2.521-.105 1.92-3.332 3.082-4.795-1.639-3.041-1.979-7.378-4.795-9.245 .467-2.292-.986-2.663-1.369-4.108 .779-2.736.185-5.367.687-7.875 .293-1.467 1.135-2.53 1.713-4.451 .528-1.768 1.983-5.562 2.396-7.877 .43-2.41 1.049-4.359 1.371-6.848-1.046.659-1.724,2.678-2.056,4.107-.533,2.289-.315,4.949-1.371,6.85-1.194-3.714-1.071-8.744-2.396-12.328-2.032-.821-2.33-3.377-3.426-5.138 1.265-2.046 2.756-3.864 4.109-5.819 1.02-.353 2.088-.652 2.396-1.713-2.572.396-5.586,3.315-6.851,6.164-1.582-.244-2.266-1.389-3.082-2.396 .037-1.904 2.744-1.137 2.74-3.082 2.149.199 4.17-1.137 6.164-2.055 .487-1.518-1.16-.896-1.027-2.057 4.416-.107 9.939,1.119 12.326,4.451 .69.965.729,2.504 1.371,4.107 1.479,3.719 2.819,9.041 4.108,14.041 .345,1.34.728,2.802 1.026,4.108 .999,4.361 1.312,7.661 2.056,12.671 .603,4.064 2.324,9.699 1.711,15.066-2.098-.87-1.567-4.367-2.055-6.85-1.152-.01-.697,1.586-1.369,2.056 2.406,4.517 2.15,10.737 3.767,16.778 .643,2.396 2.151,6.832 3.082,9.932 .86,2.861 3.811,7.093.344,9.588-3.246-2.576-1.446-10.195-3.426-14.04-.949,3.19.952,8.347-.685,11.985 .868,2.213 4.443,1.719 4.451,4.794-6.343-.837-7.312,5.966-11.295,8.562zm12.67-1.369c-.756.041-.146,1.451-.342,2.055-3.592,1.604-4.838-1.668-6.506-3.082-.086,1.342 1.144,1.367 1.026,2.738-1.312.188-3.047.383-4.795,0 2.238-2.326 3.353-5.778 5.82-7.875 1.043.326 1.379,1.361 3.082,1.026 .805,2.621 4.627,2.224 5.139,5.138 1.955.099 3.435.674 4.793,1.369-1.484,2.694-7.083.532-8.217-1.369zm6.508-.685c.179-2.104.513-4.056 3.082-3.769 .461,2.403-1.045,2.838-1.026,4.795-.702-.328-1.357-.699-2.056-1.026zm6.504,2.396c-.993-.297-.385-.513-.342-1.369 1.197-.307.586,1.117.342,1.369zm3.426.686c-1.229.2-1.656-.397-2.396-.687 .215-1.269 1.06-1.908 2.738-1.711 .578,1.143-.217,1.169-.342,2.398zm5.822-.343c-1.512.142-2.646-.094-3.426-.687 .465-1.021 1.422-1.547 2.058-2.396-.189-.61-.179-1.422-.687-1.713-1.379.447-.961,2.692-3.082,2.396 .301-.604 1.084-1 .342-1.712-1.612.098-2.022,1.398-3.424,1.712 .154-.985 1.211-1.069 1.027-2.396-2.133.949-3.207,2.957-4.795,4.451-2.611-1.718 1.379-3.836 2.396-5.138-.104-.465-.856-.282-1.369-.342 .142-1.002 1.173-1.111 1.714-1.713-.396-.404-.39-1.21-.345-2.056 2.845-4.006 7.125-6.571 9.588-10.957 .605-.635 1.062.088 1.369.686 .883-.259 1.191-1.093 1.027-2.396 .965-.291 1.406-1.104 2.74-1.026 1.053,1.138 1.393,4.312.342,6.507-.111.232-1,.611-1.027.686-1.014,2.851-1.299,5.896-1.711,8.902-.527.729-1.236,1.275-1.713,2.055 .234,2.596.07,3.446-1.024,5.137zm2.055-.343c2.156-7.062 5.545-15.857 5.135-23.285-.055-.396.076-.607.344-.686 1.631-1.016 2.293,1.475 2.738,2.74-.523,1.844-2.168,2.459-1.711,4.109 .764,2.766 4.6,1.607 7.875,1.711-.744,4.85-2.113,10.832.344,15.066-5.975.125-8.989.955-14.725.345zm27.736.686c-4.043-.881-8.289.541-11.643-1.027 .654-1.268-.217-.854-1.027-1.37-1.342-9.425 2.453-16.716 1.027-24.654 1.604-1.021 2.559-2.691 5.479-2.396 .824,1.482-.045,2.774-.686,3.767-1.158,7.746-3.793,14.016-4.451,22.26 .347.682.592,1.463 1.369,1.712 1.26-.261.287-2.312-.342-2.739 .393-5.689 3.188-13.158 4.451-18.834 .612-2.756.205-5.865 3.424-6.163 1.117,1.541-.935,2.351-.687,4.108 1.056,2.941 5.611,2.378 7.877,4.109 1.896,3.92-6.293,4.803-7.532,8.562-1.904.491-2.623,2.171-3.769,3.424 .131,2.871-1.977,3.502-2.055,6.164 1.356.354 2.109,1.313 3.082,2.056 .955-1.291-.935-2.104-1.371-3.082 .496-3.845 2.623-7.877 6.164-7.533 .223,1.019-2.488,1.886-3.082,3.425-1.564,4.056 1.883,5.336 5.479,6.164 .113,1.355-1.578.919-1.707,2.047zm-8.56-29.45v-.686h.684v.686h-.684zm14.039,29.45c-1.41.162.33-.922-1.027-1.027-1.022.226.328.731 0,1.369-1.147-.106-1.365-1.146-1.711-2.055 .935-.596 3.949.291 2.738,1.713zm7.191-.686c-.964-2.805-3.16-4.373-5.138-6.164-.545,2.145 1.67,1.527 2.056,2.74-.438,2.418-4.312,1.146-4.109-1.027-.32-.199-1.92.793-2.738-.342-.375-1.856.689-2.275.687-3.768-1.402-.396-2.345,3.588-1.027,5.137-1.348.43-4.418-.062-5.137-1.369 .03-2.936 2.291-3.645 3.424-5.479-.879-4.16 3.545-5.752 5.822-7.875-.677-4.896.946-7.499 2.395-10.271h1.713c2.758,3.939.189,7.729 0,12.67-.934.25-.688-.682-1.369-.687 1.191,3.831 2.845,7.202 3.425,11.644 1.295,1.9 3.911,2.48 4.795,4.795-1.389.955-2.926-.366-4.799-.004zm.342-14.725c-.611-2.557-.181-7.023.686-9.246 2.367.258 1.316,3.936 2.396,5.479-.41,1.872-2.543,2.023-3.082,3.767zm6.164,6.85c-5.943,4.418-8.896-7.123-3.082-8.562 2.517,2.114 2.211,4.944 3.082,8.562zm36.982,7.19c.16-1.97 2.437-3.315 2.058-5.479-.82-4.666-7.472-3.228-11.302-5.818-.248-1.364-1.248-3.373-.344-4.797 1.168-.252.564,1.264 1.371,1.371 .832-6.778 1.514-16.465 2.738-23.971 3.821,1.771 3.563,7.621 7.19,9.588-1.026-3.592-2.813-6.568-4.795-9.588-.953-1.455-1.567-2.742-2.396-4.453-1.357-2.805-3.603-5.127-3.769-9.244-.084-2.113.806-3.902-1.711-4.795-1.223.535.318,1.847-1.371,2.057-2.528-6.622 3.5-16.508-3.424-19.178-.807.83 1.193,1.759 1.369,2.738 .576,6.812-1.549,15.654 3.082,20.204-1.166,14.354-2.479,29.704-7.191,41.435 .4,1.084.56,2.41 1.713,2.74 3.355-12.213 6.293-27.564 6.851-40.408 2.146.977 2.537,3.977 2.74,5.822 .534,4.906-.892,11.092-1.714,15.408-.446,2.344-.344,5.33-1.026,7.877-.625,2.322-1.537,3.648-1.369,5.137 .27,2.377 2.465,4.66 4.793,5.138 1.35.274 3.287-.651 4.453-.345 1.656.44 3.012,2.264 3.08,3.426 .229,3.873-5.539,5.799-7.189,5.138-.021-1.797 4.107-2.235 3.424-5.819-1.635-.076-3.213,2.668-4.45,4.107-2.604,1.398-8.08,3.801-11.302,1.369-.692.219-.227,1.602-1.026,1.713-4.422.104-11.961.08-17.463-.344-.646-3.237-4.021-3.742-5.48-6.164 1.978-.172 6.17,2.488 7.191-1.026-.002-1.022-.615-1.438-1.369-1.712 1.266-.436 2.904-.423 4.106.342-.266,2.294 1.218,4.953 2.396,6.852 7.961,2.885 10.902-4.838 17.123-4.109 .375,2.201-1.193,2.46-2.055,3.424 2.317,1.086 3.393-1.791 4.106-3.424-4.613-4.811-9.492,2.896-15.065,3.424-2.136.202-3.328-.281-4.794-2.396 .605-.646.248-2.262.343-3.424-3.011-2.013-6.84-3.205-6.851-8.219 3.64-1.043 7.873-1.486 10.615-3.425 0-5.724-.117-8.938-.342-13.354 .77-.83 1.373-1.823 2.396-2.396 2.896-7.676 7.595-16.286 8.902-25.685 .369-2.646.322-5.61-.686-8.219 .282,4.395-.697,8.688-2.056,13.355-1.213,4.171-2.988,11.031-5.819,14.039 0,2.969-1.021,4.916-3.425,5.479-.028-9.302-1.407-18.414-3.082-27.736 .228,10.108 1.062,19.356 1.367,29.106 .09,2.78.951,5.755.688,8.22-.199,1.842-1.234,3.935 0,6.162 .045,1.188-1.736.549-1.713,1.713-4.121-.582-5.238,1.838-8.562,2.056 .445-2.06.441-4.464-.342-6.164 3.506-13.354 4.787-26.556 4.108-43.146-1.655,1.065-1.02,3.766-1.026,5.479-.027,4.911.117,8.977-.342,14.041-.146,1.596-.882,3.262-1.027,4.793-.596,6.18-1.662,12.206-2.396,17.807-3.428-.184-2.928-4.273-3.082-6.848-4.393-.939-4.94,3.402-7.19,4.449-1.658.772-2.863-.314-5.137.344 1.358,1.713 3.616.447 5.137,1.025 .27,1.524-.455,2.058-.342,3.427-1.81-.302-5.634-1.404-7.191-3.082 .018-1.696 1.271-2.154 1.711-3.427 8.31,1.002 6.615-7.994 9.932-11.982 0-4.93 2.312-9.307 1.371-14.04-2.104.918-.528,3.021-.686,4.452-.725,6.663-4.777,12.513-6.164,18.834-1.369,1.161-4.252,2.623-5.82.686-4.178-1.012-8.418,1.514-11.645,1.369 1.594-4.456 2.867-9.23 4.451-13.695 2.188-1.01 4.112-2.281 6.164-3.427 3.039.968 5.196-.192 7.532,1.37 .379,1.862-1.161,1.807-1.026,3.424 2.405-.551 3.508-3.804 1.026-5.479-1.084-.734-5.514-1.506-6.85-1.37-4.529.454-7.521,6.283-10.957,5.479 1.42-2.574 3.234-4.756 5.137-6.851 3.468-6.578 6.588-13.502 10.959-19.176 .724-3.562 3.634-5.854 4.107-9.588 .229-1.785-.004-3.443.686-5.138-2.059-.004-1.123,2.983-2.396,3.768 .646,4.099-2.736,7.058-4.109,10.271-1.147-.291-.768-1.8-1.024-2.74-.201-.727-.82-1.59-1.027-2.396-.43-1.663-.297-3.562-.687-5.136-.28-1.143-1.067-2.864-.686-5.139 .256-1.519 1.494-2.271 2.055-3.424 .34-.697.009-1.664.345-2.396 .709-1.547 2.477-2.073 2.737-3.768 2.513-1.369 4.593-3.172 6.851-4.795-.236-.459-.914.17-1.713-.343-5.375,2.843-8.896,7.54-10.957,13.697-1.695-.703-1.39-3.407-1.371-5.821 1.44-3.012 5.143-3.761 7.19-6.164-.828-3.966-6.67-2.918-9.588-4.794-.09-2.763 3.951-3.497 4.109-6.163 .074-1.273-.74-2.643-2.055-3.768 .868-1.557 2.112-1.551 2.395-3.082 .449-2.435-2.158-4.262-1.711-7.191 2.283-.798 4.033-2.129 6.164-3.082 1.358-3.636-.719-7.038-3.769-8.218-.178,2.203 3.566,3.588 3.082,6.164-.661,3.509-6.657,2.217-7.877,5.479 .89,2.081 2.765,3.173 2.74,6.164-.619,1.092-1.979,1.447-3.082,2.053-2.725-1.581-6.768-.239-9.246-2.396 2.058-2.853 6.496-3.32 7.191-7.534 2.412-.67 3.803-2.361 5.819-3.424-.641-2.74-3.782-6.756 0-8.218 1.56-5.957.837-13.829-2.055-18.149 1.564-1.289 3.836-1.872 6.164-2.397 2.842,1.838 2.492,6.867 5.479,8.561 .514-3.429-7.604-8.644-1.711-11.3 1.397.769 1.651,2.684 2.737,3.767 .699,8.444 9.416,12.747 5.82,22.258-.967.283-.887-.482-1.711-.342 .328,4.184-.555,8.057-4.453,8.903 0-7.151-4.387-10.555-6.506-16.437-.348-4.499.783-10.011-1.711-12.67 1.315,3.539-.172,12.176 1.369,15.409 1.737,2.714 3.338,5.564 5.137,8.219-.139,1.177-.277,2.863.342,4.109-1.678,2.431-4.656,3.562-7.531,4.794-.039,2.748 4.531,3.087 5.136,5.479 .854,3.387-1.451,4.421-4.109,5.82 1.539,2.449 5.5-1.443 5.48-4.107-.027-3.641-4.509-3.959-4.453-7.191 2.938-.145 4.297-1.869 6.85-2.397-1.305,5.675.039,8.07 2.74,11.644 .531,2.358-1.551,2.103-1.713,3.767 .832,3.998 6.684,2.783 6.506,6.508-.133,2.8-4.642,3.576-6.506,5.82 1.535,2.119 4.506-1.72 6.506-2.396 .408-1.189.729-2.467 1.369-3.425 5.055,3.243-4.808,6.259-1.369,10.958 1.865-.997.051-3.985 2.055-5.139 1.291-.264 1.64.418 2.74.345 .615,1.668 1.154,3.409 2.396,4.45 .093,2.341.322,7.229 0,10.615-.104,1.07-.686,2.021-.686,3.082-.004,3.575 1.33,7.215 1.369,10.615 .022,2-.158,4.326-.342,6.164-.265,2.615-2.322,5.52-.343,7.875 1.154-1.4.853-5.545.685-7.191 1.596-2.854.842-8.062 1.026-12.326 3.371-1.9 8.621-5.115 6.851-9.932-.875.383.137,2.648-.687,3.082-1.598.989-5.102,1.645-6.85,0-.531-2.357 1.514-2.141 2.396-3.082 1.949-3.383 6.093-2.953 7.877.344 .367,1.48-.368,2.881-.344,4.108 .031,1.402.853,3.347.344,5.479-.35,1.455-1.176,3.269-2.055,4.451-1.117,1.504-3.947,2.162-4.108,4.795 1.067,1.353 2.295-.811 3.082-1.371 2.846-2.032 5.229-6.231 4.793-12.327 2.766-.511 5.102-1.089 7.19-.343 3.303,1.181 4.676,5.494 6.164,8.562 1.695,2.172 3.488,4.558 5.137,7.19 .515.821 1.365,2.252 1.369,2.74 .029,3.635-5.92,4.834-4.108,9.588 1.584-1.156 1.795-3.687 3.768-4.451 1.346,1.319 1.316,3.399 1.713,5.137 .873,3.835 1.902,8.171 2.396,13.013 .317,3.125-.396,6.323 0,9.589 .106.879.821,1.534 1.026,2.396 .193.82-.121,1.906 0,2.738 .183,1.262.854,2.328 1.025,3.426 .615,3.865-.01,7.885 1.371,11.301-1.672,1.932-3.379,5.381-6.489,4.79zm17.123,0c-4.444-.108-8.067.606-12.67.343 2.619-2.888 4.418-5.887 3.082-11.301-1.324-5.359-3.146-14.752-1.713-20.203 4.943-2.02 7.981-5.943 10.957-9.932 .555-.096.59.324 1.026.343-1.104,15.108-.203,27.794-.682,40.75zm0-46.228c-1.754-.987-2.065-3.414-4.108-4.109 1.291-1.562 2.354-3.352 4.45-4.109 .563,2.119.676,6.554-.342,8.218z"/>
 <path d="m346.201,130.298c-1.875-.065-1.314-2.565-1.713-4.108 .062-.291-.133-.322-.343-.342 .138-1.219 2.655,1.986 2.056,4.45z"/>
</svg>
